<svg width="21" height="21" fill="none" xmlns="http://www.w3.org/2000/svg"><path d="M12.96 14.848a1.848 1.848 0 00-1.845 1.845c0 1.018.828 1.846 1.846 1.846a1.848 1.848 0 001.846-1.846 1.848 1.848 0 00-1.846-1.845zm0 2.46a.616.616 0 11.002-1.231.616.616 0 01-.001 1.232zM10.5 6.152a.615.615 0 100-1.23.615.615 0 000 1.23z" fill="#fff"/><path d="M10.5 2.46a3.08 3.08 0 00-3.076 3.077A3.08 3.08 0 0010.5 8.613a3.08 3.08 0 003.076-3.076A3.08 3.08 0 0010.5 2.461zm0 4.923a1.848 1.848 0 01-1.846-1.846c0-1.018.828-1.846 1.846-1.846 1.018 0 1.846.828 1.846 1.846A1.848 1.848 0 0110.5 7.383z" fill="#fff"/><path d="M15.422 0H5.578a1.848 1.848 0 00-1.846 1.846v17.308c0 1.018.828 1.846 1.846 1.846h9.844a1.848 1.848 0 001.846-1.846V1.846A1.848 1.848 0 0015.422 0zm.615 19.154c0 .34-.276.616-.615.616H5.578a.616.616 0 01-.615-.616V1.846c0-.34.276-.616.615-.616h9.844c.34 0 .615.276.615.616v17.308z" fill="#fff"/><path d="M14.191 9.926H6.81a.615.615 0 100 1.23h7.382a.615.615 0 100-1.23zm0 3.691a.615.615 0 100-1.23.615.615 0 000 1.23zm-2.461 0a.615.615 0 100-1.23.615.615 0 000 1.23zm-2.46 0a.615.615 0 100-1.23.615.615 0 000 1.23zm-2.461 0a.615.615 0 100-1.23.615.615 0 000 1.23zm0 2.461a.615.615 0 100-1.23.615.615 0 000 1.23zm2.461 0a.615.615 0 100-1.23.615.615 0 000 1.23zm0 2.462a.615.615 0 100-1.231.615.615 0 000 1.23zm-2.461 0a.615.615 0 100-1.231.615.615 0 000 1.23z" fill="#fff"/></svg>