<svg width="18" height="23" fill="none" xmlns="http://www.w3.org/2000/svg"><path d="M17.235 9.994a8.55 8.55 0 00-2.12-2.827l-.743-.656a.21.21 0 00-.189-.044.21.21 0 00-.088.045.197.197 0 00-.056.08l-.332.916c-.207.574-.588 1.16-1.128 1.737a.163.163 0 01-.104.05.145.145 0 01-.11-.037.142.142 0 01-.051-.118c.094-1.478-.366-3.144-1.373-4.958C10.107 2.675 8.949 1.5 7.5.68L6.447.084c-.138-.079-.315.024-.307.179l.056 1.178c.039.805-.059 1.517-.289 2.108a6.935 6.935 0 01-1.201 2c-.36.42-.767.8-1.215 1.132A8.743 8.743 0 00.926 9.662 8.255 8.255 0 000 13.45c0 1.159.238 2.28.708 3.338a8.569 8.569 0 001.93 2.722A9.017 9.017 0 005.5 21.342a9.323 9.323 0 003.5.673 9.37 9.37 0 003.5-.67 8.948 8.948 0 002.861-1.834 8.488 8.488 0 001.93-2.721A8.147 8.147 0 0018 13.452a8.16 8.16 0 00-.765-3.458zM14.14 18.32c-1.373 1.306-3.196 2.022-5.139 2.022s-3.766-.716-5.14-2.022c-1.367-1.303-2.121-3.03-2.121-4.87 0-1.067.25-2.09.744-3.042A7.013 7.013 0 014.55 8.005a8.785 8.785 0 001.498-1.394 8.616 8.616 0 001.488-2.479 5.7 5.7 0 00.31-1.141A7.48 7.48 0 019.41 4.964c.854 1.536 1.248 2.903 1.171 4.067-.018.274.028.548.136.802.109.255.275.482.488.665a1.905 1.905 0 001.365.462 1.901 1.901 0 001.304-.599 8.14 8.14 0 00.88-1.12c.358.44.657.919.895 1.434a6.57 6.57 0 01.613 2.776c0 1.838-.754 3.568-2.122 4.87z" fill="#fff"/></svg>