<svg width="19" height="18" fill="none" xmlns="http://www.w3.org/2000/svg"><path d="M3.087 0C2.27 0 1.483.324.905.902A3.075 3.075 0 000 3.079v6.158c0 .816.325 1.6.904 2.177a3.092 3.092 0 002.183.902h2.131a1.567 1.567 0 01-1.567 1.42H1.188a.713.713 0 00-.713.711v2.843c0 .392.32.71.713.71h2.85A5.47 5.47 0 007.9 16.404a5.44 5.44 0 001.6-3.851v-.237h1.662c.767 0 1.507-.285 2.075-.799.568-.513.924-1.22.999-1.98l3.686 2.204A.713.713 0 0019 11.13V1.185a.71.71 0 00-.722-.71.714.714 0 00-.357.101L14.235 2.78a3.076 3.076 0 00-.998-1.981A3.092 3.092 0 0011.162 0H3.088zM14.25 4.429l3.325-1.99v7.437l-3.325-1.99V4.43zM4.037 16.579H1.9v-1.421h1.752a2.996 2.996 0 002.994-2.842h1.429v.237A4.016 4.016 0 016.892 15.4a4.04 4.04 0 01-2.855 1.179zm-2.612-13.5A1.66 1.66 0 013.087 1.42h8.075a1.66 1.66 0 011.663 1.658v6.158a1.656 1.656 0 01-1.662 1.658H3.088c-.441 0-.864-.175-1.176-.486a1.656 1.656 0 01-.487-1.172V3.079z" fill="#fff"/></svg>