<svg width="24" height="24" fill="none" xmlns="http://www.w3.org/2000/svg"><g opacity=".5" clip-path="url(#clip0)" fill="#999"><path d="M5.09 21.01A9.475 9.475 0 012.5 14.5V7c0-.55.45-1 1-1s1 .45 1 1v7.23c-.32.86-.5 1.8-.5 2.77 0 .09 0 .19.01.27.04 1.35.44 2.63 1.08 3.74zM20.5 7.25c-.55 0-1 .45-1 1v6.25c0 .95-.18 1.86-.51 2.7.01-.06.01-.13.01-.2 0-3.86-3.14-7-7-7s-7 3.14-7 7c0 .07 0 .14.01.2.1 3.77 3.2 6.8 6.99 6.8.239 0 .475-.012.708-.036C17.617 23.6 21.5 19.501 21.5 14.5V8.25c0-.55-.45-1-1-1zm-9.01 14.72A4.993 4.993 0 017 17c0-2.76 2.24-5 5-5s5 2.24 5 5c0 2.59-1.97 4.72-4.49 4.97a4.361 4.361 0 01-1.02 0zM22.25 1h-3.5c-.41 0-.75.34-.75.75V4h5V1.75c0-.41-.34-.75-.75-.75zM4.5 0h-2c-.28 0-.5.22-.5.5V3h3V.5c0-.28-.22-.5-.5-.5z"/><path d="M21.25 9.25h-1.5A2.752 2.752 0 0117 6.5v-.75a.75.75 0 01.75-.75h5.5a.75.75 0 01.75.75v.75a2.752 2.752 0 01-2.75 2.75zM5.25 8h-3.5A.75.75 0 011 7.25v-2.5A.75.75 0 011.75 4h3.5a.75.75 0 01.75.75v2.5a.75.75 0 01-.75.75z"/></g><defs><clipPath id="clip0"><path fill="#fff" d="M0 0h24v24H0z"/></clipPath></defs></svg>