<svg width="24" height="24" fill="none" xmlns="http://www.w3.org/2000/svg"><path d="M0 16.567A.5.5 0 00.252 17L7 20.857v-8.004L0 8.736v7.83zm8-3.633v8l15.649-4.89a.5.5 0 00.351-.477V7.906L8 12.934zm8.748-9.801a.494.494 0 00-.397-.043L.694 7.983l6.868 4.04 15.964-5.017-6.778-3.873zm-7.319 7.19a.501.501 0 01-.686.173l-2.5-1.5a.5.5 0 11.514-.858l2.5 1.5a.5.5 0 01.172.686zm3-.998a.501.501 0 01-.686.172l-2.5-1.5a.5.5 0 11.514-.858l2.5 1.5a.5.5 0 01.172.686zm3-1a.501.501 0 01-.686.172l-2.5-1.5a.5.5 0 01.514-.858l2.5 1.5a.5.5 0 01.172.686zM18 7.568a.499.499 0 01-.257-.071l-2.5-1.5a.502.502 0 01-.172-.687.501.501 0 01.686-.171l2.5 1.5a.5.5 0 01-.257.929z" opacity=".5" fill="#999"/></svg>