<svg width="24" height="24" fill="none" xmlns="http://www.w3.org/2000/svg"><g opacity=".5" fill="#999"><path d="M5.937 9.032h4.814v2.082H5.937V9.032zM20.02 0l-.854 1.115a4.315 4.315 0 011.706 3.448 4.342 4.342 0 01-1.503 3.283l.92 1.061a5.746 5.746 0 001.988-4.344A5.71 5.71 0 0020.02 0z"/><path d="M18.257 2.368l-.87 1.104c.338.265.531.663.531 1.09 0 .436-.198.838-.545 1.104l.854 1.115a2.774 2.774 0 001.096-2.218c0-.862-.389-1.662-1.066-2.195zm-6.102.797h-1.404v1.653H4.532V.016H3.128v4.802H1.723V24h13.294V4.818h-2.862V3.165zM5.99 21.27H4.544v-1.404H5.99v1.404zm0-2.809H4.544v-1.404H5.99v1.404zm0-2.81H4.544v-1.404H5.99v1.405zm3.033 5.62H7.577v-1.405h1.446v1.404zm0-2.81H7.577v-1.404h1.446v1.404zm0-2.81H7.577v-1.404h1.446v1.405zm3.034 5.62H10.61v-1.405h1.447v1.404zm0-2.81H10.61v-1.404h1.447v1.404zm0-2.81H10.61v-1.404h1.447v1.405zm.098-3.134H4.533v-4.89h7.622v4.89z"/></g></svg>