<svg width="24" height="24" fill="none" xmlns="http://www.w3.org/2000/svg"><g opacity=".5" fill="#999"><path d="M3.928 12.004c0-3.386 2.096-6.291 5.059-7.488l1.511-3.036C5.345 2.212 1.37 6.652 1.37 12.004c0 4.87 3.291 8.984 7.766 10.238l.29-2.587c-3.192-1.077-5.497-4.1-5.497-7.65zm18.702 0c0-4.868-3.289-8.982-7.762-10.237l-.297 2.585c3.194 1.076 5.5 4.1 5.5 7.652 0 3.367-2.07 6.258-5.006 7.467l-1.553 3.056c5.148-.736 9.119-5.174 9.119-10.523z"/><path d="M18.085 10.716a.604.604 0 00-.025-.605c-.117-.19-.323-.266-.546-.266h-4.863L13.698.744c.036-.309-.156-.629-.454-.717a.638.638 0 00-.755.328L5.914 13.571a.696.696 0 00.028.65c.117.189.323.342.544.342h4.8l-.984 8.76c-.035.307.156.565.452.654.06.018.123.023.183.023a.64.64 0 00.57-.35l6.579-12.934z"/></g></svg>