<svg width="24" height="24" fill="none" xmlns="http://www.w3.org/2000/svg"><g opacity=".5" clip-path="url(#clip0)" fill="#999"><path d="M6.868 5.6a1.2 1.2 0 100-2.4 1.2 1.2 0 000 2.4zm-4.8 8.802h9.602V7.2H2.067v7.2zm4.8-6.859l3.795 2.109-.388.699-.606-.337v2.788a.8.8 0 01-.8.8h-4a.8.8 0 01-.8-.8v-2.787l-.607.336-.388-.7 3.795-2.108z"/><path d="M5.668 11.201a.8.8 0 01.8-.8h.8a.8.8 0 01.8.8v1.6h.8v-3.23l-2-1.112-2 1.111v3.232h.8v-1.6z"/><path d="M10.069 18.802a.4.4 0 01-.4-.4v-1.6a.4.4 0 01.4-.4h1.6c.22 0 .4.18.4.4v.552a8.712 8.712 0 014.67-1.352c.029 0 .057.002.086.003l.045-.003c.049 0 .096.006.144.007a8.79 8.79 0 015.857 2.493V4.8H8.828a2.004 2.004 0 01-1.96 1.6h4.801a.8.8 0 01.8.8v7.2a.8.8 0 01-.8.801H2.068a.8.8 0 01-.8-.8V7.2a.8.8 0 01.8-.8h4.8a2.004 2.004 0 01-1.96-1.6H.469v15.202h8.635l1.2-1.2h-.234zm8.4-4.4a.4.4 0 01-.4.4h-.8a.4.4 0 01-.4-.4v-.8a.4.4 0 01.4-.4h.8a.4.4 0 01.4.4v.8zm0-3.2a.4.4 0 01-.4.4h-.8a.4.4 0 01-.4-.4v-.8a.4.4 0 01.4-.4h.8a.4.4 0 01.4.4v.8zm3.201 3.2a.4.4 0 01-.4.4h-.8a.4.4 0 01-.4-.4v-.8a.4.4 0 01.4-.4h.8a.4.4 0 01.4.4v.8zm0-3.2a.4.4 0 01-.4.4h-.8a.4.4 0 01-.4-.4v-.8a.4.4 0 01.4-.4h.8a.4.4 0 01.4.4v.8zm-8-4.801a.4.4 0 01.4-.4h7.2a.4.4 0 01.4.4V8a.4.4 0 01-.4.4h-7.2a.4.4 0 01-.4-.4V6.4zm0 4a.4.4 0 01.4-.4h.8c.22 0 .4.18.4.4v.8a.4.4 0 01-.4.4h-.8a.4.4 0 01-.4-.4v-.8zm0 3.2a.4.4 0 01.4-.4h.8c.22 0 .4.18.4.4v.8a.4.4 0 01-.4.401h-.8a.4.4 0 01-.4-.4v-.8zm-9.602 4.801a.4.4 0 01-.4.4h-1.6a.4.4 0 01-.4-.4v-1.6a.4.4 0 01.4-.4h1.6c.22 0 .4.18.4.4v1.6zm4 0a.4.4 0 01-.4.4h-1.6a.4.4 0 01-.4-.4v-1.6c0-.22.18-.4.4-.4h1.6a.4.4 0 01.4.4v1.6z"/><path d="M6.468 11.201h.8v1.6h-.8v-1.6zm10.847 5.632c-.17-.013-.34-.026-.512-.028a3.603 3.603 0 00-3.534 3.598c0 1.962 1.58 3.56 3.534 3.597.172-.001.342-.015.512-.027a3.604 3.604 0 003.155-3.57c0-1.834-1.38-3.35-3.155-3.57zm-.445 5.97a2.4 2.4 0 110-4.8 2.4 2.4 0 010 4.8z"/><path d="M22.669 19.443a7.964 7.964 0 00-2.368-1.789 4.38 4.38 0 010 5.497 7.959 7.959 0 002.368-1.788l.864-.96-.864-.96zm-9.033-2.014a7.963 7.963 0 00-2.538 1.71l-1.264 1.264 1.264 1.264a7.963 7.963 0 002.537 1.71 4.378 4.378 0 010-5.948zM8.751 2.518l-.234-.235A2.315 2.315 0 006.868 1.6c-.622 0-1.208.243-1.648.683l-.235.235.566.565.234-.234c.579-.579 1.588-.579 2.166 0l.235.234.565-.565z"/><path d="M4.42 1.815A3.44 3.44 0 016.867.8c.925 0 1.795.36 2.45 1.015l.068.068.566-.566-.069-.068A4.234 4.234 0 006.868 0a4.23 4.23 0 00-3.014 1.249l-.069.068.566.566.068-.068z"/></g><defs><clipPath id="clip0"><path fill="#fff" d="M0 0h24v24H0z"/></clipPath></defs></svg>