<svg width="24" height="24" fill="none" xmlns="http://www.w3.org/2000/svg"><g opacity=".5" fill="#999"><path d="M12.703 18.281c5.04 0 9.14-4.1 9.14-9.14 0-5.04-4.1-9.141-9.14-9.141-5.04 0-9.14 4.1-9.14 9.14v9.84h-.758a.65.65 0 00-.63.801l.864 3.721a.65.65 0 00.632.498h2.596a.65.65 0 00.631-.498l.865-3.72a.65.65 0 00-.63-.801h-.758V15.73a9.109 9.109 0 006.328 2.551zm0-15.468a6.335 6.335 0 016.328 6.328 6.335 6.335 0 01-6.328 6.328A6.335 6.335 0 016.375 9.14a6.335 6.335 0 016.328-6.329z"/><path d="M12.703 14.063a4.927 4.927 0 004.922-4.922 4.927 4.927 0 00-4.922-4.922A4.927 4.927 0 007.781 9.14a4.927 4.927 0 004.922 4.921zm0-7.032c1.163 0 2.11.947 2.11 2.11a2.112 2.112 0 01-2.11 2.109 2.112 2.112 0 01-2.11-2.11c0-1.162.947-2.109 2.11-2.109z"/><path d="M12.703 9.844a.703.703 0 100-1.406.703.703 0 000 1.406zm6.328 7.729v2.495a.59.59 0 00.59.588h1.634a.59.59 0 00.589-.588v-5.67a10.632 10.632 0 01-2.813 3.175z"/></g></svg>