<svg width="24" height="24" fill="none" xmlns="http://www.w3.org/2000/svg"><g opacity=".5" fill="#999"><path d="M14.813 18.328a.704.704 0 100 1.407.704.704 0 000-1.407zM12 4.266c-1.163 0-2.11.946-2.11 2.109s.947 2.11 2.11 2.11c1.163 0 2.11-.947 2.11-2.11 0-1.163-.947-2.11-2.11-2.11zm0 2.812a.703.703 0 110-1.406.703.703 0 010 1.406z"/><path d="M17.625 0H6.375c-1.163 0-2.11.946-2.11 2.11v19.78c0 1.164.947 2.11 2.11 2.11h11.25c1.163 0 2.11-.946 2.11-2.11V2.11c0-1.164-.947-2.11-2.11-2.11zM12 2.86a3.52 3.52 0 013.516 3.515A3.52 3.52 0 0112 9.891a3.52 3.52 0 01-3.516-3.516A3.52 3.52 0 0112 2.859zM7.781 21.14a.703.703 0 110-1.406.703.703 0 010 1.407zm0-2.812a.703.703 0 110-1.406.703.703 0 010 1.406zm0-2.812a.703.703 0 110-1.407.703.703 0 010 1.407zm2.813 5.625a.703.703 0 110-1.407.703.703 0 010 1.407zm0-2.813a.703.703 0 110-1.406.703.703 0 010 1.406zm0-2.812a.703.703 0 110-1.407.703.703 0 010 1.407zm4.219 5.625a2.112 2.112 0 01-2.11-2.11c0-1.163.946-2.11 2.11-2.11 1.163 0 2.109.947 2.109 2.11 0 1.163-.946 2.11-2.11 2.11zm-2.11-6.328a.703.703 0 111.406 0 .703.703 0 01-1.406 0zm3.516.703a.703.703 0 110-1.407.703.703 0 010 1.407zm0-2.813H7.78a.703.703 0 110-1.406h8.438a.703.703 0 110 1.406z"/></g></svg>