<svg width="25" height="25" fill="none" xmlns="http://www.w3.org/2000/svg"><path opacity=".5" d="M25 12.487a.874.874 0 00-.356-.703l.005-.008-3.023-1.758 1.74-3.037-.006-.004a.877.877 0 00-.04-.786.87.87 0 00-.657-.43v-.008h-3.491V2.245h-.007a.877.877 0 00-.426-.66.858.858 0 00-.782-.041l-.005-.008-3.073 1.789L13.177.354l-.006.003A.867.867 0 0012.474 0a.862.862 0 00-.697.358l-.008-.004-1.73 3.02-2.98-1.734-.003.007a.859.859 0 00-1.207.703H5.84v3.487H2.4v.006a.86.86 0 00-.656.43.876.876 0 00-.04.787l-.008.005 1.7 2.968-3.045 1.772.004.006a.87.87 0 000 1.405l-.004.008 3.023 1.758-1.74 3.037.006.004a.877.877 0 00.318 1.08.862.862 0 00.38.136v.008h3.49v3.508h.007a.859.859 0 001.208.701l.004.008 3.074-1.789 1.702 2.971.006-.003a.865.865 0 00.697.357.86.86 0 00.697-.358l.008.004 1.73-3.02 2.98 1.734.003-.006a.858.858 0 001.072-.321.875.875 0 00.135-.383h.009v-3.486h3.44v-.007a.86.86 0 00.77-.818.878.878 0 00-.073-.399l.007-.004-1.7-2.969 3.045-1.772-.004-.006a.869.869 0 00.355-.702zm-14.538 3.722L7.27 14.79l1.409 2.458-.796.463-2.16-3.769.819-.477 3.09 1.36-1.358-2.368.797-.463 2.159 3.769-.768.447zm1.508-.877l-2.159-3.77 2.647-1.539.405.706-1.851 1.077.453.791 1.811-1.053.405.705-1.811 1.054.492.86 1.85-1.077.405.706-2.647 1.54zm6.13-3.566L15.96 9.56l.833 2.966-.847.493-3.23-3.146.891-.519 2.217 2.342-.848-3.138.622-.362 2.267 2.313-.904-3.106.891-.518 1.094 4.389-.846.492z" fill="#999"/></svg>