<svg width="24" height="24" fill="none" xmlns="http://www.w3.org/2000/svg"><g opacity=".5" fill="#999"><path d="M23.252 16.276L15.188 3.251a3.75 3.75 0 00-6.377 0L.748 16.276A3.75 3.75 0 003.937 22h16.126a3.75 3.75 0 003.189-5.724zm-.786 3.313A2.717 2.717 0 0120.063 21H3.937a2.75 2.75 0 01-2.339-4.198L9.662 3.778a2.75 2.75 0 014.676 0l8.064 13.024a2.717 2.717 0 01.064 2.786z"/><path d="M21.551 17.329L13.487 4.304a1.75 1.75 0 00-2.976 0L2.448 17.328A1.75 1.75 0 003.937 20h16.126a1.75 1.75 0 001.488-2.671zM13 17h-2v-2h2v2zm0-3h-2V8h2v6z"/></g></svg>