<svg width="25" height="26" fill="none" xmlns="http://www.w3.org/2000/svg"><path d="M20.211 2.484l.707 4.439 4.07 2.058-2.052 4.025L25 17.03l-4.105 2.059-.707 4.439-4.51-.702L12.464 26l-3.223-3.22-4.476.736-.72-4.473L0 16.996l2.064-4.025-2.052-3.99L4.082 6.9l.707-4.405 4.487.736L12.5 0l3.212 3.185 4.499-.701zM9.601 7.256c-.461 0-.904.182-1.23.505a1.718 1.718 0 000 2.44 1.747 1.747 0 002.46 0 1.718 1.718 0 000-2.44 1.747 1.747 0 00-1.23-.505zm5.798 8.05c-.461 0-.904.181-1.23.505a1.718 1.718 0 000 2.44 1.747 1.747 0 002.46 0 1.718 1.718 0 000-2.44 1.747 1.747 0 00-1.23-.505zm-7.062 3.45l9.96-9.879-1.634-1.62-9.96 9.877 1.634 1.621z" fill="#E31E24"/></svg>