<svg width="24" height="24" fill="none" xmlns="http://www.w3.org/2000/svg"><path fill-rule="evenodd" clip-rule="evenodd" d="M1.5 18h4.575v2.918H1.5V18zm4.74.34l3.042-8.65 1.774.624-3.04 8.652-1.776-.624z" fill="#999"/><path fill-rule="evenodd" clip-rule="evenodd" d="M3.892 4.826l-.729 2.496s-.44 1.16.641 1.52a4196.17 4196.17 0 0010.488 3.127l2.086-3.57L3.892 4.826z" fill="#999"/><path fill-rule="evenodd" clip-rule="evenodd" d="M20.564 7.457c.157-.059 3.373-1.8 3.373-1.8-.243-.245-.386-.43-.742-.533L6.216.152A2.092 2.092 0 003.61 1.557l-.526 1.796s14.562 4.266 15.009 4.329l-1.529 2.697 4.42 1.537 1.484-4.383c0-.001-1.665-.001-1.904-.076zM2.638 18.269l-.534-.794C5.02 15.678 6.02 10.881 5.99 7.32l.987-.01c.032 3.985-1.089 8.957-4.338 10.96z" fill="#999"/><path fill-rule="evenodd" clip-rule="evenodd" d="M3.043 19.494c0 2.468-1.362 4.466-3.043 4.466v-8.928c1.681 0 3.043 1.998 3.043 4.462z" fill="#999"/></svg>