<svg width="16" height="16" viewBox="0 0 16 16" fill="none" xmlns="http://www.w3.org/2000/svg">
<path fill-rule="evenodd" clip-rule="evenodd" d="M15 1H1V15H15V1ZM1 0C0.447715 0 0 0.447715 0 1V15C0 15.5523 0.447715 16 1 16H15C15.5523 16 16 15.5523 16 15V1C16 0.447715 15.5523 0 15 0H1Z" fill="black"/>
<path fill-rule="evenodd" clip-rule="evenodd" d="M12 12V6H8.69616C7.93861 6 7.24609 5.572 6.9073 4.89443L6.46009 4H4V12H12ZM4 3C3.44772 3 3 3.44772 3 4V12C3 12.5523 3.44772 13 4 13H12C12.5523 13 13 12.5523 13 12V6C13 5.44772 12.5523 5 12 5H8.69616C8.31739 5 7.97112 4.786 7.80173 4.44721L7.35452 3.55279C7.18513 3.214 6.83886 3 6.46009 3H4Z" fill="black"/>
</svg>
