<svg width="16" height="16" viewBox="0 0 16 16" fill="none" xmlns="http://www.w3.org/2000/svg">
<path d="M5.86207 3.45042C5.62069 3.45042 5.43103 3.23229 5.43103 2.95467C5.43103 1.32861 6.58621 0 8 0C9.41379 0 10.569 1.32861 10.569 2.95467C10.569 3.23229 10.3793 3.45042 10.1379 3.45042C9.89655 3.45042 9.7069 3.23229 9.7069 2.95467C9.7069 1.86402 8.94828 0.991502 8 0.991502C7.05172 0.991502 6.2931 1.86402 6.2931 2.95467C6.2931 3.23229 6.10345 3.45042 5.86207 3.45042ZM2.60345 13.6402V15.3059C2.60345 15.5836 2.41379 15.8017 2.17241 15.8017C1.93103 15.8017 1.74138 15.5836 1.74138 15.3059V13.6402C1.74138 12.728 2.37931 11.9943 3.17241 11.9943H4C3.98276 11.796 3.96552 10.5779 3.96552 10.3796V9.96317H0.431034C0.189655 9.96317 0 9.74504 0 9.46742C0 9.1898 0.189655 8.97167 0.431034 8.97167H3.96552V6.92068H3.17241C2.37931 6.92068 1.74138 6.18697 1.74138 5.27479V3.60907C1.74138 3.33144 1.93103 3.11331 2.17241 3.11331C2.41379 3.11331 2.60345 3.33144 2.60345 3.60907V5.27479C2.60345 5.63173 2.86207 5.92918 3.17241 5.92918H3.98276C4.08621 4.99717 4.77586 4.26346 5.62069 4.26346H10.3621C11.2069 4.26346 11.8966 4.99717 12 5.92918H12.8276C13.1379 5.92918 13.3966 5.63173 13.3966 5.27479V3.60907C13.3966 3.33144 13.5862 3.11331 13.8276 3.11331C14.069 3.11331 14.2586 3.33144 14.2586 3.60907V5.27479C14.2586 6.18697 13.6207 6.92068 12.8276 6.92068H12.0345V8.97167H15.569C15.8103 8.97167 16 9.1898 16 9.46742C16 9.74504 15.8103 9.96317 15.569 9.96317H12.0345V10.3796C12.0345 10.5977 12.0172 11.796 12 11.9943H12.8276C13.6207 11.9943 14.2586 12.728 14.2586 13.6402V15.3059C14.2586 15.5836 14.069 15.8017 13.8276 15.8017C13.5862 15.8017 13.3966 15.5836 13.3966 15.3059V13.6402C13.3966 13.2833 13.1379 12.9858 12.8276 12.9858H11.7931C11.2069 14.7309 9.74138 16 8 16C6.25862 16 4.7931 14.7309 4.22414 12.966H3.18966C2.86207 12.966 2.60345 13.2635 2.60345 13.6402ZM10.3793 5.23513H8.43103V14.9688C9.98276 14.7309 11.1724 12.204 11.1724 10.3598V6.14731C11.1724 5.65156 10.8103 5.23513 10.3793 5.23513ZM4.82759 10.3598C4.82759 12.204 6.01724 14.7309 7.56897 14.9688V5.23513H5.62069C5.17241 5.23513 4.82759 5.65156 4.82759 6.14731V10.3598Z" fill="black"/>
</svg>
