<svg width="16" height="16" viewBox="0 0 16 16" fill="none" xmlns="http://www.w3.org/2000/svg">
<path d="M15.7672 5.72914L14.1615 4.51845C14.1213 4.47597 14.0745 4.44164 14.0239 4.41449L8.30676 0.103768C8.30391 0.101828 8.30124 0.100858 8.2984 0.0989185C8.28062 0.0861173 8.2623 0.0760316 8.24292 0.0657518C8.22994 0.0581874 8.21696 0.0496532 8.20309 0.0436405C8.18637 0.0362701 8.16948 0.031809 8.15223 0.0261842C8.13569 0.0209473 8.11898 0.0143529 8.10226 0.0108616C8.08591 0.00737036 8.06937 0.00678854 8.05301 0.00504292C8.03523 0.00310334 8.01762 0 7.99984 0C7.98224 0 7.96463 0.00310326 7.94703 0.00484888C7.93031 0.0065945 7.9136 0.00717633 7.89724 0.0106676C7.8807 0.0141588 7.86452 0.0205595 7.84816 0.0257963C7.83073 0.0312272 7.81331 0.0358823 7.79641 0.0434466C7.7829 0.0494593 7.77027 0.0577994 7.75729 0.0651699C7.73827 0.0756436 7.71924 0.0859233 7.7011 0.0989185C7.69861 0.100664 7.69577 0.101828 7.69328 0.103574L1.97636 4.41429C1.92568 4.44145 1.87891 4.47578 1.83855 4.51826L0.23283 5.72894C-0.0122064 5.91379 -0.0737321 6.28017 0.0957305 6.54745C0.200289 6.7127 0.368685 6.80114 0.539926 6.80114C0.645551 6.80114 0.752421 6.7672 0.846132 6.69679L1.67335 6.07322V15.4117C1.67335 15.737 1.91483 16 2.21268 16H6.28779H9.71207H13.7874C14.0854 16 14.3267 15.737 14.3267 15.4117V6.07322L15.1537 6.69679C15.2469 6.7674 15.3541 6.80114 15.4603 6.80114C15.6312 6.80114 15.7994 6.7125 15.9039 6.54745C16.0738 6.28037 16.0124 5.91379 15.7672 5.72914ZM6.82712 14.824V10.7765H9.17292V14.8236H6.82712V14.824ZM13.2482 14.824H10.2521V10.1886C10.2521 9.86355 10.0105 9.60054 9.71243 9.60054H6.28779C5.98994 9.60054 5.74846 9.86355 5.74846 10.1886V14.8236H2.75201V5.25995L8.0002 1.30282L13.2482 5.25995V14.824Z" fill="black"/>
</svg>
