<svg width="16" height="16" viewBox="0 0 16 16" fill="none" xmlns="http://www.w3.org/2000/svg">
<path fill-rule="evenodd" clip-rule="evenodd" d="M15 1H1V15H15V1ZM1 0C0.447715 0 0 0.447715 0 1V15C0 15.5523 0.447715 16 1 16H15C15.5523 16 16 15.5523 16 15V1C16 0.447715 15.5523 0 15 0H1Z" fill="black"/>
<path fill-rule="evenodd" clip-rule="evenodd" d="M11.932 8L5 4.0382L5 11.9618L11.932 8ZM5.42105 3.12704C4.78947 2.76608 4 3.21728 4 3.9392V12.0608C4 12.7827 4.78947 13.2339 5.42105 12.873L12.5263 8.81216C13.1579 8.4512 13.1579 7.5488 12.5263 7.18784L5.42105 3.12704Z" fill="black"/>
</svg>
