<svg width="18" height="18" viewBox="0 0 18 18" fill="none" xmlns="http://www.w3.org/2000/svg">
<path d="M4.75602 13.541C4.64231 13.541 4.52861 13.5175 4.42089 13.4705C4.22141 13.3825 4.0698 13.224 3.992 13.0245L2.46198 9.0685C2.38418 8.86895 2.39216 8.65178 2.47993 8.45613C2.5697 8.26049 2.73128 8.1118 2.93475 8.0355L8.23897 6.06143L10.3495 11.5141L5.04726 13.4881C4.95351 13.5234 4.85576 13.541 4.75602 13.541ZM7.89387 6.82054L3.15019 8.58722C3.09633 8.60678 3.05244 8.64787 3.02851 8.69873C3.00457 8.75156 3.00257 8.8083 3.02252 8.86308L4.55255 12.819C4.5725 12.8719 4.61439 12.9149 4.66625 12.9384C4.72011 12.9619 4.77796 12.9638 4.83382 12.9442L9.57749 11.1776L7.89387 6.82054Z" fill="black"/>
<path fill-rule="evenodd" clip-rule="evenodd" d="M8.2966 5.93328L10.4793 11.5724L5.08243 13.5818C5.08238 13.5818 5.08247 13.5817 5.08243 13.5818C4.9774 13.6212 4.86765 13.641 4.75602 13.641C4.62847 13.641 4.50117 13.6146 4.38093 13.5622C4.15747 13.4636 3.98633 13.2852 3.89883 13.0608L2.36881 9.10483C2.36879 9.10478 2.36882 9.10487 2.36881 9.10483C2.281 8.8795 2.29034 8.63442 2.38869 8.4152C2.48971 8.19504 2.67199 8.02723 2.89964 7.94186L8.2966 5.93328ZM8.18134 6.18958L2.96986 8.12913C2.96982 8.12914 2.96991 8.12911 2.96986 8.12913C2.79077 8.19633 2.64953 8.32655 2.571 8.49745C2.49399 8.66937 2.48746 8.85856 2.55515 9.03218L4.08517 12.9881C4.08519 12.9882 4.08516 12.9881 4.08517 12.9881C4.15326 13.1627 4.2857 13.3015 4.46105 13.379C4.55619 13.4204 4.65623 13.441 4.75602 13.441C4.84382 13.441 4.92965 13.4255 5.0121 13.3945L10.2197 11.4557L8.18134 6.18958ZM7.95154 6.69235L9.70726 11.2359L4.86688 13.0386C4.78754 13.0664 4.70359 13.0637 4.62629 13.03L4.62501 13.0295C4.55056 12.9958 4.48906 12.9336 4.45915 12.8548C4.4591 12.8546 4.45921 12.8549 4.45915 12.8548L2.92854 8.8973C2.89974 8.81822 2.90257 8.73437 2.93742 8.65746L2.93801 8.65615C2.97284 8.58216 3.03646 8.52226 3.11564 8.49337C3.11577 8.49332 3.1155 8.49342 3.11564 8.49337L7.95154 6.69235ZM7.8362 6.94872L3.18509 8.68093C3.15695 8.69115 3.13235 8.71336 3.11929 8.74068C3.10666 8.76895 3.10549 8.79808 3.11619 8.82805L4.64581 12.783C4.65579 12.8094 4.67803 12.8337 4.70687 12.847C4.73683 12.8599 4.76809 12.8611 4.79994 12.8502L9.44773 11.1192L7.8362 6.94872Z" fill="black"/>
<path d="M2.79712 13.3336C2.36624 13.3336 1.9593 13.0753 1.79772 12.6566L1.06961 10.7726C0.860155 10.2326 1.13943 9.62609 1.69 9.42067L3.04847 8.9159L4.53661 12.7584L3.17414 13.2651C3.05047 13.3121 2.9228 13.3336 2.79712 13.3336ZM2.69738 9.67305L1.89946 9.97043C1.65808 10.0604 1.5344 10.3265 1.62617 10.5652L2.35427 12.4493C2.44604 12.686 2.71733 12.8073 2.9607 12.7173L3.75863 12.4199L2.69738 9.67305Z" fill="black"/>
<path fill-rule="evenodd" clip-rule="evenodd" d="M3.1061 8.78781L4.66646 12.8168L3.20964 13.3586C3.20953 13.3586 3.20974 13.3586 3.20964 13.3586C3.0741 13.41 2.93414 13.4336 2.79712 13.4336C2.32726 13.4336 1.88172 13.152 1.70443 12.6927L0.976379 10.8087M2.99084 9.04399L1.72496 9.51436C1.72493 9.51437 1.72498 9.51435 1.72496 9.51436C1.22508 9.70091 0.974153 10.25 1.16284 10.7364L1.891 12.6206C2.03686 12.9986 2.40522 13.2336 2.79712 13.2336C2.91135 13.2336 3.02693 13.214 3.13865 13.1716L4.40675 12.7L2.99084 9.04399ZM2.75505 9.54484L3.88838 12.4783L2.99562 12.811C2.70206 12.9196 2.37293 12.7741 2.26103 12.4854L1.53289 10.6012C1.42058 10.3091 1.57257 9.98559 1.86452 9.87673L2.75505 9.54484ZM1.93438 10.0641C1.93437 10.0641 1.93438 10.0641 1.93438 10.0641C1.74362 10.1353 1.64831 10.344 1.71948 10.5292C1.71949 10.5293 1.71947 10.5292 1.71948 10.5292L2.44751 12.4131C2.44752 12.4131 2.44751 12.4131 2.44751 12.4131C2.51916 12.5978 2.73282 12.6949 2.92596 12.6235C2.92598 12.6235 2.92594 12.6235 2.92596 12.6235L3.62888 12.3616L2.63971 9.80126L1.93438 10.0641Z" fill="black"/>
<path d="M16.5115 12.7603C16.4836 12.7603 16.4557 12.7584 16.4277 12.7525L9.74709 11.6041L7.72634 6.38817L11.9474 1.18203C12.0571 1.04704 12.2326 0.978563 12.4082 1.00595C12.5817 1.03334 12.7293 1.14878 12.7912 1.31116L16.9683 12.1088C17.0302 12.2712 17.0002 12.4532 16.8885 12.5862C16.7968 12.6977 16.6551 12.7603 16.5115 12.7603ZM10.184 11.0837L16.344 12.1421L12.3005 1.69267L8.40856 6.49382L10.184 11.0837Z" fill="black"/>
<path fill-rule="evenodd" clip-rule="evenodd" d="M12.3928 1.10476C12.2524 1.08286 12.1123 1.13771 12.025 1.24511L7.84053 6.40611L9.81987 11.5151L16.4483 12.6546C16.4675 12.6586 16.4882 12.6603 16.5115 12.6603C16.6272 12.6603 16.7397 12.6097 16.8113 12.5227C16.8994 12.4178 16.9239 12.2734 16.8749 12.1446C16.8749 12.1446 16.875 12.1447 16.8749 12.1446L12.6979 1.34724C12.6495 1.21998 12.5327 1.12684 12.3928 1.10476ZM11.8698 1.11896C12.0019 0.956373 12.2129 0.87427 12.4236 0.907149C12.6307 0.939838 12.8093 1.07796 12.8846 1.27535C12.8846 1.27543 12.8845 1.27528 12.8846 1.27535L17.0616 12.0728C17.1361 12.2685 17.1005 12.489 16.9655 12.6501C16.8536 12.7859 16.683 12.8603 16.5115 12.8603C16.4796 12.8603 16.4451 12.8582 16.4091 12.8508L9.67431 11.693L7.61214 6.37023L11.8698 1.11896ZM12.3314 1.49564L16.5009 12.2705L10.1111 11.1726L8.2944 6.47585L12.3314 1.49564ZM8.52273 6.51178L10.2568 10.9947L16.187 12.0137L12.2695 1.8897L8.52273 6.51178Z" fill="black"/>
<path d="M7.49694 17C7.34932 17 7.20769 16.9198 7.13787 16.7828L5.09318 12.8445L8.45844 11.5923L8.8574 12.6214C9.00502 13.0049 8.94717 13.4314 8.70181 13.764L8.49833 14.0399L9.45385 15.8261C9.50771 15.9259 9.51569 16.0452 9.4738 16.1509C9.43191 16.2565 9.34813 16.3407 9.23841 16.3818L7.64056 16.9765C7.59468 16.9922 7.54481 17 7.49694 17ZM5.92901 13.1595L7.59069 16.3641L8.8215 15.9063L7.79416 13.989L8.21707 13.4177C8.34473 13.2475 8.37466 13.0264 8.29686 12.8288L8.11134 12.3495L5.92901 13.1595Z" fill="black"/>
<path fill-rule="evenodd" clip-rule="evenodd" d="M8.51602 11.4642L8.95064 12.5853C9.11059 13.0008 9.04781 13.4634 8.78228 13.8234C8.78228 13.8234 8.78228 13.8234 8.78228 13.8234L8.6163 14.0484L9.54185 15.7786C9.54189 15.7787 9.54181 15.7785 9.54185 15.7786C9.60935 15.9038 9.61973 16.0542 9.56676 16.1878C9.51462 16.3193 9.41006 16.4243 9.27348 16.4754L7.67286 17.0712C7.61608 17.0906 7.55525 17.1 7.49694 17.1C7.31401 17.1 7.13685 17.0007 7.04894 16.8286C7.04889 16.8285 7.049 16.8287 7.04894 16.8286L4.95232 12.7902L8.51602 11.4642ZM5.23404 12.8988L7.22662 16.7368C7.2784 16.8383 7.38475 16.9 7.49694 16.9C7.53394 16.9 7.57239 16.894 7.60705 16.8823L9.20334 16.2881C9.2862 16.2571 9.3492 16.1938 9.38084 16.114C9.41162 16.0364 9.40596 15.9479 9.36586 15.8736L8.38037 14.0313L8.62133 13.7047C8.84649 13.3994 8.89935 13.0089 8.76412 12.6575C8.76411 12.6574 8.76414 12.6575 8.76412 12.6575L8.40086 11.7205L5.23404 12.8988ZM8.169 12.2214L8.38991 12.7922C8.38994 12.7923 8.38987 12.7921 8.38991 12.7922C8.48025 13.022 8.44549 13.2797 8.29726 13.4775C8.2972 13.4775 8.29733 13.4774 8.29726 13.4775L7.91222 13.9976L8.96376 15.9601L7.54264 16.4887L5.78816 13.1051L8.169 12.2214ZM6.06985 13.2139L7.63875 16.2396L8.67923 15.8526L7.67611 13.9804L8.13669 13.3582C8.24357 13.2157 8.26887 13.0307 8.20381 12.8655L8.05368 12.4776L6.06985 13.2139Z" fill="black"/>
<path d="M7.44876 8.60471L7.23643 8.05598L4.30658 9.14649L4.51891 9.69522L7.44876 8.60471Z" fill="black"/>
<path fill-rule="evenodd" clip-rule="evenodd" d="M7.29406 7.92784L7.57856 8.66308L4.46128 9.82336L4.17678 9.08812L7.29406 7.92784ZM7.1788 8.18412L4.43638 9.20487L4.57654 9.56708L7.31895 8.54633L7.1788 8.18412Z" fill="black"/>
</svg>
