<svg width="16" height="16" viewBox="0 0 16 16" fill="none" xmlns="http://www.w3.org/2000/svg">
<path fill-rule="evenodd" clip-rule="evenodd" d="M10.1944 0.912084C9.61245 0.328973 8.82333 0.000921126 8.00018 0C7.17702 0.000920716 6.38755 0.328972 5.80558 0.912081C5.22363 1.49518 4.89634 2.28588 4.89542 3.11037V3.11246H1.81811C1.68999 3.11247 1.56643 3.15984 1.47108 3.24543C1.37575 3.33101 1.31532 3.44883 1.30131 3.57618L0.00310615 15.4225C-0.00486352 15.4952 0.00254451 15.5688 0.0248521 15.6384C0.0471613 15.708 0.0838761 15.7722 0.13262 15.8267C0.181364 15.8812 0.241045 15.9248 0.307783 15.9547C0.374522 15.9846 0.446807 16 0.519922 16H15.4801C15.5532 16 15.6255 15.9846 15.6922 15.9547C15.759 15.9248 15.8186 15.8812 15.8674 15.8267C15.9161 15.7722 15.9528 15.708 15.9752 15.6384C15.9975 15.5688 16.0049 15.4952 15.9969 15.4225L14.6987 3.57612C14.6847 3.44877 14.6243 3.33101 14.5289 3.24544C14.4336 3.15985 14.31 3.11248 14.1819 3.11246H11.1046V3.1102C11.1037 2.28571 10.7764 1.49518 10.1944 0.912084ZM15.6105 15.8189C15.6164 15.8166 15.6223 15.8141 15.6281 15.8115L15.6105 15.8189ZM7.99997 0.156866C8.78149 0.15774 9.53075 0.469194 10.0834 1.0229C10.636 1.5766 10.9468 2.32733 10.9477 3.11038V3.26933H14.1819C14.1819 3.26933 14.1818 3.26933 14.1819 3.26933H10.9477V3.11038C10.9468 2.32733 10.636 1.5766 10.0834 1.0229C9.53075 0.469194 8.78149 0.15774 7.99997 0.156866C7.99997 0.156866 7.99998 0.156866 7.99997 0.156866ZM5.93517 3.11037C5.93517 2.56149 6.15279 2.03515 6.54006 1.64712C6.92731 1.25911 7.45247 1.04118 8 1.04118C8.54753 1.04118 9.07269 1.25911 9.45995 1.64712C9.84721 2.03515 10.0648 2.56149 10.0648 3.11037V3.11246H5.93517V3.11037ZM11.1046 5.35188V4.15364L13.7158 4.15364L14.8999 14.9588H1.10011L2.28417 4.15365H4.89542V5.35188C4.89542 5.48985 4.95012 5.62223 5.04758 5.71988C5.14505 5.81755 5.27732 5.87247 5.4153 5.87247C5.55328 5.87247 5.68554 5.81755 5.78301 5.71988C5.88047 5.62223 5.93517 5.48985 5.93517 5.35188V4.15365H10.0648V5.35188C10.0648 5.48985 10.1195 5.62223 10.217 5.71988C10.3145 5.81755 10.4467 5.87247 10.5847 5.87247C10.7227 5.87247 10.855 5.81755 10.9524 5.71988C11.0499 5.62223 11.1046 5.48985 11.1046 5.35188Z" fill="black"/>
</svg>
