<svg width="16" height="16" viewBox="0 0 16 16" fill="none" xmlns="http://www.w3.org/2000/svg">
<path fill-rule="evenodd" clip-rule="evenodd" d="M15 1H1V15H15V1ZM1 0C0.447715 0 0 0.447715 0 1V15C0 15.5523 0.447715 16 1 16H15C15.5523 16 16 15.5523 16 15V1C16 0.447715 15.5523 0 15 0H1Z" fill="black"/>
<path fill-rule="evenodd" clip-rule="evenodd" d="M12 4H4V6H12V4ZM4 3C3.44772 3 3 3.44772 3 4V6C3 6.55228 3.44772 7 4 7H12C12.5523 7 13 6.55228 13 6V4C13 3.44772 12.5523 3 12 3H4Z" fill="black"/>
<path fill-rule="evenodd" clip-rule="evenodd" d="M3.5 10C3.5 9.72386 3.72386 9.5 4 9.5H12C12.2761 9.5 12.5 9.72386 12.5 10C12.5 10.2761 12.2761 10.5 12 10.5H4C3.72386 10.5 3.5 10.2761 3.5 10Z" fill="black"/>
<path fill-rule="evenodd" clip-rule="evenodd" d="M3.5 12C3.5 11.7239 3.72386 11.5 4 11.5H12C12.2761 11.5 12.5 11.7239 12.5 12C12.5 12.2761 12.2761 12.5 12 12.5H4C3.72386 12.5 3.5 12.2761 3.5 12Z" fill="black"/>
</svg>
