<svg width="18" height="16" viewBox="0 0 18 16" fill="none" xmlns="http://www.w3.org/2000/svg">
<path fill-rule="evenodd" clip-rule="evenodd" d="M2 11V15H6V11H2ZM1.6 10C1.26863 10 1 10.2686 1 10.6V15.4C1 15.7314 1.26863 16 1.6 16H6.4C6.73137 16 7 15.7314 7 15.4V10.6C7 10.2686 6.73137 10 6.4 10H1.6Z" fill="black"/>
<path fill-rule="evenodd" clip-rule="evenodd" d="M12 11V15H16V11H12ZM11.6 10C11.2686 10 11 10.2686 11 10.6V15.4C11 15.7314 11.2686 16 11.6 16H16.4C16.7314 16 17 15.7314 17 15.4V10.6C17 10.2686 16.7314 10 16.4 10H11.6Z" fill="black"/>
<path fill-rule="evenodd" clip-rule="evenodd" d="M7 1V5H11V1H7ZM6.6 0C6.26863 0 6 0.268629 6 0.6V5.4C6 5.73137 6.26863 6 6.6 6H11.4C11.7314 6 12 5.73137 12 5.4V0.6C12 0.268629 11.7314 0 11.4 0H6.6Z" fill="black"/>
<path fill-rule="evenodd" clip-rule="evenodd" d="M0.5 7.5C0.5 7.22386 0.723858 7 1 7H17C17.2761 7 17.5 7.22386 17.5 7.5C17.5 7.77614 17.2761 8 17 8H1C0.723858 8 0.5 7.77614 0.5 7.5Z" fill="black"/>
<path fill-rule="evenodd" clip-rule="evenodd" d="M4.5 7C4.77614 7 5 7.22386 5 7.5V9C5 9.27614 4.77614 9.5 4.5 9.5C4.22386 9.5 4 9.27614 4 9V7.5C4 7.22386 4.22386 7 4.5 7Z" fill="black"/>
<path fill-rule="evenodd" clip-rule="evenodd" d="M13.5 7C13.7761 7 14 7.22386 14 7.5V9C14 9.27614 13.7761 9.5 13.5 9.5C13.2239 9.5 13 9.27614 13 9V7.5C13 7.22386 13.2239 7 13.5 7Z" fill="black"/>
</svg>
