<svg width="16" height="16" viewBox="0 0 16 16" fill="none" xmlns="http://www.w3.org/2000/svg">
<path d="M0.493827 16H15.5062C15.6371 16 15.7628 15.948 15.8554 15.8554C15.948 15.7628 16 15.6371 16 15.5062V0.493827C16 0.362856 15.948 0.237249 15.8554 0.144639C15.7628 0.0520281 15.6371 0 15.5062 0H0.493827C0.362856 0 0.237249 0.0520281 0.144639 0.144639C0.0520281 0.237249 0 0.362856 0 0.493827V15.5062C0 15.6371 0.0520281 15.7628 0.144639 15.8554C0.237249 15.948 0.362856 16 0.493827 16ZM6.54143 0.987654H9.45857V5.02914L8.29215 4.17323C8.20743 4.11107 8.10508 4.07755 8 4.07755C7.89492 4.07755 7.79257 4.11107 7.70785 4.17323L6.54143 5.02914V0.987654ZM0.987654 0.987654H5.55378V6.00415C5.55378 6.09542 5.57908 6.1849 5.62686 6.26266C5.67464 6.34043 5.74304 6.40343 5.82446 6.44467C5.90588 6.48591 5.99714 6.50378 6.0881 6.4963C6.17906 6.48881 6.26617 6.45627 6.33975 6.40227L8 5.1839L9.66025 6.40227C9.73383 6.45627 9.82094 6.48881 9.9119 6.4963C10.0029 6.50378 10.0941 6.48591 10.1755 6.44467C10.257 6.40343 10.3254 6.34043 10.3731 6.26266C10.4209 6.1849 10.4462 6.09542 10.4462 6.00415V0.987654H15.0123V15.0123H0.987654V0.987654Z" fill="black"/>
<path d="M12.2535 9.42439H3.74645C3.61548 9.42439 3.48987 9.47642 3.39726 9.56903C3.30465 9.66164 3.25262 9.78725 3.25262 9.91822V13.0875C3.25262 13.2185 3.30465 13.3441 3.39726 13.4367C3.48987 13.5293 3.61548 13.5813 3.74645 13.5813H12.2535C12.3845 13.5813 12.5101 13.5293 12.6027 13.4367C12.6953 13.3441 12.7473 13.2185 12.7473 13.0875V9.91822C12.7473 9.78725 12.6953 9.66164 12.6027 9.56903C12.5101 9.47642 12.3845 9.42439 12.2535 9.42439ZM11.7597 12.5937H4.24028V10.412H11.7597V12.5937Z" fill="black"/>
</svg>
