<svg width="16" height="17" viewBox="0 0 16 17" fill="none" xmlns="http://www.w3.org/2000/svg">
<path fill-rule="evenodd" clip-rule="evenodd" d="M8 0.5C8.27614 0.5 8.5 0.723858 8.5 1V15C8.5 15.2761 8.27614 15.5 8 15.5C7.72386 15.5 7.5 15.2761 7.5 15V1C7.5 0.723858 7.72386 0.5 8 0.5Z" fill="black"/>
<path fill-rule="evenodd" clip-rule="evenodd" d="M8 0.469055L15.5 3.14763V3.49999V9.99999C15.5 11.0476 14.9767 11.9748 14.2773 12.7492C13.5755 13.5261 12.6553 14.196 11.7595 14.7399C10.8601 15.2859 9.96426 15.7176 9.2953 16.0123C8.96017 16.1599 8.68042 16.2738 8.48361 16.3511C8.38517 16.3898 8.30738 16.4193 8.25369 16.4394L8.1916 16.4624L8.1749 16.4684L8.1689 16.4706C8.16874 16.4707 8.16817 16.4709 8 16C7.89524 16.4889 7.89506 16.4888 7.89486 16.4888L7.89278 16.4884L7.88778 16.4873L7.87032 16.4834C7.85542 16.48 7.83406 16.4752 7.80667 16.4687C7.7519 16.4558 7.67297 16.4366 7.57331 16.4106C7.37409 16.3588 7.09152 16.28 6.75325 16.1713C6.07845 15.9544 5.17347 15.6155 4.26389 15.1282C2.47869 14.1719 0.5 12.5438 0.5 9.99999V3.50008V3.14763L8 0.469055ZM1.5 3.85319V9.99999C1.5 11.9561 3.02131 13.3281 4.73611 14.2467C5.57653 14.697 6.42155 15.0143 7.05925 15.2193C7.37723 15.3215 7.64153 15.3951 7.82513 15.4429C7.8799 15.4571 7.92744 15.469 7.96702 15.4788C8.00864 15.4629 8.05924 15.4434 8.11796 15.4204C8.30396 15.3473 8.57108 15.2385 8.8922 15.0971C9.53574 14.8136 10.3899 14.4016 11.2405 13.8851C12.0947 13.3665 12.9245 12.7551 13.5352 12.0789C14.1483 11.4001 14.5 10.7024 14.5 9.99999V3.85235L8 1.53092L1.5 3.85319ZM8 16L7.89486 16.4888L8.03427 16.5187L8.1689 16.4706L8 16Z" fill="black"/>
</svg>
