<svg width="14" height="15" viewBox="0 0 14 15" fill="none" xmlns="http://www.w3.org/2000/svg">
<path fill-rule="evenodd" clip-rule="evenodd" d="M3 14C4.10457 14 5 13.1046 5 12C5 10.8954 4.10457 10 3 10C1.89543 10 1 10.8954 1 12C1 13.1046 1.89543 14 3 14ZM11 14C12.1046 14 13 13.1046 13 12C13 10.8954 12.1046 10 11 10C9.89543 10 9 10.8954 9 12C9 13.1046 9.89543 14 11 14ZM7 5C8.10457 5 9 4.10457 9 3C9 1.89543 8.10457 1 7 1C5.89543 1 5 1.89543 5 3C5 4.10457 5.89543 5 7 5ZM7 6C8.65685 6 10 4.65685 10 3C10 1.34315 8.65685 0 7 0C5.34315 0 4 1.34315 4 3C4 4.65685 5.34315 6 7 6ZM6 12C6 13.6569 4.65685 15 3 15C1.34315 15 0 13.6569 0 12C0 10.3431 1.34315 9 3 9C4.65685 9 6 10.3431 6 12ZM14 12C14 13.6569 12.6569 15 11 15C9.34315 15 8 13.6569 8 12C8 10.3431 9.34315 9 11 9C12.6569 9 14 10.3431 14 12Z" fill="black"/>
</svg>
