<svg width="18" height="18" viewBox="0 0 18 18" fill="none" xmlns="http://www.w3.org/2000/svg">
<path fill-rule="evenodd" clip-rule="evenodd" d="M0.5 2C0.5 1.17157 1.17157 0.5 2 0.5H16C16.8284 0.5 17.5 1.17157 17.5 2V16C17.5 16.8284 16.8284 17.5 16 17.5H14.0026C14.0006 17.5 13.9987 17.5 13.9967 17.5H4.0033C4.00135 17.5 3.99939 17.5 3.99743 17.5H2C1.17157 17.5 0.5 16.8284 0.5 16V2ZM4.54458 16.5C4.56121 16.352 4.58362 16.1773 4.61366 15.9824C4.71147 15.3475 4.88833 14.5089 5.20297 13.6769C5.84083 11.9901 6.96675 10.5 9 10.5C11.0333 10.5 12.1592 11.9901 12.797 13.6769C13.1117 14.5089 13.2885 15.3475 13.3863 15.9824C13.4164 16.1773 13.4388 16.352 13.4554 16.5H4.54458ZM14.4612 16.5H16C16.2761 16.5 16.5 16.2761 16.5 16V2C16.5 1.72386 16.2761 1.5 16 1.5H2C1.72386 1.5 1.5 1.72386 1.5 2V16C1.5 16.2761 1.72386 16.5 2 16.5H3.53879C3.55762 16.3178 3.58522 16.0904 3.62532 15.8301C3.7297 15.1525 3.92049 14.2411 4.26762 13.3231C4.76324 12.0125 5.61855 10.5991 7.06397 9.91624C6.12126 9.28914 5.5 8.21712 5.5 7C5.5 5.067 7.067 3.5 9 3.5C10.933 3.5 12.5 5.067 12.5 7C12.5 8.21712 11.8787 9.28914 10.936 9.91624C12.3814 10.5991 13.2368 12.0125 13.7324 13.3231C14.0795 14.2411 14.2703 15.1525 14.3747 15.8301C14.4148 16.0904 14.4424 16.3178 14.4612 16.5ZM9 4.5C7.61929 4.5 6.5 5.61929 6.5 7C6.5 8.38071 7.61929 9.5 9 9.5C10.3807 9.5 11.5 8.38071 11.5 7C11.5 5.61929 10.3807 4.5 9 4.5Z" fill="black"/>
</svg>
