<svg width="22" height="22" fill="none" xmlns="http://www.w3.org/2000/svg"><path d="M6.04 20.012c-1.01-1.148-2.02-2.34-2.662-3.764a8.533 8.533 0 01-.505-4.911 10.593 10.593 0 012.111-4.544c-.092 1.148.322 2.34 1.102 3.213-.46-2.203.275-4.59 1.744-6.334C9.299 1.928 11.318.78 13.43 0c-1.056 1.102-1.194 2.846-.78 4.315.412 1.468 1.284 2.753 2.065 4.084.78 1.332 1.515 2.709 1.56 4.223.414-.78.873-1.56 1.148-2.432.275-.873.413-1.79.184-2.663.826 1.01 1.285 2.02 1.514 3.305.23 1.285.184 2.616.046 3.901-.184 1.423-.55 2.892-1.331 4.085-.918 1.423-2.387 2.433-3.993 2.984-2.846.505-5.646.092-7.803-1.79z" fill="#E31E24"/><path d="M9.528 21.71c3.764 1.469 7.482-2.983 5.416-6.426 0-.046-.046-.046-.046-.092.184 1.882-.275 3.26-1.147 4.04.459-1.102.138-2.387-.413-3.489-.55-1.055-1.331-2.02-1.928-3.03-.597-1.055-1.056-2.248-.78-3.442-1.102.827-1.882 2.066-2.203 3.397-.322 1.331-.138 2.8.459 4.04-.689-.506-1.194-1.332-1.24-2.204-.734.872-1.193 2.02-1.147 3.167 0 1.79 1.423 3.396 3.03 4.039z" fill="#fff"/></svg>