<svg width="16" height="16" viewBox="0 0 16 16" fill="none" xmlns="http://www.w3.org/2000/svg">
<path d="M3.42258 14.401C3.61266 14.5916 3.83858 14.7426 4.08732 14.8454C4.33607 14.9482 4.6027 15.0007 4.87185 15H4.87879L11.2529 14.9792C11.796 14.9764 12.3159 14.759 12.6993 14.3744C13.0827 13.9897 13.2985 13.469 13.2994 12.9259V4.09356H13.7576C13.8532 4.09356 13.945 4.05557 14.0126 3.98794C14.0802 3.92031 14.1182 3.82858 14.1182 3.73294V2.01753C14.1182 1.92188 14.0802 1.83015 14.0126 1.76252C13.945 1.69489 13.8532 1.6569 13.7576 1.6569H10.5102V0.360627C10.5102 0.264982 10.4723 0.173256 10.4046 0.105625C10.337 0.0379945 10.2453 0 10.1496 0H5.96906C5.87341 0 5.78169 0.0379945 5.71405 0.105625C5.64642 0.173256 5.60843 0.264982 5.60843 0.360627V1.6569H2.36063C2.26498 1.6569 2.17326 1.69489 2.10563 1.76252C2.03799 1.83015 2 1.92188 2 2.01753V3.73294C2 3.82858 2.03799 3.92031 2.10563 3.98794C2.17326 4.05557 2.26498 4.09356 2.36063 4.09356H2.8188V12.9469C2.81805 13.2172 2.87104 13.485 2.97469 13.7346C3.07835 13.9842 3.23059 14.2107 3.42258 14.401ZM12.5784 12.9259C12.5778 13.2783 12.4379 13.616 12.1892 13.8656C11.9404 14.1151 11.6031 14.2562 11.2508 14.2579L4.87672 14.2787H4.87221C4.69731 14.2787 4.52411 14.2443 4.36253 14.1773C4.20094 14.1104 4.05412 14.0123 3.93045 13.8886C3.80678 13.7649 3.70869 13.6181 3.64177 13.4565C3.57484 13.2949 3.5404 13.1217 3.54042 12.9468V4.09338H12.5784V12.9259ZM6.32968 0.721253H9.78899V1.6569H6.32968V0.721253ZM2.72125 2.37815H13.3972V3.37231H2.72125V2.37815Z" fill="#FF2567"/>
<path d="M8.05925 11.8935C8.15489 11.8935 8.24662 11.8555 8.31425 11.7879C8.38188 11.7202 8.41988 11.6285 8.41988 11.5329V6.0701C8.41988 5.97446 8.38188 5.88273 8.31425 5.8151C8.24662 5.74747 8.15489 5.70947 8.05925 5.70947C7.96361 5.70947 7.87188 5.74747 7.80425 5.8151C7.73662 5.88273 7.69862 5.97446 7.69862 6.0701V11.5329C7.69862 11.6285 7.73662 11.7202 7.80425 11.7879C7.87188 11.8555 7.96361 11.8935 8.05925 11.8935Z" fill="#FF2567"/>
<path d="M5.8798 11.8935C5.97545 11.8935 6.06717 11.8555 6.1348 11.7879C6.20244 11.7202 6.24043 11.6285 6.24043 11.5329V6.0701C6.24043 5.97446 6.20244 5.88273 6.1348 5.8151C6.06717 5.74747 5.97545 5.70947 5.8798 5.70947C5.78416 5.70947 5.69243 5.74747 5.6248 5.8151C5.55717 5.88273 5.51918 5.97446 5.51918 6.0701V11.5329C5.51918 11.6285 5.55717 11.7202 5.6248 11.7879C5.69243 11.8555 5.78416 11.8935 5.8798 11.8935Z" fill="#FF2567"/>
<path d="M10.2387 11.8935C10.3343 11.8935 10.4261 11.8555 10.4937 11.7879C10.5613 11.7202 10.5993 11.6285 10.5993 11.5329V6.0701C10.5993 5.97446 10.5613 5.88273 10.4937 5.8151C10.4261 5.74747 10.3343 5.70947 10.2387 5.70947C10.143 5.70947 10.0513 5.74747 9.98369 5.8151C9.91606 5.88273 9.87807 5.97446 9.87807 6.0701V11.5329C9.87807 11.6285 9.91606 11.7202 9.98369 11.7879C10.0513 11.8555 10.143 11.8935 10.2387 11.8935Z" fill="#FF2567"/>
</svg>
