<svg width="16" height="16" viewBox="0 0 16 16" fill="none" xmlns="http://www.w3.org/2000/svg">
<path d="M14.5 14.5524H5.49981C5.3672 14.5524 5.24002 14.4997 5.14625 14.4059C5.05248 14.3122 4.9998 14.185 4.9998 14.0524C4.9998 13.9198 5.05248 13.7926 5.14625 13.6988C5.24002 13.605 5.3672 13.5524 5.49981 13.5524H14.5C14.6326 13.5524 14.7598 13.605 14.8536 13.6988C14.9473 13.7926 15 13.9198 15 14.0524C15 14.185 14.9473 14.3122 14.8536 14.4059C14.7598 14.4997 14.6326 14.5524 14.5 14.5524Z" fill="#B23CFD"/>
<path d="M0.499691 14.5524C0.424422 14.5523 0.350134 14.5353 0.282369 14.5025C0.214604 14.4697 0.155111 14.4221 0.108325 14.3631C0.0615394 14.3042 0.0286693 14.2354 0.0121663 14.162C-0.0043368 14.0885 -0.00404701 14.0123 0.0130141 13.939L0.739697 10.8523C0.760876 10.7614 0.807063 10.6783 0.873033 10.6123L10.0666 1.42541C10.3519 1.15239 10.7316 1 11.1266 1C11.5215 1 11.9012 1.15239 12.1866 1.42541L13.1266 2.36543C13.4075 2.64669 13.5653 3.02795 13.5653 3.42545C13.5653 3.82296 13.4075 4.20422 13.1266 4.48548L3.93977 13.679C3.87377 13.745 3.79064 13.7912 3.69976 13.8123L0.613027 14.5524H0.499691ZM1.66638 11.219L1.15971 13.379L3.31975 12.8723L12.4199 3.7788C12.5136 3.68504 12.5662 3.55796 12.5662 3.42545C12.5662 3.29295 12.5136 3.16587 12.4199 3.07211L11.4799 2.13209C11.3845 2.04159 11.2581 1.99114 11.1266 1.99114C10.9951 1.99114 10.8686 2.04159 10.7732 2.13209L1.66638 11.219Z" fill="#B23CFD"/>
<path d="M10.7599 6.65204C10.6273 6.65193 10.5003 6.59917 10.4066 6.50537L8.04652 4.14532C7.9582 4.05054 7.91012 3.92517 7.9124 3.79563C7.91469 3.6661 7.96716 3.5425 8.05877 3.45089C8.15038 3.35928 8.27398 3.30681 8.40351 3.30452C8.53305 3.30224 8.65842 3.35032 8.7532 3.43864L11.1133 5.79869C11.1831 5.86862 11.2306 5.95767 11.2499 6.05461C11.2692 6.15154 11.2593 6.25201 11.2214 6.34332C11.1836 6.43463 11.1196 6.51269 11.0375 6.56764C10.9553 6.62258 10.8587 6.65196 10.7599 6.65204Z" fill="#B23CFD"/>
</svg>
