<svg width="16" height="16" viewBox="0 0 16 16" fill="none" xmlns="http://www.w3.org/2000/svg">
<path fill-rule="evenodd" clip-rule="evenodd" d="M7.99959 4C5.11095 4 2.88112 6.04496 1.79897 7.24207C1.34101 7.74865 1.07857 8.12406 1.07857 8.12406C0.973809 8.27409 0.973809 8.47471 1.07857 8.62474C1.07857 8.62474 1.2851 8.92063 1.64686 9.33576C2.66256 10.5013 4.96822 12.7488 7.99959 12.7488C11.1112 12.7488 13.4612 10.383 14.4335 9.24523C14.7457 8.87977 14.9214 8.62474 14.9214 8.62474C15.0262 8.47471 15.0262 8.27409 14.9214 8.12406C14.9214 8.12406 14.7287 7.84635 14.3882 7.45229C13.3901 6.29755 11.0647 4 7.99959 4ZM7.99959 4.87505C10.6151 4.87505 12.7987 6.95115 13.7259 8.02405C13.9115 8.23879 13.929 8.27305 14.007 8.37608C13.9343 8.4717 13.9259 8.49196 13.7677 8.67695C12.8655 9.73283 10.6549 11.8738 7.99959 11.8738C5.41275 11.8738 3.25006 9.84419 2.30566 8.76065C2.10285 8.52796 2.08108 8.48478 1.99889 8.37608C2.09405 8.24909 2.15425 8.1544 2.44759 7.83003C3.45554 6.71488 5.53453 4.87505 7.99959 4.87505ZM7.99959 5.75011C6.55487 5.75011 5.37698 6.928 5.37698 8.37273C5.37698 9.81733 6.55487 10.9987 7.99959 10.9987C9.4442 10.9987 10.6256 9.81733 10.6256 8.37273C10.6256 6.928 9.4442 5.75011 7.99959 5.75011ZM7.99959 6.62597C8.97143 6.62597 9.75051 7.40078 9.75051 8.37273C9.75051 9.34456 8.97143 10.1236 7.99959 10.1236C7.02765 10.1236 6.25284 9.34456 6.25284 8.37273C6.25284 7.40078 7.02765 6.62597 7.99959 6.62597Z" fill="#B23CFD"/>
</svg>
