<svg width="18" height="18" fill="none" xmlns="http://www.w3.org/2000/svg"><path d="M17.946 16.706l-5.843-5.843A6.69 6.69 0 0013.5 6.75a6.71 6.71 0 00-1.978-4.772A6.7 6.7 0 006.75 0a6.71 6.71 0 00-4.772 1.978A6.696 6.696 0 000 6.75a6.71 6.71 0 001.978 4.772A6.696 6.696 0 006.75 13.5a6.69 6.69 0 004.11-1.395l5.844 5.84a.183.183 0 00.201.04.183.183 0 00.06-.04l.98-.978a.183.183 0 00.04-.201.183.183 0 00-.04-.06zm-7.632-6.392A5.013 5.013 0 016.75 11.79a5.013 5.013 0 01-3.564-1.476A5.013 5.013 0 011.71 6.75c0-1.346.524-2.612 1.476-3.564A5.013 5.013 0 016.75 1.71a5 5 0 013.564 1.476A5.013 5.013 0 0111.79 6.75a5.01 5.01 0 01-1.476 3.564z" fill="#fff"/></svg>