<svg width="52" height="52" fill="none" xmlns="http://www.w3.org/2000/svg"><path d="M40.625 36.563H32.28a13.037 13.037 0 006.302-8.165c2.053-.203 3.668-1.919 3.668-4.023a4.07 4.07 0 00-3.25-3.98v-1.707h3.25c.45 0 .813-.364.813-.813v-3.25a.812.812 0 00-.813-.813h-.854c-.424-7.237-6.43-13-13.771-13h-3.25c-7.342 0-13.347 5.763-13.771 13H9.75a.812.812 0 00-.813.813v3.25c0 .45.364.813.813.813H13v1.707a4.07 4.07 0 00-3.25 3.98c0 2.104 1.615 3.82 3.668 4.023a13.04 13.04 0 006.302 8.165h-8.345a5.695 5.695 0 00-5.688 5.687v8.125c0 .45.364.813.813.813h39c.45 0 .813-.364.813-.813V42.25a5.695 5.695 0 00-5.688-5.688zm0 13h-29.25v-3.25h29.25v3.25zM20.378 38.187c.396 2.752 2.763 4.876 5.622 4.876 2.86 0 5.226-2.124 5.622-4.876h2.503v6.5h-16.25v-6.5h2.503zm9.602 0a4.07 4.07 0 01-3.98 3.25 4.07 4.07 0 01-3.98-3.25h7.96zm-13.73 6.5h-1.625v-6.5h1.625v6.5zm19.5 0v-6.5h1.625v6.5H35.75zm4.875-20.312a2.433 2.433 0 01-1.72 2.317c.058-.495.095-.995.095-1.505v-3.1a2.434 2.434 0 011.625 2.288zM37.413 7.394l-3.185 2.123-.682-.683 2.188-3.282c.62.555 1.183 1.171 1.68 1.842zm-9.788-4.957c.212 0 .418.022.628.032L26.96 8.938h-1.92l-1.293-6.469c.209-.01.415-.031.627-.031h3.25zm-10.843 2.67l2.484 3.727-.682.683-3.727-2.484a12.33 12.33 0 011.925-1.926zM13.934 8.37l4.303 2.869a.81.81 0 001.025-.102l1.625-1.625a.812.812 0 00.101-1.025L18.12 4.184a12.08 12.08 0 014.008-1.53l1.45 7.256a.812.812 0 00.797.652h3.25a.81.81 0 00.796-.653l1.451-7.255c1.672.313 3.227.962 4.584 1.884l-2.632 3.949a.812.812 0 00.102 1.025l1.625 1.625a.812.812 0 001.025.101L38.3 8.756a12.098 12.098 0 011.472 5.056H12.229c.132-1.981.736-3.83 1.705-5.442zm-3.371 7.068h30.874v1.624H10.564v-1.625zm.812 8.937c0-1.058.682-1.952 1.625-2.288v3.1c0 .51.037 1.01.094 1.505a2.433 2.433 0 01-1.719-2.317zm3.25.813v-6.5h22.75v6.5c0 6.272-5.102 11.375-11.375 11.375S14.625 31.46 14.625 25.187zM7.312 42.25a4.067 4.067 0 014.063-4.063H13v6.5h-2.438a.812.812 0 00-.812.813v4.063H7.312V42.25zm37.376 7.313H42.25V45.5a.812.812 0 00-.813-.813H39v-6.5h1.625a4.067 4.067 0 014.063 4.063v7.313z" fill="#E31E24"/></svg>