<svg width="52" height="52" fill="none" xmlns="http://www.w3.org/2000/svg"><g clip-path="url(#clip0)" fill="#E31E24"><path d="M37.448 17.212a4.397 4.397 0 00-3.229-1.024 4.396 4.396 0 00-3.007 1.56l-6.614 7.854-3.192-3.32a4.43 4.43 0 00-6.259-.123 4.396 4.396 0 00-1.357 3.104 4.397 4.397 0 001.235 3.154l6.6 6.865a4.448 4.448 0 003.337 1.356 4.432 4.432 0 003.24-1.573l9.781-11.616a4.396 4.396 0 001.025-3.229 4.398 4.398 0 00-1.56-3.008zM36.43 22.14l-9.782 11.617a2.397 2.397 0 01-3.557.117l-6.601-6.865a2.38 2.38 0 01-.668-1.707c.012-.64.273-1.236.734-1.679a2.387 2.387 0 011.66-.667c.629 0 1.257.245 1.727.734l3.974 4.133a1.018 1.018 0 001.509-.05l7.34-8.718c.413-.49.99-.789 1.628-.843a2.379 2.379 0 011.747.554c.49.412.789.99.844 1.627a2.38 2.38 0 01-.555 1.747z"/><path d="M26 5.9C14.917 5.9 5.9 14.917 5.9 26c0 11.083 9.017 20.1 20.1 20.1 11.083 0 20.1-9.017 20.1-20.1 0-11.084-9.017-20.1-20.1-20.1zm0 38.168c-9.963 0-18.068-8.105-18.068-18.068 0-9.963 8.105-18.07 18.068-18.07 9.963 0 18.068 8.106 18.068 18.069 0 9.962-8.105 18.068-18.068 18.068z"/><path d="M50.612 29.491C51.262 28.481 52 27.334 52 26s-.737-2.48-1.388-3.492c-.435-.677-.846-1.316-.978-1.895-.141-.619-.047-1.396.053-2.219.149-1.23.303-2.503-.258-3.663-.57-1.18-1.723-1.887-2.74-2.511-.698-.428-1.357-.832-1.74-1.31-.387-.485-.637-1.22-.902-1.997-.383-1.125-.817-2.4-1.836-3.213-1.013-.808-2.35-.948-3.531-1.072-.822-.086-1.598-.167-2.163-.439-.545-.263-1.082-.81-1.65-1.39-.84-.855-1.791-1.824-3.082-2.117-1.243-.282-2.442.148-3.603.565-.789.283-1.534.55-2.182.55-.648 0-1.393-.267-2.182-.55C22.658.83 21.458.4 20.215.682c-1.29.293-2.242 1.262-3.081 2.118-.569.579-1.106 1.126-1.651 1.389-.565.272-1.341.353-2.163.44-1.18.123-2.518.263-3.531 1.071-1.02.812-1.453 2.088-1.836 3.213-.265.777-.515 1.512-.902 1.996-.383.48-1.042.883-1.74 1.31-1.017.625-2.17 1.332-2.74 2.512-.56 1.16-.407 2.432-.258 3.663.1.823.194 1.6.053 2.219-.132.58-.543 1.218-.978 1.895C.738 23.52 0 24.666 0 26s.737 2.48 1.388 3.491c.435.677.846 1.317.978 1.896.141.618.047 1.395-.053 2.218-.149 1.231-.303 2.504.258 3.664.57 1.18 1.723 1.887 2.74 2.511.698.428 1.357.831 1.74 1.31.387.485.637 1.219.902 1.996.383 1.126.817 2.401 1.836 3.213 1.013.808 2.35.949 3.531 1.072.822.086 1.598.168 2.162.44.546.263 1.083.81 1.652 1.389.839.855 1.79 1.825 3.081 2.118 1.243.282 2.442-.149 3.603-.565.789-.283 1.534-.55 2.182-.55.648 0 1.393.267 2.182.55.902.323 1.827.655 2.777.655.273 0 .549-.027.826-.09 1.29-.293 2.242-1.263 3.082-2.118.568-.58 1.105-1.127 1.65-1.39.565-.272 1.341-.353 2.163-.439 1.18-.123 2.518-.264 3.531-1.072 1.02-.812 1.453-2.087 1.836-3.212.265-.778.515-1.512.902-1.996.383-.48 1.042-.883 1.74-1.311 1.017-.624 2.17-1.331 2.74-2.511.56-1.16.407-2.433.258-3.664-.1-.822-.194-1.6-.053-2.218.132-.58.543-1.219.978-1.896zm-1.708-1.099c-.511.795-1.04 1.617-1.25 2.544-.22.963-.1 1.955.016 2.914.12.983.232 1.912-.07 2.535-.31.644-1.118 1.14-1.974 1.664-.815.5-1.658 1.017-2.263 1.773-.61.762-.93 1.702-1.239 2.61-.321.945-.625 1.838-1.179 2.28-.549.437-1.485.535-2.477.64-.958.1-1.949.203-2.832.629-.866.417-1.554 1.118-2.22 1.796-.705.72-1.372 1.4-2.08 1.56-.666.151-1.54-.163-2.467-.496-.918-.33-1.868-.67-2.869-.67-1.001 0-1.95.34-2.869.67-.926.333-1.801.647-2.466.496-.709-.16-1.376-.84-2.082-1.56-.665-.678-1.353-1.38-2.219-1.796-.883-.426-1.874-.53-2.832-.63-.992-.104-1.928-.202-2.477-.64-.554-.441-.858-1.334-1.18-2.279-.309-.908-.629-1.848-1.238-2.61-.605-.756-1.448-1.273-2.264-1.773-.855-.525-1.663-1.02-1.974-1.664-.3-.623-.188-1.552-.07-2.535.117-.96.237-1.951.018-2.914-.211-.927-.74-1.749-1.251-2.544-.548-.85-1.065-1.655-1.065-2.392 0-.738.517-1.542 1.065-2.393.511-.794 1.04-1.616 1.25-2.543.22-.963.1-1.955-.016-2.914-.12-.983-.232-1.912.07-2.535.31-.644 1.118-1.14 1.973-1.664.816-.5 1.66-1.017 2.264-1.774.61-.761.93-1.701 1.239-2.61.321-.945.625-1.837 1.179-2.279.549-.438 1.485-.536 2.477-.64.958-.1 1.949-.204 2.832-.63.866-.416 1.554-1.117 2.22-1.796.705-.72 1.372-1.399 2.08-1.56.666-.15 1.54.164 2.467.497.918.329 1.868.67 2.869.67 1.001 0 1.95-.34 2.869-.67.926-.333 1.801-.648 2.466-.496.709.16 1.376.84 2.082 1.56.665.678 1.353 1.379 2.219 1.796.883.425 1.874.53 2.832.63.992.103 1.928.201 2.477.64.554.441.858 1.334 1.18 2.279.309.908.629 1.848 1.238 2.61.605.756 1.448 1.273 2.264 1.773.855.524 1.662 1.02 1.974 1.663.3.624.188 1.553.07 2.536-.117.959-.237 1.95-.018 2.913.211.928.74 1.75 1.251 2.544.548.852 1.065 1.655 1.065 2.393 0 .737-.517 1.541-1.065 2.392z"/></g><defs><clipPath id="clip0"><path fill="#fff" d="M0 0h52v52H0z"/></clipPath></defs></svg>