<svg width="62" height="62" fill="none" xmlns="http://www.w3.org/2000/svg"><path d="M14.467 40.817c-3.42 0-6.2 2.78-6.2 6.2 0 3.42 2.78 6.2 6.2 6.2 3.419 0 6.2-2.78 6.2-6.2 0-3.42-2.781-6.2-6.2-6.2zm0 10.333a4.137 4.137 0 01-4.134-4.133 4.137 4.137 0 014.134-4.133 4.137 4.137 0 014.133 4.133 4.137 4.137 0 01-4.133 4.133zM49.6 40.817c-3.42 0-6.2 2.78-6.2 6.2 0 3.42 2.78 6.2 6.2 6.2 3.42 0 6.2-2.78 6.2-6.2 0-3.42-2.78-6.2-6.2-6.2zm0 10.333a4.137 4.137 0 01-4.133-4.133 4.137 4.137 0 014.133-4.133 4.137 4.137 0 014.133 4.133A4.137 4.137 0 0149.6 51.15z" fill="#E31E24"/><path d="M61.836 35.09l-9.3-14.466a1.034 1.034 0 00-.87-.474H40.3c-.572 0-1.033.463-1.033 1.033v25.834c0 .57.461 1.033 1.033 1.033h4.133v-2.067h-3.1V22.217h9.77l8.83 13.737v10.03h-5.166v2.066h6.2c.57 0 1.033-.462 1.033-1.033V35.65c0-.197-.057-.393-.164-.56z" fill="#E31E24"/><path d="M45.467 33.583V26.35h8.266v-2.067h-9.3c-.571 0-1.033.463-1.033 1.034v9.3c0 .57.462 1.033 1.033 1.033h15.5v-2.067H45.467zM40.3 12.916H1.033C.463 12.916 0 13.38 0 13.95v33.066c0 .572.463 1.034 1.033 1.034H9.3v-2.067H2.067v-31h37.2v31H19.633v2.067H40.3c.571 0 1.033-.462 1.033-1.033V13.95c0-.57-.462-1.034-1.033-1.034z" fill="#E31E24"/><path d="M7.233 41.85h-6.2v2.067h6.2V41.85zm32.034 0H21.7v2.067h17.567V41.85zm21.7 0h-4.134v2.067h4.134V41.85zM40.3 17.05H4.133v2.067H40.3V17.05zM15.5 45.983h-2.067v2.067H15.5v-2.067zm35.133 0h-2.066v2.067h2.066v-2.067zM18.6 8.783H4.133v2.067H18.6V8.783zm-16.533 0H0v2.067h2.067V8.783z" fill="#E31E24"/></svg>