<svg width="52" height="52" fill="none" xmlns="http://www.w3.org/2000/svg"><g clip-path="url(#clip0)" fill="#E31E24"><path d="M.853 25.988h.03c.468 0 .851-.37.867-.837.469-13.393 11.707-23.87 25.1-23.402a24.266 24.266 0 0114.163 5.185H36.4a.867.867 0 000 1.734h6.946a.875.875 0 00.199-.04.931.931 0 00.13-.029c.025-.01.043-.032.067-.045a.829.829 0 00.211-.148l.009-.006a.835.835 0 00.06-.095.835.835 0 00.113-.18.823.823 0 00.043-.215.723.723 0 00.022-.109V.868a.867.867 0 00-1.733 0v5.02C31.363-3.21 14.986-1.585 5.887 9.52a25.993 25.993 0 00-5.87 15.573.867.867 0 00.836.895zm7.017 16.14a.868.868 0 10-1.3 1.152c.596.67 1.226 1.308 1.888 1.913a.867.867 0 001.169-1.279 24.44 24.44 0 01-1.758-1.786zm10.342 6.862a24.164 24.164 0 01-2.33-.926.867.867 0 10-.725 1.574c.815.375 1.65.707 2.5.995a.867.867 0 00.555-1.643zm-4.552-2.091c-.72-.428-1.42-.89-2.093-1.388a.867.867 0 10-1.03 1.393 26.28 26.28 0 002.238 1.487.867.867 0 10.884-1.492zM6.3 40.172a24.588 24.588 0 01-1.359-2.108.868.868 0 10-1.504.866c.447.776.933 1.528 1.456 2.254A.867.867 0 006.3 40.172zm-2.417-3.988c0-.12-.026-.24-.075-.35l-.001-.007a24.21 24.21 0 01-.897-2.34.867.867 0 10-1.647.535c.277.854.597 1.693.96 2.513a.867.867 0 001.66-.35zM1.594 32.09c.468-.1.767-.56.668-1.027a24.559 24.559 0 01-.392-2.478.867.867 0 10-1.724.183c.095.891.235 1.777.421 2.653.1.469.56.768 1.027.669zm49.02-.885a.867.867 0 00-1.05.633 24.27 24.27 0 01-.727 2.4.867.867 0 101.63.589c.305-.844.565-1.703.78-2.573a.867.867 0 00-.633-1.049zM23.098 50.094c-.83-.1-1.656-.241-2.472-.425a.867.867 0 00-.382 1.69c.875.198 1.76.35 2.65.456a.867.867 0 00.205-1.721zm25.918-13.946a.867.867 0 00-1.157.403 24.166 24.166 0 01-1.208 2.2.867.867 0 001.473.912 26.02 26.02 0 001.294-2.357.867.867 0 00-.402-1.158zm-2.56 4.508a.867.867 0 00-1.233.158v-.001a24.32 24.32 0 01-1.634 1.906.867.867 0 001.257 1.195 26.5 26.5 0 001.749-2.04.867.867 0 00-.14-1.218zm4.692-14.615a.854.854 0 00-.896.81l-.001.026c-.03.836-.102 1.67-.218 2.499a.867.867 0 001.717.238c.124-.887.201-1.78.233-2.677a.866.866 0 00-.835-.896zm-9.375 18.402v.003a24.538 24.538 0 01-1.993 1.532.869.869 0 10.988 1.429A26.567 26.567 0 0042.9 45.76a.867.867 0 00-1.127-1.317zm-8.743 4.791c-.801.241-1.614.44-2.436.598a.867.867 0 00.326 1.703 25.64 25.64 0 002.61-.642.867.867 0 00-.5-1.66zm-4.876.938a.754.754 0 00-.047.004l.004.004c-.694.059-1.403.087-2.11.087h-.396a.897.897 0 00-.884.85.867.867 0 00.851.883H26c.758 0 1.517-.034 2.254-.097a.867.867 0 10-.1-1.73zm9.493-2.879h.001c-.734.402-1.488.766-2.259 1.09a.867.867 0 10.671 1.599 26.087 26.087 0 002.42-1.169.867.867 0 00-.833-1.52z"/><path d="M26 7.8C15.95 7.8 7.8 15.95 7.8 26c0 10.052 8.149 18.2 18.2 18.2 10.052 0 18.2-8.148 18.2-18.2C44.189 15.954 36.047 7.812 26 7.8zm13.867 19.067h2.556c-.45 8.397-7.159 15.105-15.556 15.555v-2.555a.867.867 0 00-1.733 0v2.556c-8.398-.45-15.106-7.159-15.556-15.556h2.556a.867.867 0 100-1.733H9.578c.45-8.398 7.158-15.106 15.556-15.556v2.556a.867.867 0 001.733 0V9.578c8.397.45 15.105 7.158 15.555 15.556h-2.555a.867.867 0 000 1.733z"/><path d="M26.867 23.56V15.6a.867.867 0 00-1.733 0v7.96a2.6 2.6 0 00-1.574 1.574h-4.493a.867.867 0 000 1.733h4.493a2.594 2.594 0 103.307-3.307zM26 26.867a.867.867 0 110-1.733.867.867 0 010 1.733z"/></g><defs><clipPath id="clip0"><path fill="#fff" d="M0 0h52v52H0z"/></clipPath></defs></svg>