<svg width="28" height="28" fill="none" xmlns="http://www.w3.org/2000/svg"><path d="M14 7.531A6.468 6.468 0 1020.469 14 6.476 6.476 0 0014 7.531zm0 11.25a4.782 4.782 0 110-9.563 4.782 4.782 0 010 9.563zM20.188.22H7.813A7.602 7.602 0 00.218 7.812v12.375a7.602 7.602 0 007.593 7.594h12.375a7.602 7.602 0 007.594-7.593V7.813A7.602 7.602 0 0020.188.218zm5.906 19.968a5.913 5.913 0 01-5.907 5.907H7.813a5.913 5.913 0 01-5.906-5.907V7.813a5.913 5.913 0 015.907-5.906h12.375a5.913 5.913 0 015.906 5.907v12.375zm-3.375-13.5a1.406 1.406 0 11-2.813 0 1.406 1.406 0 012.813 0z" fill="#fff"/></svg>