<svg width="33" height="19" fill="none" xmlns="http://www.w3.org/2000/svg"><path d="M31.953 2.237c.243.666-.551 2.198-2.383 4.593-.254.334-.598.776-1.032 1.328-.424.532-.715.907-.873 1.125-.16.22-.32.477-.485.774-.164.297-.227.515-.19.656.037.14.106.32.206.54.1.218.273.442.516.671.244.23.546.505.905.828.043.021.07.042.08.063 1.493 1.364 2.504 2.515 3.033 3.453.032.052.066.117.103.195.037.078.075.216.112.414.037.198.034.375-.008.532-.043.156-.175.299-.397.43-.223.13-.535.195-.937.195l-4.066.062c-.254.052-.55.026-.89-.078a3.903 3.903 0 01-.825-.344l-.318-.187c-.317-.22-.688-.552-1.112-1a28.005 28.005 0 01-1.087-1.211 5.228 5.228 0 00-.97-.907c-.343-.244-.642-.325-.896-.242a1.07 1.07 0 00-.127.055 1.385 1.385 0 00-.27.226c-.127.126-.241.28-.342.461-.1.183-.19.454-.27.813a5.02 5.02 0 00-.103 1.21c0 .157-.019.3-.056.43-.037.13-.076.227-.119.29l-.063.078c-.19.198-.471.312-.842.343h-1.826a7.33 7.33 0 01-2.319-.257 8.947 8.947 0 01-2.088-.828 19.063 19.063 0 01-1.636-1.032c-.492-.349-.866-.648-1.12-.898l-.397-.375a10.4 10.4 0 01-.436-.469c-.186-.208-.564-.682-1.136-1.422a39.047 39.047 0 01-1.683-2.36c-.55-.832-1.2-1.931-1.946-3.296a51.214 51.214 0 01-2.072-4.25 1.229 1.229 0 01-.096-.422c0-.114.016-.198.048-.25l.064-.094c.158-.198.46-.297.905-.297l4.351-.03c.127.02.25.054.366.1.116.048.2.092.254.134l.079.046c.17.115.296.282.381.5.212.521.455 1.06.73 1.618.276.557.493.981.652 1.273l.254.453c.307.625.603 1.167.89 1.625.285.459.542.815.77 1.07.227.256.447.456.659.602.211.146.391.219.54.219.148 0 .29-.026.428-.078a.27.27 0 00.08-.078c.032-.042.095-.157.19-.344.096-.188.167-.432.215-.735.047-.302.098-.723.15-1.265.054-.542.054-1.193 0-1.953a7.142 7.142 0 00-.142-1.14c-.075-.345-.149-.584-.223-.72l-.095-.187c-.265-.354-.715-.578-1.35-.672-.138-.02-.111-.146.08-.375.169-.198.37-.354.603-.469.561-.27 1.826-.396 3.796-.375.868.01 1.582.078 2.144.203.211.052.389.123.532.211a.843.843 0 01.325.375c.074.162.13.328.167.5.037.172.055.41.055.711 0 .302-.005.589-.015.86-.011.27-.024.638-.04 1.101-.016.464-.024.893-.024 1.29 0 .114-.005.333-.016.655-.01.323-.013.573-.008.75.006.178.024.388.056.633s.093.448.183.61c.09.161.209.289.357.382.085.021.175.042.27.063.095.02.233-.036.413-.172.18-.135.38-.315.603-.539.223-.224.498-.573.826-1.047.328-.474.688-1.034 1.08-1.68a25.31 25.31 0 001.7-3.515c.042-.104.095-.195.158-.274a.705.705 0 01.175-.164l.063-.047.08-.039.206-.046.318-.008 4.574-.032c.412-.052.751-.039 1.016.04.265.078.429.164.492.257l.096.157z" stroke="#fff" stroke-width="1.2"/></svg>