<svg width="21" height="22" fill="none" xmlns="http://www.w3.org/2000/svg"><path fill-rule="evenodd" clip-rule="evenodd" d="M2.475.703c.23-.24.505-.427.809-.547A2.196 2.196 0 015.162.28c.287.159.539.38.738.648l2.356 3.17c.432.582.584 1.34.414 2.055l-.718 3.011a.975.975 0 00.006.475c.04.154.119.296.227.41l3.225 3.378a.88.88 0 00.392.239.851.851 0 00.453.006l2.873-.753a2.19 2.19 0 011.029-.02c.34.075.658.23.932.454l3.027 2.466c1.088.887 1.188 2.572.214 3.59l-1.357 1.422c-.971 1.018-2.423 1.465-3.776.965a24.334 24.334 0 01-9.2-6.077A25.817 25.817 0 01.194 6.08c-.475-1.417-.049-2.939.923-3.956L2.475.703z" fill="#fff" fill-opacity=".5"/></svg>