<svg width="17" height="28" fill="none" xmlns="http://www.w3.org/2000/svg"><path d="M8.681 14.454c-3.767 0-6.897-3.128-6.897-6.829 0-3.83 3.13-6.958 6.898-6.958 3.896 0 6.898 3.128 6.898 6.958a6.856 6.856 0 01-6.876 6.83H8.68zm0-9.765c-1.595 0-2.808 1.34-2.808 2.938 0 1.594 1.213 2.808 2.81 2.808 1.66 0 2.809-1.214 2.809-2.809.001-1.598-1.15-2.937-2.81-2.937zm2.748 15.45l3.896 3.765c.767.828.767 2.041 0 2.808-.83.828-2.108.828-2.747 0l-3.896-3.83-3.768 3.83c-.382.383-.894.573-1.47.573-.447 0-.958-.192-1.406-.573-.766-.767-.766-1.98 0-2.81l3.96-3.766a17.984 17.984 0 01-4.084-1.785c-.958-.511-1.149-1.787-.638-2.746.638-.957 1.788-1.212 2.81-.573a8.827 8.827 0 009.196 0c1.023-.639 2.235-.384 2.81.573.576.959.318 2.233-.576 2.745-1.212.767-2.618 1.342-4.087 1.788z" fill="#020332" stroke="#fff" stroke-width="1.2"/></svg>