<svg width="17" height="20" viewBox="0 0 17 20" fill="none" xmlns="http://www.w3.org/2000/svg">
<path d="M8.5 10C10.9853 10 13 7.98528 13 5.5C13 3.01472 10.9853 1 8.5 1C6.01472 1 4 3.01472 4 5.5C4 7.98528 6.01472 10 8.5 10Z" stroke="white" stroke-width="1.6"/>
<path d="M12.7934 12H13.0956C13.7234 12.0002 14.3294 12.2339 14.8 12.6574C15.2705 13.0808 15.5732 13.6647 15.651 14.2995L15.9867 17.033C16.0169 17.2793 15.9954 17.5292 15.9235 17.7663C15.8517 18.0035 15.7312 18.2223 15.57 18.4083C15.4088 18.5943 15.2106 18.7433 14.9886 18.8453C14.7666 18.9473 14.5258 19.0001 14.2823 19H2.71771C2.47418 19.0001 2.23342 18.9473 2.01141 18.8453C1.7894 18.7433 1.59123 18.5943 1.43003 18.4083C1.26884 18.2223 1.14831 18.0035 1.07646 17.7663C1.0046 17.5292 0.983056 17.2793 1.01325 17.033L1.34814 14.2995C1.42601 13.6644 1.72888 13.0803 2.19979 12.6568C2.6707 12.2333 3.2772 11.9998 3.90526 12H4.20665" stroke="white" stroke-width="1.6" stroke-linecap="round" stroke-linejoin="round"/>
</svg>
