<svg width="39" height="40" fill="none" xmlns="http://www.w3.org/2000/svg"><path opacity=".5" d="M38.557 19.98c0-.443-.217-.832-.548-1.076l.007-.012-4.662-2.691 2.684-4.648-.01-.006a1.333 1.333 0 00-.49-1.653 1.334 1.334 0 00-.585-.208v-.013h-5.385V4.305h-.01a1.334 1.334 0 00-1.253-1.187 1.33 1.33 0 00-.61.113l-.007-.011-4.74 2.737-2.625-4.547-.01.005a1.334 1.334 0 00-1.075-.547c-.442 0-.831.218-1.075.549l-.012-.007-2.668 4.622-4.596-2.653-.005.01a1.333 1.333 0 00-1.654.49 1.333 1.333 0 00-.207.585h-.014v5.337H3.701v.01a1.333 1.333 0 00-1.187 1.253c-.01.209.028.418.113.61l-.011.007 2.623 4.543-4.697 2.712.005.01A1.333 1.333 0 000 20.02c0 .443.217.832.548 1.076l-.007.012 4.662 2.691-2.683 4.648.009.005a1.333 1.333 0 00.491 1.654c.176.114.376.185.585.207v.014h5.383v5.368H9a1.333 1.333 0 001.253 1.186c.21.011.419-.028.61-.113l.007.012 4.74-2.737 2.626 4.547.009-.006a1.334 1.334 0 001.075.547c.442 0 .832-.217 1.075-.548l.012.007 2.668-4.622 4.595 2.653.006-.01a1.334 1.334 0 001.204-.063 1.334 1.334 0 00.657-1.013h.014V30.2h5.306v-.01a1.334 1.334 0 001.011-.658 1.334 1.334 0 00.064-1.205l.011-.007-2.623-4.543 4.697-2.712-.005-.01a1.333 1.333 0 00.546-1.074zm-22.421 5.697l-4.923-2.175 2.173 3.763-1.228.709-3.332-5.769 1.263-.73 4.765 2.082-2.092-3.624 1.228-.71 3.33 5.77-1.184.684zm2.326-1.343l-3.33-5.769 4.082-2.356.624 1.08-2.855 1.648.7 1.211 2.793-1.612.624 1.08-2.794 1.613.76 1.315 2.854-1.648.624 1.081-4.082 2.357zm9.453-5.457L24.616 15.5l1.284 4.54-1.306.754-4.983-4.815 1.375-.794 3.42 3.584-1.309-4.802.96-.554 3.497 3.54-1.395-4.754 1.375-.794 1.687 6.718-1.306.754z" fill="#fff"/></svg>