<svg width="24" height="24" fill="none" xmlns="http://www.w3.org/2000/svg"><path d="M18.857 0c.455 0 .89.169 1.212.469.322.3.502.707.502 1.131v20.8h2.572a.89.89 0 01.606.234c.16.15.251.354.251.566 0 .212-.09.416-.251.566a.89.89 0 01-.606.234H.857a.89.89 0 01-.606-.234A.774.774 0 010 23.2c0-.212.09-.416.251-.566a.89.89 0 01.606-.234H3.43V1.6c0-.424.18-.831.502-1.131.32-.3.756-.469 1.211-.469h13.714zM15.43 14.4c.454 0 .89-.169 1.212-.469.321-.3.502-.707.502-1.131 0-.424-.18-.831-.502-1.131a1.779 1.779 0 00-1.212-.469c-.455 0-.891.169-1.213.469a1.55 1.55 0 00-.502 1.131c0 .424.18.831.502 1.131.322.3.758.469 1.213.469z" fill="#CCC"/></svg>