<svg width="38" height="38" fill="none" xmlns="http://www.w3.org/2000/svg"><path d="M30.875 2.375H9.5A2.375 2.375 0 007.125 4.75V9.5H4.75v2.375h2.375v5.938H4.75v2.375h2.375v5.937H4.75V28.5h2.375v4.75A2.375 2.375 0 009.5 35.625h21.375a2.375 2.375 0 002.375-2.375V4.75a2.375 2.375 0 00-2.375-2.375zm0 30.875H9.5V28.5h2.375v-2.375H9.5v-5.938h2.375v-2.375H9.5v-5.937h2.375V9.5H9.5V4.75h21.375v28.5z" fill="silver"/><path d="M16.625 9.5h9.5v2.375h-9.5V9.5zm0 8.313h9.5v2.375h-9.5v-2.375zm0 8.312h9.5V28.5h-9.5v-2.375z" fill="silver"/></svg>