<svg width="27" height="34" fill="none" xmlns="http://www.w3.org/2000/svg"><path d="M14.222 18.667c4.296 0 7.778-3.731 7.778-8.334C22 5.731 18.518 2 14.222 2c-4.295 0-7.778 3.731-7.778 8.333 0 4.603 3.483 8.334 7.778 8.334z" stroke="silver" stroke-width="2.5"/><path d="M20.345 18.667h.47c.977 0 1.92.446 2.652 1.252.732.807 1.202 1.919 1.324 3.128l.522 5.207c.047.469.013.945-.099 1.396a3.6 3.6 0 01-.55 1.223 2.8 2.8 0 01-.904.833c-.345.194-.72.294-1.099.294H4.672c-.379 0-.753-.1-1.099-.294a2.803 2.803 0 01-.904-.833 3.625 3.625 0 01-.55-1.223 4.125 4.125 0 01-.098-1.396l.52-5.207c.122-1.21.593-2.322 1.325-3.129.733-.807 1.676-1.252 2.653-1.251h.47" stroke="silver" stroke-width="2.5" stroke-linecap="round" stroke-linejoin="round"/></svg>