<svg width="32" height="32" fill="none" xmlns="http://www.w3.org/2000/svg"><g clip-path="url(#clip0)"><path d="M7.307 2.656a1.356 1.356 0 00-2.03-.126L3.21 4.6c-.966.968-1.322 2.338-.9 3.54a35.136 35.136 0 008.336 13.216 35.136 35.136 0 0013.216 8.336c1.203.422 2.572.066 3.54-.9l2.069-2.068a1.355 1.355 0 00-.127-2.03l-4.613-3.588a1.358 1.358 0 00-1.16-.244l-4.38 1.094a3.49 3.49 0 01-3.315-.918l-4.912-4.914a3.49 3.49 0 01-.92-3.314l1.097-4.38a1.356 1.356 0 00-.245-1.16L7.308 2.656zm-3.54-1.634a3.49 3.49 0 015.224.326L12.58 5.96c.659.846.89 1.948.63 2.988l-1.093 4.38a1.356 1.356 0 00.356 1.286l4.914 4.914a1.356 1.356 0 001.288.356l4.378-1.094a3.49 3.49 0 012.988.63l4.611 3.588a3.49 3.49 0 01.326 5.222l-2.067 2.068c-1.48 1.48-3.692 2.13-5.755 1.404a37.266 37.266 0 01-14.02-8.84A37.268 37.268 0 01.295 8.844C-.429 6.784.221 4.57 1.701 3.09L3.77 1.022h-.002z" fill="silver"/></g><defs><clipPath id="clip0"><path fill="#fff" d="M0 0h32v32H0z"/></clipPath></defs></svg>