<svg width="36" height="38" fill="none" xmlns="http://www.w3.org/2000/svg"><path d="M29.104 3.607l1.018 6.445 5.861 2.989-2.955 5.844L36 24.729l-5.91 2.989-1.02 6.445-6.495-1.018-4.625 4.608-4.642-4.675-6.445 1.069-1.036-6.496L0 24.68l2.972-5.844L.017 13.04l5.86-3.022 1.02-6.396 6.461 1.069L18 0l4.625 4.625 6.479-1.018zm-15.278 6.93a2.505 2.505 0 100 5.008 2.505 2.505 0 000-5.009zm8.348 11.687a2.505 2.505 0 100 5.01 2.505 2.505 0 000-5.01zm-10.168 5.01L26.349 12.89l-2.355-2.354L9.651 24.88l2.355 2.355z" fill="#E31E24"/></svg>