<svg width="20" height="21" fill="none" xmlns="http://www.w3.org/2000/svg"><path d="M19.878 5.663a.572.572 0 00-.5-.286H6.046L5.026 1.63a3.011 3.011 0 00-.373-.868c-.157-.24-.324-.41-.5-.508A2.102 2.102 0 003.69.053 1.503 1.503 0 003.298 0H.608a.567.567 0 00-.431.19A.688.688 0 000 .678C0 .79.026.9.079 1.006a.603.603 0 00.53.328h2.69c.052 0 .1.007.146.02.046.015.108.075.187.18.079.107.144.265.196.477l3.475 13.76a.787.787 0 00.128.244.64.64 0 00.206.18.53.53 0 00.255.063h8.481a.589.589 0 00.364-.127.623.623 0 00.225-.318l3.004-9.526a.724.724 0 00-.088-.624zm-3.937 9.24H8.383L6.381 6.732h12.093l-2.533 8.171zm-1.236 2.71a1.46 1.46 0 00-1.11.497c-.307.332-.46.73-.46 1.197 0 .465.153.864.46 1.196a1.46 1.46 0 001.11.497 1.46 1.46 0 001.109-.497c.308-.332.461-.73.461-1.197 0-.465-.153-.864-.461-1.196a1.46 1.46 0 00-1.11-.497zm-5.654 0c-.288 0-.553.078-.796.233a1.65 1.65 0 00-.569.614 1.75 1.75 0 00-.206.846c0 .466.154.865.461 1.197a1.46 1.46 0 001.11.497 1.46 1.46 0 001.109-.497 1.7 1.7 0 00.461-1.197c0-.113-.01-.225-.03-.338a1.601 1.601 0 00-.235-.604 1.813 1.813 0 00-.432-.465 1.324 1.324 0 00-.56-.254 1.58 1.58 0 00-.313-.032z" fill="#fff"/></svg>