<svg width="30" height="32" fill="none" xmlns="http://www.w3.org/2000/svg"><path d="M12.888.72A3.441 3.441 0 0115 0c.768 0 1.513.254 2.112.72l11.625 9.045c.394.307.713.695.931 1.138.219.442.332.926.332 1.416v16.408c0 .868-.356 1.7-.988 2.314a3.43 3.43 0 01-2.387.959h-4.5a3.43 3.43 0 01-2.387-.959 3.224 3.224 0 01-.988-2.314V20c0-.29-.119-.567-.33-.772a1.143 1.143 0 00-.795-.32h-5.25c-.298 0-.585.115-.796.32-.21.205-.329.482-.329.771v8.728c0 .868-.356 1.7-.989 2.314A3.43 3.43 0 017.875 32h-4.5a3.43 3.43 0 01-2.386-.959A3.224 3.224 0 010 28.727V12.32c0-.992.465-1.932 1.263-2.553L12.888.721V.72zm2.816 1.702a1.147 1.147 0 00-1.408 0L2.672 11.467a1.098 1.098 0 00-.311.379c-.073.147-.11.308-.111.472v16.408c0 .603.504 1.09 1.125 1.09h4.5c.298 0 .585-.114.795-.319.211-.204.33-.482.33-.771v-8.728c0-.868.356-1.7.989-2.314a3.43 3.43 0 012.386-.959h5.25c.443 0 .882.085 1.292.25.41.164.782.405 1.095.71.313.303.562.664.732 1.062.169.397.256.823.256 1.253v8.727c0 .604.504 1.091 1.125 1.091h4.5c.298 0 .584-.115.796-.32.21-.204.329-.482.329-.77v-16.41c0-.163-.038-.324-.11-.472a1.098 1.098 0 00-.31-.379L15.705 2.423l-.002-.001z" fill="silver"/></svg>