<svg width="30" height="29" fill="none" xmlns="http://www.w3.org/2000/svg"><path d="M29.817 7.82a.875.875 0 00-.751-.395H9.07L7.54 2.251a3.996 3.996 0 00-.56-1.199c-.235-.33-.486-.565-.75-.701a3.301 3.301 0 00-.693-.278A2.437 2.437 0 004.947 0H.913a.885.885 0 00-.648.263A.907.907 0 000 .935c0 .156.04.307.118.454a.802.802 0 00.338.336c.148.078.3.117.457.117h4.034a.82.82 0 01.221.029c.069.02.162.102.28.248.118.147.216.366.294.658l5.213 19.002a1.056 1.056 0 00.5.585.849.849 0 00.383.088H24.56a.93.93 0 00.545-.176.866.866 0 00.339-.438l4.505-13.156a.933.933 0 00-.132-.862zm-5.905 12.76H12.575L9.57 9.297h18.14l-3.799 11.285zm-1.855 3.743c-.648 0-1.202.229-1.664.687a2.244 2.244 0 00-.692 1.651c0 .643.23 1.194.692 1.652a2.277 2.277 0 001.664.687c.648 0 1.203-.229 1.664-.687a2.244 2.244 0 00.692-1.652 2.24 2.24 0 00-.692-1.651 2.277 2.277 0 00-1.664-.687zm-8.481 0c-.432 0-.83.107-1.193.321a2.365 2.365 0 00-.854.848c-.206.35-.31.74-.31 1.17 0 .642.232 1.193.693 1.651a2.277 2.277 0 001.664.687c.648 0 1.202-.229 1.664-.687a2.244 2.244 0 00.692-1.652c0-.156-.015-.312-.045-.468a2.072 2.072 0 00-.353-.833 2.543 2.543 0 00-.648-.643 2.114 2.114 0 00-.84-.35 2.573 2.573 0 00-.47-.044z" fill="silver"/></svg>