<svg width="21" height="23" fill="none" xmlns="http://www.w3.org/2000/svg"><path d="M16.5 0c.398 0 .78.162 1.06.45.282.287.44.677.44 1.083v19.934h2.25c.199 0 .39.08.53.224a.775.775 0 010 1.084.742.742 0 01-.53.225H.75a.742.742 0 01-.53-.225.775.775 0 010-1.084.742.742 0 01.53-.224H3V1.533c0-.406.158-.796.44-1.084A1.48 1.48 0 014.5 0h12zm-3 13.8c.398 0 .78-.162 1.06-.45a1.55 1.55 0 00.44-1.083 1.55 1.55 0 00-.44-1.085 1.484 1.484 0 00-1.06-.449c-.398 0-.78.162-1.06.45-.282.287-.44.677-.44 1.084 0 .406.158.796.44 1.084.28.287.662.449 1.06.449z" fill="#CCC"/></svg>