<svg width="29" height="27" fill="none" xmlns="http://www.w3.org/2000/svg"><path d="M25.841 7.011a.752.752 0 00-.65-.354H7.86L6.534 2.018A3.655 3.655 0 006.049.944c-.204-.297-.421-.507-.651-.63a2.806 2.806 0 00-.6-.248A2.046 2.046 0 004.288 0H.79a.754.754 0 00-.56.236.828.828 0 00-.23.603c0 .14.034.275.102.406a.707.707 0 00.294.301c.127.07.26.105.395.105h3.497c.068 0 .132.009.191.026.06.018.14.092.243.223.102.131.187.328.255.59l4.517 17.036a.97.97 0 00.166.302.82.82 0 00.268.222.716.716 0 00.332.079h11.025a.79.79 0 00.473-.157.774.774 0 00.293-.393l3.905-11.795a.86.86 0 00-.115-.773zm-5.117 11.44h-9.826L8.295 8.336h15.721l-3.292 10.117zm-1.608 3.355a1.94 1.94 0 00-1.442.616c-.4.411-.6.905-.6 1.481 0 .577.2 1.07.6 1.481.4.41.88.616 1.442.616a1.94 1.94 0 001.442-.616c.4-.41.6-.904.6-1.48 0-.577-.2-1.071-.6-1.482a1.94 1.94 0 00-1.442-.616zm-7.35 0c-.375 0-.72.097-1.034.289a2.085 2.085 0 00-1.008 1.808c0 .577.2 1.07.6 1.481.4.41.88.616 1.442.616a1.94 1.94 0 001.442-.616c.4-.41.6-.904.6-1.48 0-.14-.013-.28-.039-.42a1.902 1.902 0 00-.306-.747 2.254 2.254 0 00-.562-.577 1.785 1.785 0 00-.727-.314 2.157 2.157 0 00-.408-.04z" fill="#fff"/></svg>