<svg width="43" height="43" fill="none" xmlns="http://www.w3.org/2000/svg"><g clip-path="url(#clip0)"><path d="M27.326 27.058c2.53-1.84 4.063-4.753 4.063-7.819 0-1.38-.077-2.53-.23-3.526h1.84a.85.85 0 00.843-.843v-3.679a.85.85 0 00-.844-.843h-1.456c-.767-3.833-3.603-6.975-7.359-8.048V.843A.85.85 0 0023.34 0h-4.215a.85.85 0 00-.844.843V2.3c-3.756 1.073-6.592 4.215-7.358 8.048H9.466a.85.85 0 00-.843.843v3.68c0 .46.384.842.843.842h1.763c-.153.997-.23 2.223-.23 3.526 0 3.066 1.534 5.98 4.063 7.819-6.209 2.376-10.425 8.048-10.425 14.41 0 .46.384.843.844.843h31.35a.85.85 0 00.843-.843c0-6.362-4.216-12.034-10.348-14.41zm-17.093-13.03V12.11h1.38c.23 0 .383-.077.536-.23.077-.077.23-.307.307-.537.383-3.296 2.683-6.055 5.749-7.205v5.366c0 .46.383.843.843.843a.85.85 0 00.843-.843V1.686h2.53v7.742c0 .46.383.843.843.843a.85.85 0 00.843-.843V4.14c3.066 1.15 5.365 3.91 5.749 7.205 0 .23.153.46.306.537.307.23.46.23.614.23h1.38v1.916H10.232zM6.4 40.547c.46-5.825 4.83-10.884 10.961-12.417.384-.077.614-.383.69-.767 0-.383-.153-.69-.536-.843-2.913-1.38-4.753-4.139-4.753-7.282 0-1.38.077-2.53.23-3.526h16.404c.153.997.23 2.147.23 3.526 0 3.143-1.84 5.903-4.753 7.282-.306.154-.536.537-.536.843 0 .384.306.69.69.767 6.132 1.533 10.578 6.592 10.96 12.417H6.4z" fill="#fff" fill-opacity=".5"/></g><defs><clipPath id="clip0"><path fill="#fff" d="M0 0h42.311v42.311H0z"/></clipPath></defs></svg>