<svg width="42" height="42" fill="none" xmlns="http://www.w3.org/2000/svg"><g clip-path="url(#clip0)" fill="#fff" fill-opacity=".5"><path d="M14.944 15.806a1.624 1.624 0 002.274-.324l3.573-4.765 3.573 4.765a1.624 1.624 0 002.6-1.95L22.09 7.036a1.624 1.624 0 00-2.599 0l-4.872 6.498a1.624 1.624 0 00.325 2.274zm11.694 10.396a1.624 1.624 0 00-2.274.325l-3.573 4.764-3.573-4.764a1.624 1.624 0 10-2.6 1.949l4.873 6.497a1.624 1.624 0 002.6 0l4.872-6.497a1.624 1.624 0 00-.325-2.274z"/><path d="M39.958.213H1.624C.727.213 0 .94 0 1.838V40.17c0 .897.727 1.624 1.624 1.624h38.334c.897 0 1.624-.727 1.624-1.624V1.838c0-.898-.727-1.625-1.624-1.625zm-1.625 38.334H3.25V3.462h35.084v35.085z"/><path d="M15.918 22.628h9.746a1.624 1.624 0 000-3.248h-9.746a1.624 1.624 0 100 3.248z"/></g><defs><clipPath id="clip0"><path fill="#fff" transform="translate(0 .213)" d="M0 0h41.582v41.582H0z"/></clipPath></defs></svg>