<svg width="47" height="47" fill="none" xmlns="http://www.w3.org/2000/svg"><g clip-path="url(#clip0)" fill="#fff" fill-opacity=".5"><path d="M46.13 16.25L11.764 3.518a.848.848 0 00-1.09.502v.001L6.868 14.376a.849.849 0 00.504 1.09l3.984 1.463-.878 2.39a.849.849 0 00.504 1.09l7.968 2.925-.585 1.594a3.354 3.354 0 001.21 3.913v4.332H8.155A4.255 4.255 0 005.12 30.71v-1.78a.849.849 0 00-.85-.849H.85a.849.849 0 00-.849.849v13.58c0 .47.38.849.849.849h3.42c.469 0 .849-.38.849-.849v-1.782a4.256 4.256 0 003.035-2.462h11.42v.85a2.546 2.546 0 105.093 0V29.71a3.366 3.366 0 001.665-1.854l.585-1.594 7.172 2.63a.85.85 0 001.09-.504l.317-.866a5.088 5.088 0 005.584-7.082l5.145-2.642a.849.849 0 00-.092-1.552l-.004.003zM21.273 29.615l.703.254c.32.115.655.18.995.195v3.109h-1.698v-3.558zM3.423 41.66H1.697V29.778h1.724V41.66zm3.394-5.093a2.552 2.552 0 01-1.697 2.401v-6.5a2.551 2.551 0 011.697 2.401v1.698zm1.724-1.698h14.43v1.698H8.54V34.87zm13.58 5.093a.849.849 0 01-.848-.849v-.849h1.698v.85c0 .468-.38.848-.85.848zm3.204-14.285l-.585 1.594a1.698 1.698 0 01-2.179 1.008l-1.596-.585a1.698 1.698 0 01-1.009-2.179l.586-1.593 4.303 1.58.48.175zm8.553 1.333l-21.513-7.9.586-1.594 12.748 4.681c.301.11.64.041.875-.178l2.381-2.243 6.679 2.453-1.756 4.78zm5.74-3.318a3.407 3.407 0 01-3.525 2.207l1.312-3.572 2.142-1.104c.336.785.36 1.668.07 2.47zm-2.866-2.934a.77.77 0 00-.133.023l-7.568-2.779a.85.85 0 00-.874.178l-2.385 2.243-17.037-6.256 3.218-8.762 31.758 11.766-6.979 3.587z"/><path d="M15.715 14.914l.584-1.593 1.594.585-.585 1.593-1.593-.585zm3.186 1.17l.585-1.593 1.594.585-.586 1.593-1.593-.585zm3.187 1.171l.585-1.593 1.594.585-.586 1.593-1.593-.585z"/></g><defs><clipPath id="clip0"><path fill="#fff" d="M0 0h46.688v46.688H0z"/></clipPath></defs></svg>