<svg width="111" height="39" viewBox="0 0 111 39" fill="none" xmlns="http://www.w3.org/2000/svg">
<path d="M96.8807 2.01775L82.3117 9.2881C80.4 10.2421 79.6187 12.575 80.5668 14.4988L87.7915 29.1597C88.7396 31.0834 91.0578 31.8696 92.9696 30.9156L107.539 23.6452C109.45 22.6912 110.232 20.3583 109.283 18.4346L102.059 3.77369C101.111 1.84991 98.7924 1.06375 96.8807 2.01775Z" fill="#8DFCF5"/>
<path d="M9.33251 38.9432C5.78088 38.9432 2.78983 38.016 0.359332 36.1619C0.327317 36.1375 0.295661 36.1127 0.263777 36.0882C0.142037 35.9949 -0.202073 35.5835 0.163706 35.1469C0.187144 35.1189 0.211433 35.0915 0.235329 35.0638C0.945348 34.2415 1.65573 33.4186 2.36575 32.5962C2.4031 32.5528 2.44071 32.5093 2.47819 32.4659C2.7928 32.1005 3.17511 32.2105 3.37774 32.3476C3.41297 32.3714 3.44724 32.3964 3.48197 32.4204C5.36452 33.7215 7.38308 34.3722 9.53739 34.3722C11.0988 34.3722 11.8796 33.8991 11.8796 32.9527C11.8796 32.5362 11.6454 32.1908 11.177 31.9164C10.7085 31.6419 9.79119 31.3533 8.42493 31.0505C7.17564 30.7665 6.14616 30.4873 5.33607 30.2129C4.52611 29.9385 3.73553 29.5694 2.9646 29.1056C2.19366 28.642 1.62273 28.0504 1.25185 27.3311C0.881058 26.6119 0.695551 25.7507 0.695551 24.7476C0.695551 22.8736 1.41293 21.3453 2.84751 20.1623C4.28204 18.9793 6.20957 18.3878 8.62985 18.3878C11.7298 18.3878 14.3639 19.1383 16.5319 20.6393C16.6707 20.7703 16.9951 21.1113 16.6851 21.5439L14.5819 24.4247C14.4748 24.5693 14.309 24.6384 14.1786 24.6619C13.9462 24.7035 13.7514 24.6052 13.6761 24.5631C11.8989 23.5681 10.2143 22.9589 8.48337 22.9589C7.81976 22.9589 7.31227 23.0819 6.961 23.328C6.60962 23.5741 6.434 23.8958 6.434 24.2933C6.434 24.7476 6.67316 25.1073 7.15129 25.3722C7.62951 25.6371 8.57119 25.9211 9.9766 26.224C12.553 26.7729 14.4706 27.5063 15.7295 28.4243C16.9885 29.3423 17.6179 30.6909 17.6179 32.4701C17.6179 34.4765 16.8665 36.0569 15.3636 37.2114C13.8608 38.366 11.8503 38.9433 9.33251 38.9433V38.9432ZM18.6898 37.6883C21.4111 31.4451 24.1325 25.2018 26.8538 18.9585C26.9551 18.7351 27.1269 18.604 27.4207 18.5865C28.9658 18.5865 30.5106 18.5865 32.0556 18.5865C32.3191 18.5943 32.5191 18.699 32.6557 18.9644C35.3742 25.2015 38.0928 31.4384 40.8114 37.6753C40.9832 38.0324 40.8009 38.5933 40.205 38.6026C38.6523 38.6026 37.0996 38.6026 35.5468 38.6026C35.2269 38.5791 35.068 38.4466 34.9529 38.1914L33.6327 35.0537H25.7278C25.2942 36.105 24.8604 37.1566 24.4268 38.2079C24.3462 38.4482 24.0998 38.5915 23.812 38.6026H19.2671C18.8258 38.6026 18.4618 38.2113 18.6898 37.6884V37.6883ZM27.3965 30.7665H31.9931L29.7095 25.1165L27.3965 30.7665ZM52.341 39C49.1205 39 46.4563 38.0299 44.3483 36.0899C42.2403 34.1498 41.1864 31.6751 41.1864 28.6656C41.1864 25.7507 42.2354 23.2996 44.3336 21.3121C46.4318 19.3248 49.0618 18.331 52.2239 18.331C55.1885 18.331 57.761 19.1392 59.9413 20.7556C60.1479 20.9408 60.5354 21.2249 60.0522 21.794L57.5748 24.681C57.4973 24.7729 57.1262 25.0362 56.7292 24.7563C55.3152 23.7588 53.832 23.2427 52.2532 23.2427C50.7698 23.2427 49.5255 23.7727 48.5203 24.8326C47.5151 25.8926 47.0126 27.1986 47.0126 28.7507C47.0126 30.3595 47.5346 31.6797 48.5789 32.7114C49.623 33.7429 50.9552 34.2586 52.5752 34.2586C53.9025 34.2586 54.9955 33.9842 55.8543 33.4353V31.022H52.4606C52.3259 31.0053 51.8091 30.9396 51.814 30.3968C51.8221 29.4856 51.814 28.5744 51.814 27.663C51.8314 27.2734 52.0243 27.0348 52.4512 26.9903H61.2414V35.9337C58.6845 37.9779 55.7176 38.9999 52.341 38.9999L52.341 39Z" fill="white"/>
<path d="M63.6077 38.0561C66.3226 31.6091 69.0374 25.162 71.7523 18.7151C71.8533 18.4845 72.0247 18.3492 72.3178 18.331C73.8591 18.331 75.4003 18.331 76.9416 18.331C77.2044 18.3391 77.404 18.4471 77.5401 18.7213C80.2523 25.1617 82.9642 31.6021 85.6764 38.0426C85.8477 38.4111 85.6658 38.9904 85.0715 39C83.5224 39 81.9734 39 80.4244 39C80.1054 38.9757 79.9466 38.839 79.832 38.5755L78.515 35.3353H70.6291C70.1964 36.421 69.7637 37.5068 69.3311 38.5924C69.2506 38.8406 69.0048 38.9887 68.7177 39H64.1837C63.7436 39 63.3804 38.596 63.6078 38.0561H63.6077ZM72.2937 30.9084H76.8793L74.6011 25.0741L72.2937 30.9084Z" fill="white"/>
<path d="M94.7711 23.6896C92.2777 23.6896 90.2873 22.7356 88.8 20.8276L91.1185 18.4385C92.2121 19.7631 93.4442 20.4254 94.8148 20.4254C95.4564 20.4254 95.974 20.2441 96.3677 19.8814C96.776 19.503 96.9801 18.9983 96.9801 18.3676C96.9801 17.6895 96.7177 17.1691 96.1928 16.8064C95.6678 16.4438 94.9315 16.2624 93.9837 16.2624H92.5839L92.059 13.9444L95.7116 9.97055H89.6968V6.84827H100.042V9.59209L96.1709 13.5895C98.9122 14.0942 100.283 15.6553 100.283 18.273C100.283 19.8656 99.7798 21.1666 98.7736 22.1758C97.7821 23.185 96.4479 23.6896 94.7711 23.6896Z" fill="#6113CA"/>
</svg>
