<svg width="27" height="24" viewBox="0 0 27 24" fill="none" xmlns="http://www.w3.org/2000/svg">
<path d="M15.7591 4.19918C16.2719 2.9056 15.6389 1.44125 14.3454 0.928469C13.0518 0.415687 11.5874 1.04865 11.0746 2.34224C10.5618 3.63582 11.1948 5.10017 12.4884 5.61295C13.782 6.12573 15.2463 5.49277 15.7591 4.19918Z" fill="#8DFCF5"/>
<path d="M18.2211 12.6617C18.8236 12.6617 19.3166 12.1961 19.3439 11.5936C19.3713 10.991 18.9057 10.4707 18.2758 10.4159L16.0849 10.3064L14.8798 8.00583C14.5512 7.37593 14.0034 6.88296 13.3461 6.63647L11.0456 5.73269C10.4431 5.48621 9.7584 5.45882 9.12849 5.65053L6.36238 6.44476C6.1159 6.52692 5.8968 6.66386 5.75986 6.88296L4.06185 9.34781C3.70582 9.86817 3.84275 10.5528 4.36311 10.9089C4.88347 11.2649 5.56815 11.128 5.92418 10.6076L7.37571 8.47142L9.15588 7.97845L6.91013 13.5654L5.2395 16.2768L1.46006 15.866C0.747994 15.7838 0.0906997 16.3042 0.00853788 17.0162C-0.0736239 17.7283 0.446734 18.3856 1.1588 18.4678L5.75986 18.9607C5.81464 18.9607 5.86941 18.9607 5.8968 18.9607C6.33499 18.9607 6.77319 18.7416 6.99229 18.3308L9.07372 14.9896L11.3742 18.6869L12.0042 22.9045C12.1137 23.5618 12.6614 24 13.2914 24C13.3461 24 13.4283 24 13.4831 23.9726C14.1951 23.8631 14.6881 23.2058 14.5786 22.4937L13.9213 18.0022C13.8939 17.8379 13.8391 17.6461 13.7296 17.5092L11.6207 14.0858L13.3735 9.81339L14.469 11.8674C14.6607 12.2235 15.0168 12.4426 15.4002 12.47L18.1663 12.6617C18.1937 12.6617 18.2211 12.6617 18.2211 12.6617Z" fill="#8DFCF5"/>
<path d="M25.7525 15.9208L23.0138 13.182C22.6578 12.826 22.11 12.826 21.754 13.182C21.3979 13.5381 21.3979 14.0858 21.754 14.4418L22.959 15.6469H16.8517C16.3587 15.6469 15.9479 16.0577 15.9479 16.5507C15.9479 17.0436 16.3587 17.4544 16.8517 17.4544H22.9864L21.7814 18.6595C21.4253 19.0155 21.4253 19.5633 21.7814 19.9193C21.9457 20.0836 22.1922 20.1932 22.4113 20.1932C22.6304 20.1932 22.8769 20.111 23.0412 19.9193L25.7799 17.1806C25.9442 17.0162 26.0538 16.7972 26.0538 16.5507C26.0264 16.3316 25.9442 16.0851 25.7525 15.9208Z" fill="#8DFCF5"/>
</svg>
