<svg width="26" height="24" viewBox="0 0 26 24" fill="none" xmlns="http://www.w3.org/2000/svg">
<path d="M24 10.9565H22.9565C22.9565 10.8501 22.9357 10.7494 22.9059 10.6523C22.9367 10.5856 22.9565 10.513 22.9565 10.4348C22.9565 4.68104 18.2755 0 12.5217 0C6.768 0 2.08696 4.68104 2.08696 10.4348C2.08696 10.513 2.10678 10.5856 2.13757 10.6523C2.10783 10.7494 2.08696 10.8501 2.08696 10.9565H1.04348C0.468 10.9565 0 11.4245 0 12V15.6522C0 16.2277 0.468 16.6957 1.04348 16.6957H2.08696V20.8696C2.08696 21.7325 2.78922 22.4348 3.65217 22.4348H7.30435C7.30435 23.2977 8.00661 24 8.86957 24H10.9565C11.8195 24 12.5217 23.2977 12.5217 22.4348V21.3913C12.5217 20.5283 11.8195 19.8261 10.9565 19.8261H8.86957C8.00661 19.8261 7.30435 20.5283 7.30435 21.3913H3.65217C3.3647 21.3913 3.13043 21.1576 3.13043 20.8696V17.7391H5.73913C6.31461 17.7391 6.78261 17.2711 6.78261 16.6957V10.9565C6.78261 10.381 6.31461 9.91304 5.73913 9.91304H3.15704C3.42991 4.97791 7.5193 1.04348 12.5217 1.04348C17.5237 1.04348 21.6136 4.97791 21.8864 9.91304H19.3043C18.7289 9.91304 18.2609 10.381 18.2609 10.9565V16.6957C18.2609 17.2711 18.7289 17.7391 19.3043 17.7391H21.913C22.4885 17.7391 22.9565 17.2711 22.9565 16.6957H24C24.5755 16.6957 25.0435 16.2277 25.0435 15.6522V12C25.0435 11.4245 24.5755 10.9565 24 10.9565ZM8.34783 21.3913C8.34783 21.1033 8.58209 20.8696 8.86957 20.8696H10.9565C11.244 20.8696 11.4783 21.1033 11.4783 21.3913V22.4348C11.4783 22.7228 11.244 22.9565 10.9565 22.9565H8.86957C8.58209 22.9565 8.34783 22.7228 8.34783 22.4348V21.3913ZM1.04348 15.6522V12H2.08696V15.6522H1.04348ZM5.73965 16.6957H3.13043V16.1739V15.6522V11.4783V10.9565H5.73913L5.73965 16.6957ZM19.3043 16.6957V10.9565H21.913V11.4777C21.913 11.4777 21.913 11.4777 21.913 11.4783V16.1739C21.913 16.1755 21.913 16.177 21.913 16.1786V16.6957H19.3043ZM22.9565 15.6522V12H24L24.001 15.6522H22.9565Z" fill="#8DFCF5"/>
</svg>
