<svg width="24" height="24" viewBox="0 0 24 24" fill="none" xmlns="http://www.w3.org/2000/svg">
<path d="M12 0C5.37935 0 0 5.37935 0 12C0 18.6207 5.37935 24 12 24C18.6206 24 24 18.6207 24 12C24 5.37935 18.6206 0 12 0ZM11.4107 1.19643C11.4475 2.65528 11.4286 4.21251 11.4286 5.70536H7.75893C8.56648 3.268 9.84807 1.53005 11.4107 1.19643ZM12.5714 1.21429C14.1091 1.57646 15.3716 3.29675 16.1696 5.70536H12.5714V1.21429ZM8.875 1.59821C7.96901 2.5953 7.20137 4.00981 6.65179 5.70536H3.15179C4.53363 3.76587 6.53822 2.29789 8.875 1.59821ZM15.125 1.59821C17.4618 2.29789 19.4664 3.76587 20.8482 5.70536H17.3482C16.7986 4.00981 16.031 2.5953 15.125 1.59821ZM2.4375 6.84821H6.33036C5.98074 8.24638 5.76412 9.78859 5.72321 11.4196H1.16071C1.2468 9.77049 1.69773 8.22094 2.4375 6.84821ZM7.42857 6.84821H11.4286V11.4196H6.83929C6.87978 9.79625 7.07992 8.23772 7.42857 6.84821ZM12.5714 6.84821H16.5C16.8487 8.23772 17.0488 9.79625 17.0893 11.4196H12.5714V6.84821ZM17.6696 6.84821H21.5625C22.3023 8.22094 22.7532 9.77049 22.8393 11.4196H18.2768C18.2359 9.78859 18.0193 8.24638 17.6696 6.84821ZM1.16071 12.5625H5.72321C5.76227 14.1924 5.97397 15.7366 6.32143 17.1339H2.42857C1.69286 15.7629 1.24528 14.2082 1.16071 12.5625ZM6.83929 12.5625H11.4286V17.1339H7.42857C7.08111 15.7435 6.87853 14.1859 6.83929 12.5625ZM12.5714 12.5625H17.0893C17.05 14.1859 16.8475 15.7435 16.5 17.1339H12.5714V12.5625ZM18.2768 12.5625H22.8393C22.7547 14.2082 22.3071 15.7629 21.5714 17.1339H17.6786C18.026 15.7366 18.2377 14.1924 18.2768 12.5625ZM3.13393 18.2768H6.64286C7.19136 19.977 7.95909 21.3928 8.86607 22.3929C6.52491 21.6897 4.51453 20.2239 3.13393 18.2768ZM7.75893 18.2768H11.4286V22.7946C9.85644 22.4697 8.56926 20.7273 7.75893 18.2768ZM12.5714 18.2768H16.1696C15.3718 20.6896 14.1108 22.4142 12.5714 22.7768V18.2768ZM17.3571 18.2768H20.8661C19.4855 20.2239 17.4751 21.6897 15.1339 22.3929C16.0409 21.3928 16.8086 19.977 17.3571 18.2768Z" fill="#8DFCF5"/>
</svg>
