<svg width="140" height="96" fill="none" xmlns="http://www.w3.org/2000/svg"><g clip-path="url(#clip0)"><path fill-rule="evenodd" clip-rule="evenodd" d="M70.02 0c22.502 0 41.487 15.387 46.765 36.074h-7.482C104.222 19.367 88.52 7.137 70.019 7.137c-22.59 0-41.015 18.234-41.015 40.59 0 22.357 18.425 40.592 41.015 40.592 21.986 0 40.149-16.827 41.1-38.36h7.343c-.957 25.464-22.485 45.496-48.443 45.496-26.562 0-48.227-21.44-48.227-47.727C21.792 21.44 43.457 0 70.019 0z" fill="#E31E24"/><path fill-rule="evenodd" clip-rule="evenodd" d="M0 49.959h140l-5.833 12.954L140 76.291H0l5.833-13.378L0 49.96z" fill="#E31E24"/><path fill-rule="evenodd" clip-rule="evenodd" d="M31.527 69.8H9.009V15.333h-.013V9.489h3.774v5.665h1.727v-3.802h3.774v3.802h1.92V9.49h3.774v1.863h1.727v3.802h2.047V9.49h3.774v5.665h.014V69.8zm1.294-47.565h3.839v5.082h-3.84v-5.082z" fill="#2B2A29" stroke="#2B2A29" stroke-width=".076" stroke-miterlimit="22.926"/><path fill-rule="evenodd" clip-rule="evenodd" d="M34.836 20.541h3.839v5.082h-3.839V20.54z" fill="#2B2A29" stroke="#2B2A29" stroke-width=".076" stroke-miterlimit="22.926"/><path fill-rule="evenodd" clip-rule="evenodd" d="M95.302 62.741l.02.13.018.13.016.133.014.134.012.135.01.137.008.138.006.14.004.14.002.141v.138l-.001.036-.001.035-.001.034-.001.034-.002.033-.001.033-.002.033-.001.032-.002.032-.002.03-.002.031-.002.03-.003.03-.002.03-.003.028-.002.028-.003.028-.003.027-.003.026-.003.027-.004.025-.003.025-.004.025-.003.024-.004.024-.004.023-.003.022-.004.023-.005.023-.004.023-.005.023-.005.023-.005.023-.005.023-.005.024-.006.023-.005.024-.006.024-.007.023-.006.024-.006.024-.007.025-.005.019-.033-.001-.075-.005-.075-.007-.074-.011-.074-.014-.074-.018-.073-.02-.074-.024-.073-.027-.073-.03-.074-.034-.073-.037-.074-.04-.074-.044-.074-.048-.074-.052-.074-.055-.075-.058-.075-.063-.075-.067-.075-.07-.031-.032-.01-.002c-1.464-1.325-1.996-4.273-1.248-6.063h.002c.145.05.704.11 1.605 1.168l.09.105.036.051.066.097.064.1.064.102.063.105.06.106.059.107.056.108.054.108.053.11.05.11.049.112.046.113.044.114.043.114.04.116.04.117.036.118.035.12.033.12.03.122.03.123.027.124.026.125.023.127.022.128zm31.626.569l.053.047.052.048.052.05.049.051.049.053.048.054.047.055.045.057.045.06.043.059.042.061.041.062.039.064.038.064.036.066.036.067.034.069.032.07.031.07.03.072.029.074.027.075c.268.585.452 2.093.451 2.334v.022l-1.303-.007-.046-3.697zm-32.156-9.466l-.094-.066-.094-.06-.095-.058-.095-.053-.095-.048-.096-.044-.096-.04-.097-.034-.097-.03-.097-.026-.097-.02-.097-.017-.098-.012-.098-.007-.1-.002-.087.003-.09.01-.09.017-.09.023-.09.03-.089.036-.088.042-.089.048-.088.054-.088.059-.087.065-.087.07-.087.075-.087.082-.087.086-.087.091-.087.097-.087.102-.087.107-.087.112-.088.118-.088.122-.088.128-.088.133-.088.139-.089.143-.09.149-.089.153-.09.16-.09.164-.09.17-.093.175-.09.179-.088.18-.086.182-.082.183-.08.183-.076.185-.074.185-.07.186-.069.188-.065.188-.062.189-.059.19-.056.19-.053.192-.05.192-.048.194-.044.194-.042.195-.038.196-.036.197-.032.197-.03.199-.027.199-.024.2-.02.2-.018.202-.015.202-.012.203-.009.204-.006.205-.003.205v.204l.002.168.004.169.008.169.011.168.015.167.017.167.02.166.025.165.026.164.03.164.034.163.036.162.04.161.043.16.046.16.049.159.052.157.055.157.058.156.062.155.064.154.067.153.07.153.074.151.077.15.08.15.082.148.085.148.089.146.092.146.035.054.038.087.074.16.078.16.08.158.084.156.086.156.09.154.092.153.096.153.098.15.1.149.1.143.1.139.098.134.097.13.097.126.096.123.096.118.095.114.095.11.094.106.094.102.094.098.093.094.093.09.093.086.093.082.093.077.093.074.093.07.093.065.093.06.094.057.094.052.094.047.095.042.096.038.095.032.097.027.097.022.097.015.098.01.1.003.104-.005.106-.014.104-.022.103-.03.102-.039.1-.045.098-.052.097-.058.095-.064.094-.07.093-.075.093-.08.091-.086.091-.09.091-.097.09-.1.091-.106.09-.111.092-.116.09-.121.091-.126.092-.132.092-.136.092-.141.093-.147.093-.152.094-.157.095-.162.095-.167.096-.172.097-.178.098-.184.098-.19.095-.19.093-.19.089-.191.087-.192.083-.192.08-.193.078-.193.074-.194.072-.194.068-.194.065-.195.062-.196.06-.196.055-.196.053-.197.05-.197.046-.198.044-.198.04-.2.037-.198.034-.2.03-.2.028-.2.024-.2.021-.2.009-.094.023.144.031.178.035.177.037.177.04.177.043.176.046.177.05.176.051.176.055.176.058.176.06.175.064.175.067.175.069.175.072.175.075.174.078.174.081.174.083.174.087.173.089.174.092.172.092.17.091.163.091.158.089.153.051.087.046.096.09.179.092.179.094.177.095.173.093.167.092.162.092.157.09.152.09.148.09.142.088.138.088.133.088.128.087.123.087.118.086.114.086.11.085.104.086.1.086.095.086.09.086.086.086.081.087.076.088.071.089.066.09.061.091.056.093.05.095.043.096.037.098.03.1.022.101.013.111.005.086-.007.071-.01.07-.014.069-.019.069-.022.067-.026.066-.028.066-.032.065-.035.065-.037.064-.04.064-.042.064-.046.064-.047.063-.05.064-.053.063-.055.064-.057.064-.06.064-.062.065-.064.065-.067.065-.07.066-.071.066-.074.067-.077.067-.079.068-.081.069-.084.069-.087.069-.088.071-.092.072-.096.072-.097.071-.1.07-.1.07-.103.069-.105.068-.105.068-.108.067-.11.066-.11.066-.112.065-.114.065-.115.063-.118.064-.118.062-.12.062-.122.061-.124.061-.125.06-.127.059-.128.059-.13.058-.13.057-.133.057-.135.057-.136.055-.137.055-.14.054-.14.054-.142.053-.144.28-.772-1.684-1.756-.173.315-.767-.8-.271.492-.067.123-.065.118-.063.114-.06.11-.059.107-.056.102-.054.098-.052.095-.05.09-.047.086-.046.082-.043.078-.041.075-.038.07-.037.066-.034.062-.032.058-.03.055-.01.018-.028-.037-.06-.084-.059-.088-.059-.09-.059-.093-.059-.096-.058-.1-.057-.102-.057-.105-.057-.108-.056-.112-.056-.114-.055-.118-.055-.121-.054-.124-.053-.123-.05-.123-.049-.123-.047-.121-.045-.121-.044-.12-.041-.12-.04-.12-.038-.118-.036-.118-.035-.117-.032-.117-.031-.116-.03-.115-.027-.115-.026-.114-.023-.113-.023-.113-.02-.112-.019-.112-.017-.11-.016-.11-.014-.11-.012-.11-.01-.108-.009-.108-.007-.108-.006-.107-.004-.106-.002-.107-.001-.108v-.072l.001-.037v-.038l.001-.038.001-.037.001-.038.001-.037.001-.038.001-.038.002-.038.002-.038.002-.037.002-.038.002-.038.003-.038.002-.038.003-.038.003-.039.003-.038.003-.038.003-.039.004-.038.003-.038.004-.039.004-.038.004-.039.004-.038.005-.039.004-.038.005-.039.005-.038.005-.037.005-.035.005-.035.005-.035.005-.034.006-.034.006-.033.005-.033.001-.003.066.032.07.034.068.036.067.037.065.038.064.039.062.04.06.04.059.043.058.043.056.044.055.045.053.046.052.047.05.048.049.05.048.05.047.05.045.053.044.053.043.054.041.055.04.056.04.057.041.063.044.07.047.073.045.07.044.069.042.065.041.064.04.061.038.06.038.056.036.055.034.052.034.05.032.048.031.046.03.044.028.042.028.04.027.038.025.036.025.034.024.033.024.031.023.03.023.03.024.029.025.03.028.03.034.035.044.04.065.051.112.064.154.037.126-.008.078-.015.072-.023.066-.028.061-.031.056-.035.052-.037.049-.039.047-.04.044-.042.042-.043.042-.045.04-.045.039-.048.039-.049.038-.05.038-.052.039-.054.038-.056.038-.057.038-.06.039-.06.039-.064.039-.065.039-.068.04-.07.041-.07.041-.074.041-.076.042-.078.042-.08.043-.082.042-.08.04-.078.038-.076.038-.075.036-.072.036-.07.034-.07.032-.066.032-.065.031-.064.029-.061.028-.06.027-.059.026-.057.025-.055.024-.054.022-.052.022-.052.021-.05.02-.049.018-.049.018-.047.018-.048.016-.048.016-.05.015-.05.014-.053.014-.057.013-.064.012-.072.004-.04.018.04.039.088.039.088.037.088.038.088.036.088.037.087.035.088.035.087.034.087.034.087.033.086.033.087.032.086.032.086.03.086.031.086.029.086.03.085.028.086.028.085.028.085.026.084.027.085.025.084.025.084.025.084.024.084.023.084.023.084.022.083.114.436.315-.073.025.077.027.082.026.082.025.082.025.081.024.081.023.082.024.08.022.081.022.08.021.08.205.787 2.483-.57-.28-1.014-.009-.032-.008-.031-.009-.03-.008-.031-.008-.03-.007-.031-.008-.03-.007-.029-.007-.029-.007-.029-.007-.028-.007-.029-.006-.027-.007-.028-.006-.027-.006-.027-.005-.027-.006-.027-.006-.026-.005-.025-.005-.026-.005-.025-.005-.025-.004-.024-.005-.024-.004-.024-.004-.024-.004-.023-.004-.023-.003-.023-.004-.022-.003-.024-.004-.024-.003-.024-.003-.023-.004-.022-.003-.022-.002-.022-.003-.02-.003-.021-.002-.02-.002-.02-.003-.018-.002-.019-.002-.017-.002-.018-.001-.016-.002-.016-.001-.015-.001-.015-.001-.014-.002-.013-.001-.013v-.013l-.001-.011-.001-.01v-.02l-.001-.008v-.089l.002-.062.002-.06.003-.058.005-.056.005-.055.005-.052.007-.05.007-.05.008-.046.009-.046.009-.043.01-.042.011-.04.011-.038.012-.037.012-.035.012-.035.014-.032.014-.032.014-.03.015-.03.015-.029.016-.027.017-.027.018-.027.018-.026.019-.025.02-.024.021-.025.022-.023.023-.024.025-.023.026-.024.028-.023.029-.023.03-.023.033-.022.033-.022.036-.021.037-.022.039-.02.04-.02.042-.02.044-.019.045-.018.047-.018.049-.017.017-.005v.062l-.004.145-.004.147-.004.142-.004.138-.003.133-.004.128-.003.124-.003.119-.003.114-.003.11-.003.105-.003.1-.002.096-.002.091-.003.086-.002.082-.002.077-.002.072-.002.068-.001.063-.002.058-.001.054-.001.05-.001.044-.001.04-.001.035-.001.03-.001.027v.039l-.001.014v.155l-.002.034-.001.035-.001.036-.001.036-.002.037-.001.038-.001.039v.04l-.001.04-.001.04-.001.042v.043l-.001.043v.045l-.001.045v.494l.001.054v.11l.001.056V62l.001.058.001.057.001.108.001.058v.053l.001.098.001.055.001.054v.09l.001.047v.045l.001.044v.085l.001.04v.118l.001.037v.137l.001.032v.147l-.001.016-.002.02-.001.022-.001.022-.002.023-.001.023-.001.024-.001.024-.001.025-.001.025-.001.026-.001.027-.001.027-.001.028-.001.028v.03l-.001.03-.001.03v.03l-.001.032v.065l-.001.034v.069l-.001.035v1.439l.001.15.001.146.001.142.001.137.002.133.001.13.003.125.002.12.002.118.003.113.003.108.003.105.004.1.004.097.004.093.004.09.005.084.005.081.005.077.005.074.006.07.006.066.007.063.007.06.007.057.008.055.009.052.011.052.012.051.013.049.014.042.013.038.015.038.016.037.018.036.018.035.019.035.021.033.021.032.023.031.024.03.024.028.026.027.026.025.027.024.028.022.029.02.029.02.029.017.03.016.03.014.03.013.031.012.031.01.024.007.001.011.007.072.007.07.008.068.009.067.01.065.011.066.013.067.017.072.02.07.019.06.019.053.021.052.022.052.024.051.026.05.028.05.029.048.032.046.032.044.034.043.036.04.037.04.037.035.039.034.04.032.04.03.041.026.041.024.041.022.042.02.041.018.042.015.042.014.041.011.042.01.041.008.041.006.041.005.041.003.04.002h1.365l.046-.002.032-.002.031-.003.031-.003.03-.002.03-.003.03-.004.029-.003.029-.004.028-.003.028-.004.028-.004.028-.005.027-.004.027-.005.027-.005.027-.005.026-.006.026-.006.026-.006.025-.007.026-.006.025-.008.025-.007.025-.008.025-.008.025-.01.025-.008.025-.01.025-.01.025-.012.032-.015.044-.024.049-.03.048-.036.046-.04.043-.041.042-.045.038-.048.036-.05.033-.05.03-.052.027-.053.025-.052.022-.053.02-.053.018-.052.016-.052.015-.052.013-.051.011-.051.01-.05.009-.05.007-.05.007-.05.006-.05.005-.05.004-.05.003-.049.003-.05.002-.05.002-.05v-.05l.001-.087-.004-.057-.001-.017-.001-.024-.002-.032-.001-.037-.002-.043-.002-.05-.002-.054-.002-.06-.002-.066-.002-.07-.003-.076-.002-.081-.003-.087-.002-.091-.003-.097-.003-.102-.003-.107-.003-.112-.003-.117-.003-.123-.003-.127-.003-.133-.004-.138-.003-.143-.004-.148-.004-.153-.003-.158-.004-.164-.004-.168-.004-.174-.004-.179-.004-.18-.004-.175-.004-.172-.004-.17-.003-.164-.004-.162-.003-.158-.003-.154-.003-.151-.003-.148-.003-.143-.003-.14-.002-.137-.002-.133-.003-.13-.002-.125-.002-.122-.002-.119-.001-.115-.002-.111-.001-.108-.002-.104-.001-.101-.001-.097-.001-.093-.001-.09-.001-.086v-.083l-.001-.078v-.43l-.015-.036.002-.046.001-.057.002-.063.002-.068.002-.072.002-.077.002-.082.003-.087.002-.092.003-.096.003-.102.002-.106.004-.111.003-.116.003-.12.004-.127.003-.13.004-.135.004-.14.004-.145.004-.166v-1.033l.001-.033v-.106l.001-.037v-.078l.001-.04v-.04l.001-.043.001-.043v-.025l.042.004.07.006.068.007.067.009.064.009.064.01.061.011.06.013.057.013.057.013.054.015.053.016.05.016.05.017.047.018.045.018.044.019.042.02.027.013.002.022.004.067.004.068.003.07.002.071v.134l-.001.02-.001.021v.021l-.001.021-.001.021-.001.021-.001.022-.002.021-.001.021-.002.022-.002.022-.002.022-.002.022-.002.022-.002.022-.003.022-.002.022-.003.023-.003.023-.003.023-.003.023-.003.022-.004.024-.003.023-.004.023-.004.024-.004.023-.004.024-.004.024-.005.024-.004.025-.005.024-.005.025-.005.025-.005.024-.005.025-.005.025-.006.025-.005.025-.006.025-.005.025-.006.025-.006.025-.006.025-.006.025-.006.025-.006.026-.007.025-.006.025-.007.026-.007.025-.006.025-.007.026-.007.026-.007.025-.008.026-.007.025-.007.026-.008.026-.008.026-.157.526.915.21-.005.02-.006.024-.007.024-.007.023-.006.025-.007.023-.007.024-.007.024-.007.024-.308 1.025 2.516.577.196-.803.02-.08.021-.08.021-.08.022-.08.022-.08.023-.08.024-.08.025-.082.025-.08.025-.082.026-.082.027-.082.028-.082.028-.082.029-.083.029-.082.03-.083.031-.084.031-.083.032-.084.033-.084.033-.084.034-.084.035-.084.035-.085.036-.085.036-.085.037-.086.038-.085.038-.086.041-.088.041-.092.042-.092.04-.09.038-.087-.004.208-.003.24-.004.248-.002.258-.003.266-.002.274-.002.284-.002.291-.001.3-.001.31v.318l-.001.326.001.335v.344l.001.352.001.36v3.943l.001.042.001.041.002.042.002.04.002.04.003.04.003.04.004.04.005.038.005.038.005.039.006.037.007.038.007.037.007.037.008.036.009.036.01.035.01.035.011.035.011.035.012.034.013.033.013.033.015.032.015.032.015.031.017.03.017.03.018.03.019.028.019.028.02.027.021.026.021.025.022.024.022.023.023.022.024.021.024.02.024.02.025.018.025.017.026.016.026.015.026.014.027.013.027.012.019.008.003.03.005.047.006.046.007.047.007.046.008.047.009.046.009.046.011.045.011.046.012.046.013.045.014.046.015.045.016.044.017.044.018.044.019.044.02.043.022.042.022.042.023.04.025.04.026.04.026.038.028.037.029.036.029.035.03.033.031.032.032.03.032.029.033.027.033.026.033.025.034.023.035.021.034.02.035.02.035.016.036.017.035.014.035.013.036.013.035.01.035.01.036.01.036.007.035.007.036.005.035.005.036.004.036.003.035.002h.036l.033.001h5.746l.007.001h.01l.018.002h.011l.012.001h.012l.014.002.042.002.022.001.018.002h.019l.02.002.021.001.022.002.023.001.047.003.025.002.026.001.027.002.027.002.045.002h.111l.014.001h.037l.013.001h.024l.011.001h.024l.011.001h.011l.01.001h.011l.011.001h.01l.02.002h.01l.009.001h.009l.009.001.009.001h.009l.01.002h.011l.011.002h.012l.012.002h.012l.012.001.012.001.012.001h.012l.012.002h.012l.012.001h.012l.012.001h.012l.012.001h.012l.012.001h.012l.012.001h.025l.012.001h.061l.013.001h.092l.054-.001.053-.002.053-.002.052-.003.051-.004.051-.004.049-.005.05-.006.048-.007.048-.007.047-.009.047-.009.046-.01.045-.011.046-.013.045-.013.044-.015.044-.016.044-.017.044-.019.043-.02.044-.023.043-.024.043-.027.043-.029.043-.031.043-.035.043-.038.042-.04.041-.045.038-.046.032-.042.029-.04.028-.04.026-.043.026-.043.024-.044.023-.045.023-.046.021-.047.019-.047.019-.047.018-.048.016-.05.015-.048.015-.049.013-.05.012-.05.011-.05.01-.05.01-.05.008-.05.008-.051.007-.05.006-.052.005-.051.004-.051.004-.052.003-.05.002-.052.002-.052v-.052l.001-.052-.001-.093-.001-.094-.003-.093-.003-.093-.005-.093-.006-.093-.006-.092-.008-.092-.009-.093-.01-.092-.01-.092-.012-.091-.013-.092-.014-.091-.015-.091-.016-.091-.017-.09-.018-.091-.019-.09-.02-.09-.021-.09-.022-.09-.023-.088-.024-.09-.025-.088-.026-.088-.027-.088-.027-.088-.029-.087-.03-.088-.031-.086-.032-.087-.033-.086-.033-.086-.035-.085-.035-.085-.037-.084-.037-.083-.038-.082-.039-.082-.04-.081-.04-.08-.042-.08-.042-.08-.043-.078-.044-.077-.045-.077-.046-.076-.046-.075-.048-.075-.048-.074-.049-.073-.05-.072-.05-.071-.052-.071-.052-.07-.053-.07-.054-.068-.055-.068-.055-.067-.056-.066-.057-.066-.058-.065-.063-.068-.057-.06-.054-.053-.055-.054-.056-.052-.056-.051-.057-.051-.057-.05-.059-.05-.059-.047-.059-.048-.061-.046-.061-.046-.061-.045-.063-.044-.063-.043-.063-.043-.065-.042-.065-.04-.065-.04-.067-.04-.067-.038-.067-.038-.069-.037-.068-.037-.07-.035-.07-.035-.057-.027-.015-.012-.056-.044-.057-.044-.057-.043-.058-.043-.059-.041-.06-.041-.06-.04-.061-.04-.061-.038-.063-.039-.063-.037-.063-.037-.065-.036-.065-.035-.065-.034-.067-.034-.067-.033-.068-.033-.068-.032-.069-.03-.07-.031-.07-.03-.072-.029-.072-.028-.073-.028-.074-.027-.075-.026-.076-.026-.077-.025-.077-.024-.079-.024-.08-.023-.08-.022-.082-.022-.082-.02-.083-.02-.084-.02-.033-.008.001-.035.001-.042.001-.042.001-.042.002-.043.001-.042.002-.043.001-.042.002-.042.001-.042.002-.042.002-.042.001-.041.002-.042.002-.041.002-.042.002-.04.002-.041.002-.041.002-.042.002-.04.002-.04.002-.04.002-.041.003-.04.002-.04.002-.04.003-.04.002-.04.003-.04.002-.039.003-.04.002-.038.003-.04.004-.055.003-.086.003-.067.003-.067.003-.066.003-.065.004-.064.004-.064.004-.063.003-.063.005-.062.004-.06.004-.061.005-.06.005-.059.005-.058.005-.057.005-.057.005-.056.006-.056.006-.054.006-.054.006-.054.006-.052.006-.052.006-.051.007-.05.006-.05.007-.049.007-.048.007-.047.007-.047.008-.048.008-.05.008-.05.008-.048.007-.047.008-.045.006-.045.007-.042.007-.042.006-.04.006-.04.006-.037.005-.036.006-.035.005-.033.004-.032.005-.031.004-.03.004-.029.004-.027.004-.026.003-.026.004-.024.003-.023.002-.023.003-.023.003-.022.002-.022.002-.023.002-.026.003-.029.001-.036.003-.1-.011-.095-.003-.022-.002-.022-.004-.023-.003-.022-.004-.023-.003-.022-.004-.023-.005-.023-.004-.023-.005-.023-.006-.024-.005-.023-.006-.024-.006-.023-.007-.024-.007-.024-.008-.024-.008-.024-.008-.024-.008-.024-.01-.024-.009-.024-.011-.025-.01-.024-.011-.024-.012-.025-.013-.024-.013-.024-.014-.024-.014-.024-.017-.027-.026-.038-.028-.038-.029-.037-.031-.035-.03-.032-.031-.03-.031-.029-.032-.026-.031-.025-.032-.022-.031-.021-.032-.02-.031-.018-.032-.017-.031-.016-.129-.059h-.387l-.046.006-.013.002-.012.001-.013.002-.013.001-.013.002-.013.001-.013.002h-.002l-.003-.017-.004-.017-.003-.017-.004-.017-.005-.017-.004-.016-.005-.017-.005-.017-.005-.017-.005-.016-.006-.017-.006-.016-.006-.016-.007-.017-.007-.016-.007-.016-.007-.016-.008-.016-.008-.016-.009-.015-.008-.016-.01-.015-.01-.017-.017-.025-.019-.026-.02-.024-.02-.023-.02-.022-.021-.02-.022-.02-.022-.018-.022-.018-.022-.016-.023-.015-.023-.014-.023-.014-.023-.012-.024-.012-.072-.033h-.316l-.029.004-.014.002-.013.001-.014.002-.013.001-.014.002-.014.001-.013.002-.014.001-.014.002-.014.001-.014.002-.014.001-.014.002h-.014l-.015.002-.014.002h-.014l-.015.002-.014.001-.015.001-.015.002h-.014l-.015.002-.015.001-.015.001-.015.001-.015.001-.015.001-.016.001-.015.001-.015.001h-.016l-.015.002h-.016l-.016.001-.015.001h-.016l-.016.002h-.016l-.016.001h-.016l-.016.001h-.016l-.017.001h-.016l-.017.001h-.016l-.016.001h-.034l-.017.001h-.033l-.017.001h-.086l-.017.001h-.117l-.008-.001h-.018l-.009-.001h-.019l-.009-.001h-.01l-.011-.001h-.01l-.011-.001h-.011l-.011-.001h-.012l-.011-.001-.012-.001h-.012l-.013-.002h-.012l-.013-.001-.013-.001-.024-.002h-.017l-.014-.002h-.013l-.014-.001-.013-.001h-.013l-.013-.002h-.012l-.012-.001-.013-.001h-.012l-.011-.001h-.012l-.011-.001h-.011l-.011-.001h-.021l-.011-.001h-.01l-.01-.001h-.029l-.009-.001h-.064l-.052.001-.056.006-.056.01-.055.015-.054.02-.053.023-.053.028-.05.033-.049.036-.048.04-.045.045-.043.048-.041.05-.039.054-.037.057-.034.06-.033.06-.03.064-.029.066-.027.068-.025.07-.024.073-.022.074-.006.022-.001-.002-.02-.032-.021-.031-.021-.031-.021-.03-.022-.03-.022-.03-.023-.029-.023-.028-.024-.028-.025-.027-.025-.027-.026-.026-.026-.025-.027-.024-.028-.024-.028-.023-.028-.022-.03-.022-.03-.02-.03-.02-.031-.017-.031-.018-.032-.016-.032-.015-.033-.013-.033-.013-.033-.011-.033-.01-.034-.009-.034-.007-.034-.006-.064-.009-.063.001-.035.003-.038.004-.041.008-.046.012-.01.003-.013-.027-.014-.028-.014-.028-.015-.027-.015-.027-.016-.027-.016-.026-.016-.026-.017-.026-.017-.024-.017-.025-.017-.023-.018-.023-.018-.023-.018-.022-.019-.022-.018-.02-.02-.021-.019-.02-.02-.019-.021-.019-.02-.017-.021-.018-.021-.016-.022-.016-.022-.015-.022-.014-.023-.013-.023-.013-.023-.011-.023-.011-.024-.01-.024-.009-.024-.008-.024-.007-.024-.006-.024-.006-.025-.004-.04-.006-.036.001-.023.002-.024.002-.025.005-.027.007-.029.01-.007.003-.011.003-.015.003-.018.003-.02.004-.023.004-.025.005-.028.005-.03.006-.033.006-.035.006-.037.006-.04.008-.042.007-.044.008-.047.008-.049.008-.052.01-.054.008-.056.01-.058.01-.061.01-.064.011-.065.011-.068.012-.07.012-.073.012-.074.013-.021.003-.022.004-.022.003-.022.003-.022.004-.022.003-.023.003-.023.003-.023.003-.023.003-.024.003-.024.003-.024.003-.024.003-.025.002-.024.003-.025.003-.025.002-.026.003-.026.002-.025.003-.026.002-.027.002-.026.003-.027.002-.027.002-.027.002-.028.002-.028.002-.027.002-.029.002-.028.002-.029.002-.03.001-.034.002-.035.001-.038.002-.04.001-.042.002-.044.001-.047.002h-.048l-.051.002-.053.001-.055.001-.058.001-.059.001-.062.001-.063.001-.066.001h-.068l-.07.002h-.147l-.077.001h-.078l-.081.001h-.168l-.087.001h-5.126l-.082-.001h-.08l-.077-.001h-.076l-.073-.001-.071-.001-.069-.001h-.066l-.065-.002h-.062l-.06-.002h-.058l-.056-.002-.053-.001-.052-.001-.049-.002h-.047l-.044-.002-.043-.002-.04-.001-.038-.002-.035-.001-.034-.002-.03-.001-.029-.002-.028-.002-.029-.002-.027-.002-.028-.002-.028-.002-.027-.002-.027-.002-.027-.002-.026-.003-.027-.002-.026-.002-.025-.003-.026-.002-.026-.003-.025-.002-.025-.003-.024-.003-.025-.002-.024-.003-.024-.003-.024-.003-.024-.003-.023-.003-.023-.003-.023-.003-.023-.003-.022-.003-.022-.004-.022-.003-.022-.004-.021-.003-.022-.003-.074-.013-.073-.012-.07-.012-.068-.011-.066-.011-.063-.011-.061-.01-.059-.01-.056-.01-.054-.009-.052-.008-.049-.008-.047-.008-.045-.008-.042-.007-.04-.006-.038-.007-.036-.005-.033-.006-.03-.005-.029-.005-.026-.004-.024-.004-.025-.004-.038-.047-.154.003-.027.002-.026.002-.027.004-.026.005-.026.006-.026.007-.026.008-.026.01-.025.01-.025.011-.025.013-.025.013-.024.015-.024.015-.023.017-.023.017-.023.018-.022.019-.022.02-.021.02-.021.022-.02.022-.021.023-.019.023-.019.024-.019.025-.018.026-.018.026-.018.026-.017.028-.017.027-.016.028-.015.028-.016.029-.014.028-.014.03-.014.029-.013.03-.013.03-.012.03-.012.03-.011.031-.011.031-.01.032-.009.032-.009.032-.009.032-.007.033-.007.033-.007.033-.006.033-.005.034-.005.033-.004.034-.003.034-.003.034-.002.034-.001.034-.001.034v.068l.001.034.001.02.001.036.003.054.005.055.006.055.007.054.009.056.011.055.012.057.012.058.015.058.015.06.017.06.01.036-.059-.065-.062-.064-.064-.064-.066-.064-.068-.064-.071-.065-.073-.064-.076-.065-.078-.065-.081-.066-.083-.066-.086-.066-.088-.067-.092-.067-.093-.069-.097-.068-.096-.067-.093-.066-.093-.063-.09-.06-.089-.06-.088-.057-.086-.055-.084-.053-.083-.052-.081-.049-.08-.047-.078-.046-.076-.043-.076-.042-.074-.04-.003-.001-.076-.053-.091-.062-.089-.06-.087-.058-.086-.056-.083-.053-.083-.052-.08-.05-.079-.048-.077-.046-.076-.044-.073-.042-.073-.04-.07-.037-.069-.036-.068-.034-.066-.032-.065-.03-.063-.027-.061-.026-.061-.024-.059-.022-.057-.02-.057-.017-.055-.016-.054-.013-.053-.011-.053-.01-.052-.006-.051-.004-.052-.001-.078.003-.081.01-.08.016-.08.023-.08.029-.079.034-.079.04-.079.046-.078.05-.078.056-.077.061-.078.066-.077.07-.077.077-.078.08-.077.085-.078.09-.077.095-.078.1-.079.103-.078.11-.079.113-.08.118-.08.124-.08.128-.081.133-.081.137-.082.143-.082.147-.083.152-.084.157-.084.162-.083.165-.082.166-.078.165-.076.165-.074.166-.07.165-.069.165-.065.166-.063.165-.06.165-.058.165-.055.165-.053.165-.05.166-.047.165-.044.165-.042.165-.04.165-.036.165-.034.165-.031.165-.029.165-.026.164-.023.165-.02.165-.009.077-.013-.095-.03-.18-.032-.18-.035-.178-.038-.176-.042-.176-.044-.174-.047-.172-.05-.17-.053-.17-.055-.168-.06-.166-.06-.165-.065-.163-.068-.162-.07-.16-.073-.158-.076-.156-.079-.155-.081-.153-.084-.152-.087-.15-.09-.147-.092-.146-.092-.141-.093-.136-.093-.133-.093-.129-.094-.124-.094-.121-.095-.117-.095-.113-.096-.11-.097-.104-.097-.101-.098-.097-.098-.093-.1-.088-.1-.085-.1-.08-.102-.076-.102-.071-.103-.067-.104-.063-.104-.058-.105-.053-.106-.048-.107-.044-.07-.025-.082-.074-.093-.078-.093-.074-.093-.07h.001zM75.773 60.02l-.08.105-.008.01-.008.01-.009.01-.008.01-.008.009-.008.01-.009.008-.008.01-.01.008-.008.009-.009.008-.009.009-.009.008-.009.008-.01.008-.008.007-.01.008-.01.007-.01.007-.009.008-.01.007-.01.006-.01.007-.01.006-.01.007-.011.006-.01.006-.012.006-.01.006-.012.006-.011.005-.013.006-.012.006-.013.006-.012.005-.012.005-.012.005-.012.005-.011.005-.012.004-.011.004-.01.004-.012.004-.01.003-.01.003-.01.003-.01.003-.01.003-.01.002-.008.002-.01.002-.008.002-.009.002-.008.001-.008.002h-.008l-.007.002h-.008l-.006.001h-.007l-.007.001h-.016l-.066.002h-.06l-.033-.001-.004-.004-.046-.043-.047-.04-.048-.039-.049-.035-.05-.034-.05-.03-.05-.03-.052-.026-.053-.024-.052-.022-.053-.02-.054-.017-.053-.016-.054-.014-.055-.012-.054-.01-.055-.009-.056-.007-.023-.002-.026-.045-.027-.045-.03-.044-.03-.041-.031-.04-.033-.04-.034-.037-.035-.035-.035-.033-.037-.032-.038-.03-.039-.028-.04-.027-.04-.024-.04-.023-.042-.022-.042-.02-.043-.017-.044-.017-.044-.014-.045-.014-.046-.011-.046-.01-.047-.01-.047-.007-.048-.005-.048-.005-.05-.003-.05-.002-.05-.001h-.042l-.043.003-.044.003-.043.005-.045.005-.044.007-.046.008-.045.01-.046.01-.047.012-.047.013-.048.014-.048.014-.048.017-.05.017-.05.018-.05.02-.05.02-.052.022-.052.023-.052.024-.053.024-.054.026-.018.01.007-.06.015-.126.015-.122.017-.118.016-.113.017-.11.017-.104.018-.1.018-.096.02-.091.018-.087.019-.081.019-.077.02-.072.018-.068.02-.064.02-.062.02-.058.02-.055.021-.052.021-.049.02-.046.021-.042.02-.04.02-.036.02-.034.02-.031.02-.029.02-.025.018-.024.019-.021.018-.02.018-.017.017-.016.018-.015.018-.013.018-.011.018-.011.018-.01.02-.009.019-.008.02-.006.023-.006.022-.005.025-.004.014-.002.023.029.033.04.035.045.038.047.04.05.044.053.045.057.048.06.05.063.053.066.056.069.058.072.06.076.123.154.073.09.07.089.073.091.075.094.078.099.029.035.029.036.03.035.028.035.03.035.029.034.029.033.029.033.03.033.028.032.03.032.029.03.029.031.029.03.029.03.03.029.028.028.03.028.029.028.029.027.03.027.029.026.029.025.03.025.029.025.03.023.029.024.03.023.03.022.029.022.03.021.03.022.032.02.031.021.032.02.032.019.033.019.032.017.033.018.033.016.033.017.034.015.033.014.034.014.034.014.034.012.033.012.035.011.034.01.035.01.034.01.035.008.035.008.035.007.035.006.035.006.035.005.035.005.035.003.036.003.035.003.036.001.035.001h.072l.035-.001.036-.002.036-.002.02-.002h.001zm1.982 1.504l-.739-1.32-.459.6-.469-.838.028-.007.037-.01.037-.01.037-.012.037-.011.038-.012.037-.013.038-.014.038-.013.038-.015.038-.015.038-.015.039-.016.039-.017.039-.017.039-.018.039-.018.04-.019.04-.02.039-.02.04-.02.04-.02.04-.022.04-.021.039-.022.039-.023.04-.023.038-.023.04-.023.039-.024.039-.025.038-.025.04-.025.038-.026.038-.026.04-.026.037-.027.039-.027.038-.028.038-.028.038-.029.038-.028.038-.03.026-.02v.057l-.003.173-.002.177-.001.18-.001.185-.001.188-.001.192v1.289zm-5.308 2.414l.01.002.012.002.012.002.01.003.012.002.011.003.011.003.011.003.011.003.011.003.012.004.01.003.011.004.012.004.011.005.011.004.01.005.012.004.011.005.011.005.01.006.012.005.011.006.012.007.013.007.014.007.014.009.015.008.015.01.016.01.017.01.017.012.018.011.019.013.019.013.02.014.02.014.02.014.021.016.022.016.022.016.023.017.023.018.024.018.024.019.025.02.025.02.026.02.026.02.027.023.027.022.027.022.028.024.028.023.038.032.039.033.038.032.038.032.037.03.036.03.035.029.035.028.034.027.033.027.033.026.032.025.032.024.03.024.03.023.03.022.03.021.028.02.028.02.028.02.027.019.027.018.026.017.026.017.026.017.026.015.026.016.027.014.027.014.027.014.028.013.027.013.023.009.02.008.02.008.021.007.021.007.02.007.021.006.02.007.022.005.02.006.021.006.021.005.022.005.02.004.021.004.022.005.021.003.021.004.021.003.021.003.022.003.021.002.021.003.022.002.021.001.022.002.021.001.022.001.022.001h.053l.029.002h.048l.048-.001.049-.004.047-.005.048-.006.048-.009.047-.01.048-.012.047-.013.046-.014.047-.016.046-.018.046-.019.046-.02.046-.022.045-.022.045-.025.045-.025.044-.026.045-.028.044-.029.044-.03.044-.03.044-.033.044-.033.044-.034.044-.036.043-.036.044-.038.043-.038.043-.04.043-.04.043-.04.043-.043.043-.042.043-.044.043-.045.043-.046.043-.046.044-.048.043-.049.044-.05.044-.05.044-.052.044-.052.044-.054.045-.055.045-.055.044-.057.046-.057.045-.059.045-.059.046-.06.045-.062.046-.062.046-.064.047-.064.047-.066.046-.066.047-.067.03-.044.002.168.002.284.003.274.003.265.003.256.004.247.003.237.004.228.005.219.004.21.005.2.006.19.005.182.006.172.006.163.007.155.006.145.007.136.008.127.008.119.008.11.008.101.01.094.009.086.01.079.011.072.013.07.013.069.014.067.016.066.017.064.018.063.02.062.021.06.023.059.025.057.026.055.027.054.03.052.03.05.034.049.035.045.036.044.038.04.04.038.041.036.043.032.044.029.045.026.034.016.014.078.015.08.017.08.019.077.02.077.022.077.025.075.026.075.029.073.03.073.034.07.035.07.039.068.041.066.044.064.047.062.049.058.052.056.054.051.056.048.058.044.06.04.061.035.063.03.063.027.063.022.064.017.064.013.064.01.063.004.057.002h1.357l.032-.001.032-.001.031-.001.031-.002.031-.001.03-.003.03-.002.03-.003.03-.003.03-.003.028-.004.029-.004.029-.004.028-.005.028-.005.028-.006.028-.006.028-.006.028-.007.027-.008.028-.008.027-.009.028-.01.028-.01.027-.01.028-.012.028-.013.028-.014.029-.015.034-.02.042-.026.046-.034.045-.038.042-.04.04-.042.037-.045.034-.046.032-.048.03-.048.027-.049.025-.05.022-.049.02-.049.02-.05.017-.048.015-.05.014-.048.013-.048.011-.049.01-.048.01-.048.009-.048.007-.047.007-.048.006-.048.006-.048.004-.048.005-.049.003-.049.003-.048.003-.05.003-.072v-.056l-.001-.038-.001-.037-.002-.04-.002-.042-.002-.046-.002-.049-.003-.052-.003-.056-.004-.06-.003-.064-.004-.068-.005-.072-.005-.076-.005-.08-.005-.083-.006-.088-.006-.092-.006-.096-.007-.1-.007-.104-.008-.108-.008-.113-.008-.116-.008-.12-.01-.126-.008-.128-.01-.133-.01-.137-.01-.142-.01-.145-.011-.149-.011-.15-.01-.147-.01-.147-.01-.145-.01-.145-.009-.144-.009-.143-.008-.142-.008-.14-.008-.14-.007-.14-.007-.137-.007-.138-.006-.136-.006-.135-.005-.134-.006-.133-.004-.132-.005-.13-.004-.13-.004-.13-.004-.128-.003-.127-.003-.126-.002-.125-.003-.125-.001-.123-.002-.122-.001-.121-.001-.12v-.528l.001-.073.001-.072v-.072l.002-.073.001-.072.002-.072.001-.072.002-.071.002-.072.002-.072.002-.071.002-.072.002-.07.003-.072.003-.071.003-.071.003-.071.003-.071.003-.071.004-.07.003-.071.004-.071.004-.07.004-.07.004-.071.004-.07.005-.07.004-.07.005-.07.005-.07.005-.07.005-.069.006-.07.006-.07.005-.07.006-.07.007-.07.006-.07.007-.07.007-.072.007-.07.007-.07.007-.072.008-.07.007-.072.009-.07.008-.072.008-.071.008-.072.01-.071.001-.015h1.311l-.002.056-.003.064-.003.066-.003.066-.002.068-.003.069-.002.07-.003.072-.002.073-.002.075-.002.075-.002.077-.002.078-.002.08-.001.08-.002.083-.001.084-.002.085-.001.086-.002.087v.09l-.002.09v.09l-.002.094v.094l-.001.095-.001.097v.098l-.001.1v.306l-.001.105v.818l.001.341.001.333.001.322.002.314.001.303.002.295.002.285.003.275.003.266.003.257.003.247.003.238.004.228.004.22.004.209.005.2.005.191.005.182.005.172.006.163.006.154.006.145.007.136.007.126.007.118.007.11.008.1.008.093.01.085.009.077.01.072.012.069.012.068.014.067.015.065.017.064.017.062.02.062.02.06.023.058.024.057.025.055.028.054.03.051.03.05.033.048.034.046.037.043.038.04.04.038.04.035.043.032.044.029.045.025.041.02.013.078.015.079.016.078.018.078.02.077.022.076.023.076.026.075.028.073.03.073.034.07.036.07.038.069.041.066.044.064.047.061.049.059.052.055.054.052.056.047.058.044.06.04.061.034.063.03.063.026.063.022.063.017.064.013.063.009.063.005.056.001h1.39l.032-.002.031-.001.031-.002.031-.001.03-.002.03-.003.03-.002.03-.003.03-.004.029-.003.029-.004.028-.005.029-.004.028-.005.028-.006.028-.006.028-.006.028-.007.027-.008.028-.008.027-.008.028-.01.027-.01.028-.01.027-.01.028-.013.028-.013.028-.014.033-.018.044-.026.047-.033.045-.037.044-.04.041-.043.04-.045.036-.047.033-.05.032-.05.028-.051.026-.052.024-.052.021-.052.02-.052.017-.052.015-.051.014-.052.013-.05.01-.051.01-.05.01-.05.007-.05.007-.05.005-.05.005-.049.004-.05.004-.05.002-.049.002-.05.002-.05v-.471l-.002-.125-.001-.126-.002-.126-.002-.127-.003-.128-.002-.129-.004-.13-.003-.13-.004-.13-.004-.131-.005-.133-.004-.133-.005-.133-.006-.135-.006-.135-.006-.136-.006-.137-.007-.137-.007-.139-.008-.139-.007-.14-.008-.14-.009-.14-.009-.143-.009-.142-.01-.144-.009-.144-.01-.145-.01-.145-.01-.142-.01-.138-.01-.135-.009-.131-.009-.128-.008-.125-.009-.12-.008-.118-.007-.114-.007-.11-.007-.108-.007-.103-.006-.1-.006-.097-.006-.093-.005-.09-.005-.085-.004-.083-.005-.079-.004-.075-.003-.072-.004-.068-.003-.064-.002-.06-.002-.057-.002-.053-.002-.05-.001-.044-.001-.041-.001-.037v-.433l.002-.121.001-.12.002-.119.002-.117.002-.115.003-.113.003-.112.004-.11.003-.109.004-.107.004-.105.005-.103.005-.102.005-.1.005-.099.006-.097.006-.095.006-.093.007-.092.007-.09.007-.089.007-.086.008-.085.008-.084.009-.08.008-.08.009-.079.009-.076.01-.076.01-.08.01-.08.01-.08.01-.077.009-.076.009-.076.009-.074.008-.073.008-.071.008-.07.008-.07.007-.067.007-.067.007-.066.007-.064.006-.063.006-.061.006-.061.005-.06.006-.058.005-.057.004-.056.005-.055.004-.054.004-.053.003-.051.003-.051.003-.05.003-.049.002-.047.002-.047.005-.11-.007-.086-.002-.02-.001-.022-.002-.02-.002-.022-.002-.02-.002-.02-.002-.02-.002-.02-.002-.02-.003-.02-.002-.019-.003-.02-.002-.02-.003-.019-.003-.02-.003-.019-.003-.02-.004-.02-.003-.021-.004-.02-.005-.022-.005-.023-.005-.023-.006-.023-.006-.026-.008-.027-.008-.028-.01-.03-.012-.032-.014-.036-.047-.108-.118-.168-.127-.1-.082-.046-.059-.023-.045-.015-.039-.01-.035-.008-.034-.006-.032-.005-.034-.005-.034-.004-.035-.003-.036-.003-.038-.004-.039-.002-.041-.003-.043-.002-.045-.003-.047-.002-.049-.002-.05-.001-.053-.002-.054-.001v-.011l-.003-.018-.002-.016-.002-.017-.002-.016-.002-.016-.002-.016-.003-.016-.002-.015-.002-.015-.003-.016-.003-.015-.003-.015-.003-.016-.003-.016-.004-.015-.004-.016-.004-.016-.005-.017-.005-.017-.006-.018-.007-.02-.008-.02-.025-.056-.06-.086-.066-.053-.046-.025-.034-.014-.028-.009-.027-.007-.026-.005-.027-.005-.027-.005-.028-.003-.03-.004-.031-.003-.034-.003-.035-.003-.037-.003-.04-.002-.04-.003-.044-.002-.046-.002-.047-.002-.05-.001-.052-.002-.054-.001-.056-.001-.06-.002h-.06l-.063-.001-.065-.001h-.209l-.074-.001h-7.051l-.05.002-.053.006-.054.01-.053.014-.052.02-.051.022-.05.028-.049.031-.047.036-.045.04-.043.043-.04.046-.04.05-.037.051-.034.055-.033.057-.03.059-.03.061-.026.063-.026.066-.024.067-.022.069-.02.07-.02.074-.018.075-.017.076-.016.079-.014.08-.014.084-.012.084-.011.087-.01.089-.01.09-.01.091-.008.096-.008.099-.008.102-.008.106-.007.109-.007.112-.007.117-.003.048-.687-1.085-.4.524-.627-.99-.26.34-.004.005-.004.005-.004.005-.003.004-.004.004-.003.004-.004.004-.003.003-.003.004-.004.003-.003.003-.003.002-.003.003-.003.003-.002.002-.003.002-.002.002-.003.002-.002.001-.002.002-.003.001-.002.002h-.002l-.002.002-.002.001-.002.001h-.001l-.002.002h-.002l-.001.001-.002.001-.004.001-.005.002-.005.002-.005.001-.005.002-.005.001-.005.002h-.005l-.005.002-.005.001-.005.002h-.005l-.005.002h-.006l-.005.002h-.005l-.005.002h-.005l-.006.001-.005.001h-.006l-.005.001h-.005l-.006.001h-.005l-.006.001h-.017l-.005.001h-.071l-.058-.003-.058-.005-.058-.006-.057-.007-.057-.01-.056-.01-.034-.008-.048-.054-.06-.068-.068-.072-.07-.07-.07-.068-.071-.065-.073-.063-.074-.06-.075-.059-.077-.055-.077-.053-.079-.051-.08-.048-.08-.046-.082-.043-.082-.04-.084-.04-.084-.035-.086-.033-.044-.017-.047-.044-.064-.06-.066-.056-.067-.055-.068-.052-.07-.05-.07-.049-.071-.046-.072-.043-.074-.042-.074-.04-.075-.037-.077-.035-.077-.032-.078-.031-.08-.029-.08-.026-.08-.024-.083-.022-.083-.02-.084-.017-.084-.016-.086-.014-.086-.011-.088-.01-.088-.007-.09-.005-.09-.003h-.091l-.13.002-.13.006-.129.01-.127.016-.126.02-.126.024-.123.028-.123.032-.122.038-.12.041-.119.046-.117.05-.117.055-.115.06-.113.063-.113.067-.11.073-.11.076-.107.081-.107.085-.105.09-.103.094-.102.098-.1.102-.1.106-.096.11-.096.115-.094.119-.093.123-.091.127-.09.13-.088.135-.086.138-.083.138-.08.141-.079.143-.076.145-.073.146-.071.149-.069.15-.066.152-.064.154-.061.156-.06.157-.056.16-.053.161-.052.163-.049.165-.047.166-.044.169-.041.17-.04.172-.036.173-.034.175-.032.177-.03.179-.026.18-.025.182-.022.183-.02.186-.017.186-.014.189-.013.19-.009.176v.004l-.002.016v.017l-.002.016-.002.016v.017l-.002.016-.001.016-.001.017-.001.016-.002.016v.017l-.001.016-.001.016-.001.017-.001.016v.017l-.002.016v.032l-.001.017v.016l-.001.017v.016l-.001.017v.065l-.001.016v.133l.001.017v.034l.001.017v.017l.001.018v.017l.001.018v.017l.002.018v.018l.001.018.001.018.001.018.001.019.001.018.001.019.001.018.002.019v.018l.002.02.001.018.001.02.002.018.001.02v.008l.009.203.011.215.014.21.017.209.02.205.022.203.025.2.028.196.031.194.034.19.036.188.04.185.042.182.045.18.048.175.05.173.054.17.057.168.06.164.062.16.065.158.069.155.07.151.075.149.077.145.08.142.082.138.086.135.088.132.043.062.048.115.073.165.076.161.079.159.082.155.086.152.088.148.091.145.095.141.098.138.1.134.104.13.105.126.108.121.11.118.112.113.114.11.117.106.118.101.121.098.123.093.125.09.127.085.129.081.131.078.133.073.135.069.136.064.139.061.14.057.142.053.144.048.146.045.147.04.15.037.15.032.153.03.154.024.156.021.158.017.159.013.16.01.163.005.164.002h.082l.081-.002.08-.004.082-.004.08-.006.08-.007.08-.009.08-.01.079-.01.079-.013.079-.014.078-.015.079-.017.078-.017.078-.02.077-.02.078-.022.076-.023.077-.024.076-.026.077-.027.075-.028.076-.03.075-.031.075-.033.074-.033.075-.035.073-.037.074-.037.073-.04.073-.04.072-.041.072-.042.07-.044.07-.044.07-.045.07-.047.068-.047.068-.049.067-.049.067-.05.067-.052.065-.052.066-.054.064-.055.064-.055.064-.057.062-.058.063-.058.061-.06.061-.06.06-.062.06-.063.06-.063.059-.065.058-.066.057-.066.057-.068.056-.069.056-.069.055-.07.054-.072.053-.072.475-.657-1.23-1.798-.418.4-.633-.926-.29.279-.049.046-.049.046-.048.045-.049.044-.048.043-.048.043-.048.042-.047.04-.048.04-.047.04-.046.038-.047.037-.046.037-.046.035-.045.035-.046.034-.045.034-.045.032-.044.032-.045.03-.044.03-.043.03-.044.028-.043.027-.043.027-.043.025-.042.025-.042.024-.042.024-.041.022-.042.022-.04.02-.042.021-.04.02-.041.019-.041.018-.04.018-.04.017-.04.016-.04.016-.039.014-.039.015-.039.013-.038.013-.039.012-.038.011-.038.011-.037.01-.038.01-.037.008-.037.009-.037.007-.036.007-.037.006-.036.005-.035.005-.036.004-.035.004-.036.002-.035.003-.034.001-.035.001h-.113l-.077-.005-.076-.006-.075-.01-.073-.01-.07-.014-.02-.025-.048-.06-.046-.064-.047-.065-.046-.069-.046-.072-.044-.074-.044-.076-.043-.077-.04-.08-.04-.08-.037-.08-.037-.083-.035-.084-.033-.086-.032-.087-.03-.09-.03-.09-.028-.092-.026-.093-.025-.096-.023-.097-.022-.099-.02-.1-.02-.102-.017-.105-.016-.106-.015-.108-.013-.11-.011-.112-.01-.114-.009-.116-.007-.117-.005-.12-.004-.122-.001-.097.002-.002.019-.017.019-.016.018-.015.02-.016.018-.015.018-.016.019-.014.019-.015.018-.014.019-.014.018-.014.02-.013.018-.013.018-.013.019-.013.019-.013.018-.012.019-.012.018-.011.017-.01.016-.01.016-.01.016-.008.016-.009.016-.008.015-.007.016-.008.015-.007.015-.007.015-.006.015-.006.015-.005.015-.006.015-.005.015-.005.014-.004.015-.004.014-.004.014-.003.014-.004.015-.002.014-.003.014-.002.014-.003.014-.001.014-.002h.014l.014-.002h.028l.014-.001h.035l.012.001.012.001.011.001.012.001.011.002.012.001.012.002zm-15.722 7.976v.095l-.001.034v.104l-.001.038v.115l-.001.04v.042l-.001.042v.087l-.001.045v.046l-.001.046v.048l-.001.048-.001.093-.001.057v.052l-.002.053v.105l-.001.052v.05l-.001.05v.19l-.001.045v.253l.001.04v.038l.001.038v.036l.001.036.001.035.001.034v.033l.002.033v.031l.002.031.001.03.001.03.002.028.001.028v.393l-.001.028v.079l-.001.024v.024l-.001.023v.042l-.001.021v.02l-.001.018v.034l-.001.015v.015l-.001.014v.012l-.001.012v.012l-.002.013v.013l-.001.014v.014l-.002.014v.027l-.001.014v.014l-.001.014v.014l-.001.013v.028l-.001.014v.014l-.001.014v.041l-.001.014v.068h-.001l-.004.02-.004.018-.004.019-.003.02-.002.02-.003.021-.001.022-.001.023v.073l.006.05.009.052.013.051.018.05.01.023v.001l.017.045.018.042.02.04.022.035.022.033.024.03.024.029.024.025.024.024.025.022.025.02.026.019.026.018.025.016.016.009.014.008.013.008.015.007.014.007.014.007.015.007.014.006.015.006.015.006.015.005.015.005.015.005.014.004.015.005.016.004.015.003.015.004.015.003.015.003.016.003.01.001v.053l-.001.014-.005.026-.005.034-.004.035-.004.037-.003.038-.002.04v.05l.002.078.009.091.016.093.025.094.031.09.012.027.016.044.031.07.034.065.035.059.036.053.036.048.037.043.037.039.036.035.036.031.036.03.036.025.035.024.033.022.022.012.018.011.019.01.02.01.019.01.019.009.019.009.02.008.019.008.02.007.018.007.02.007.02.006.019.006.02.006.019.005.02.005.02.004.018.004.02.004.02.004.019.003.019.002.02.003.02.002.019.002.019.001.02.002h.019l.019.001h.02l.022.001.06-.001.064-.005.064-.006.064-.01.063-.013.063-.016.062-.019.063-.022.06-.025.062-.029.06-.031.058-.034.058-.038.057-.04.056-.044.054-.046.052-.048.052-.052.05-.053.047-.056.047-.058.045-.06.043-.063.042-.064.04-.066.039-.067.037-.069.035-.07.035-.072.032-.074.032-.075.03-.076.03-.08.028-.082.027-.084.026-.085.024-.086.023-.088.022-.09.02-.091.02-.093.019-.094.017-.096.017-.098.016-.099.014-.1.014-.104.013-.104.012-.106.01-.108.011-.11.01-.112.008-.114.008-.115.007-.118.007-.119.005-.121.005-.123.004-.126.003-.127.003-.129.002-.131v-.133l.001-.144-.001-.093-.002-.08-.001-.081-.002-.08-.001-.08-.002-.08-.002-.08-.001-.08-.002-.078-.002-.079-.002-.079-.002-.078-.002-.077-.002-.078-.002-.077-.002-.077-.002-.077-.002-.076-.002-.077-.003-.075-.002-.076-.002-.075-.003-.076-.002-.074-.003-.075-.002-.074-.003-.074-.002-.073-.003-.074-.003-.073-.002-.073-.003-.073-.003-.075-.003-.077-.004-.079-.004-.08-.004-.083-.004-.084-.005-.086-.004-.088-.005-.079.029.025.06.052.06.05.06.047.06.047.06.045.06.044.06.043.061.04.06.04.062.04.06.036.062.036.061.034.061.033.062.031.061.03.062.028.062.027.062.026.062.023.062.023.063.02.062.02.063.018.062.016.063.014.063.013.063.012.063.01.063.007.062.007.063.005.074.003.106-.002.098-.005.097-.01.097-.014.097-.018.095-.021.096-.026.094-.03.094-.033.093-.038.091-.041.091-.046.09-.049.089-.053.087-.057.087-.06.085-.064.084-.068.082-.071.082-.075.08-.078.079-.081.078-.085.076-.088.075-.09.074-.095.072-.097.071-.1.07-.103.069-.106.067-.11.067-.112.067-.118.064-.12.063-.124.06-.126.058-.128.056-.13.053-.134.051-.135.049-.137.047-.14.044-.141.042-.144.04-.146.038-.148.036-.15.033-.152.032-.154.029-.156.027-.158.025-.16.023-.162.02-.164.02-.166.016-.167.015-.17.013-.172.01-.173.01-.176.006-.177.005-.18.003-.181v-.4l-.005-.216-.007-.216-.01-.215-.013-.215-.015-.214-.019-.214-.021-.213-.024-.213-.027-.212-.03-.211-.033-.21-.035-.211-.039-.21-.041-.209-.044-.208-.047-.208-.05-.207-.052-.206-.055-.206-.058-.205-.061-.204-.064-.203-.066-.203-.07-.202-.071-.201-.075-.201-.077-.2-.08-.199-.083-.198-.086-.198-.088-.196-.089-.193-.089-.187-.09-.181-.089-.176-.09-.17-.09-.166-.09-.16-.09-.155-.092-.15-.092-.144-.092-.138-.093-.134-.093-.128-.095-.123-.095-.118-.096-.112-.097-.107-.099-.101-.1-.096-.1-.09-.102-.084-.104-.078-.105-.072-.107-.065-.108-.058-.11-.052-.111-.044-.112-.037-.083-.02-.06-.064-.09-.087-.092-.08-.091-.076-.093-.07-.093-.063-.093-.057-.094-.051-.095-.045-.096-.038-.096-.031-.096-.025-.097-.017-.097-.011-.097-.004-.102.004-.101.009-.101.015-.1.022-.101.028-.1.034-.1.04-.099.045-.098.052-.098.057-.098.063-.096.068-.097.074-.095.08-.096.084-.094.09-.094.095-.094.1-.093.106-.093.11-.093.116-.092.121-.092.126-.091.132-.092.136-.09.142-.092.146-.09.152-.09.157-.091.162-.09.167-.09.172-.089.176-.086.176-.083.178-.08.178-.079.179-.075.18-.072.18-.07.18-.066.182-.064.183-.061.183-.058.184-.056.185-.053.185-.05.186-.046.187-.044.188-.042.188-.038.189-.036.19-.033.19-.03.19-.027.192-.024.193-.021.192-.019.194-.016.194-.012.194-.01.196-.007.195-.005.197-.001.191-.001.097v.421l.002.11.002.114.003.115.003.118.003.12.005.122.004.124.005.127.006.129.006.131.007.134.007.136.008.138.008.14.01.143.008.145.01.147.01.15.012.151.011.154.012.157.013.158.013.162.013.163.014.166.015.168.015.17.015.17.014.168.014.168.014.168.013.168.014.167.012.167.012.166.012.166.012.165.01.165.011.165.01.164.01.164.01.163.01.163.008.163.008.162.008.162.008.162.007.16.007.161.006.16.006.16.006.16.005.158.005.159.004.158.005.157.003.158.004.157.002.151v.162h-.001zm5.077-6.133c-2.809-.08-3.271-4.276-2.63-5.952l.023-.06.024-.059.024-.06.024-.058.026-.06.025-.059.003-.007.05.043c1.441.248 3.479 3.7 2.453 6.265-.004.009-.015.004-.022.007zm-18.896-5.187l.014.478.01.486.004.496.001.504-.004.513-.008.521-.012.53-.017.539-.005.135h-1.835v3.467h.675v1.544h14.007v-4.339h-1.334v-.672H52.89l-.006-.154-.03-.545-.035-.538-.041-.53-.047-.523-.053-.515-.06-.507-.064-.5-.07-.493-.077-.485-.083-.477-.089-.47-.095-.462-.1-.455-.108-.447-.113-.439-.119-.432-.125-.424-.131-.416-.138-.409-.144-.4-.15-.394-.156-.385-.162-.378-.168-.37-.175-.361-.18-.353-.188-.346-.193-.338-.199-.329-.206-.322-.214-.316-.221-.31-.229-.304-.235-.298-.244-.292-.25-.285-.258-.28-.265-.272-.273-.267-.279-.261-.287-.255-.294-.249-.3-.242-.309-.237-.315-.23-.322-.225-.33-.218-.335-.213-.344-.206-.158-.09-.312-.208-.33-.209-.338-.203-.345-.197-.352-.192-.36-.186-.366-.18-.373-.175-.38-.17-.388-.163-.056-.022.17-.435.205-.521.2-.508.197-.492.192-.477.187-.463.183-.448.179-.432.173-.419.17-.403.165-.388.16-.374.156-.358.15-.344.147-.329.142-.313.138-.299.132-.283.128-.268.123-.253.119-.238.113-.221.108-.207.103-.19.098-.175.092-.158.086-.142.08-.125.073-.107.067-.094.07-.09.071-.09.072-.086.072-.083.072-.08.071-.076.072-.074.072-.07.071-.066.072-.064.071-.06.072-.058.071-.054.072-.051.071-.048.072-.045.071-.043.072-.039.071-.036.072-.034.071-.031.072-.028.072-.025.072-.023.073-.02.073-.017.073-.015.073-.012.074-.01.074-.006.075-.004.08-.002h.143l.047.001h.087l.04.001h.04l.037.001h.036l.034.001h.032l.03.002h.03l.026.001h.025l.023.002h.02l.01.001.011.006.039.02.043.022.049.024.054.027.06.03.067.032.072.035.078.038.085.04.09.043.097.047.102.048.11.052.114.055.121.057.128.06.133.063.14.066.146.069.152.071.158.075.164.077.17.08.177.082.183.086.19.088.301.142h1.723l-.02-1.032-.003-.133-.002-.132-.001-.13-.001-.127v-.61l.002-.117.002-.114.002-.113.002-.11.003-.11.004-.107.003-.105.004-.103.005-.101.005-.1.005-.097.005-.096.006-.094.007-.091.006-.09.007-.088.008-.085.007-.084.008-.082.009-.08.008-.077.01-.075.009-.072.01-.077.013-.082.015-.088.016-.093.017-.098.02-.104.022-.108.023-.114.025-.119.026-.123.029-.128.03-.133.032-.138.033-.142.035-.147.038-.152.038-.156.04-.161.043-.166.044-.17.046-.175.047-.179.05-.184.05-.188.053-.193.054-.197.056-.202.058-.206.059-.211.06-.216.293-1.024-.663-.348-.062-.032-.063-.032-.063-.031-.063-.031-.064-.03-.064-.031-.064-.03-.065-.03-.065-.028-.065-.029-.065-.028-.066-.028-.035-.015.04-.138-.361-.19-.06-.03-.062-.032-.06-.03-.062-.03-.062-.03-.062-.03-.063-.028-.063-.029-.063-.028-.063-.028-.064-.027-.064-.027-.064-.027-.065-.026-.065-.026-.065-.026-.066-.025-.066-.025-.066-.024-.066-.024-.067-.024-.067-.023-.068-.023-.067-.023-.068-.022-.069-.022-.068-.021-.07-.021-.069-.02-.07-.021-.07-.02-.07-.02-.07-.018-.07-.019-.069-.018-.07-.017-.068-.016-.07-.016-.068-.015-.069-.015-.068-.014-.068-.013-.068-.013-.068-.012-.067-.012-.068-.01-.067-.01-.067-.01-.066-.01-.067-.008-.066-.008-.066-.007-.066-.006-.066-.006-.065-.005-.066-.005-.065-.004-.065-.004-.064-.002-.064-.003-.065-.001-.064-.001h-.065l-.12.001-.12.005-.12.009-.12.012-.12.015-.12.018-.121.023-.12.025-.12.029-.119.032-.12.036-.118.038-.12.043-.118.045-.119.05-.118.051-.119.056-.118.059-.117.062-.118.066-.117.068-.117.072-.117.076-.117.078-.117.082-.116.085-.116.088-.116.092-.115.095-.116.098-.115.101-.12.109-.13.13-.137.16-.141.181-.146.206-.152.23-.158.255-.165.28-.172.304-.178.33-.186.354-.192.38-.2.406-.208.431-.214.457-.222.483-.23.508-.236.534-.245.56-.252.585-.259.612-.266.637-.274.663-.282.689-.29.714-.296.741-.304.767-.312.792-.32.819-.326.844-.334.87-.342.896-.35.922-.42 1.114V29.17h3.219v-4.339h-1.334v-.672H23.187v3.467h.675v1.544h3.197v35.626h-3.872v3.467h.675v1.544h15.313v-4.339h-1.334v-.672h-1.558v-16.75l.123.04.291.106.284.111.278.117.27.122.264.128.256.133.25.139.243.144.236.15.23.154.222.16.216.165.21.17.202.176.196.181.19.186.182.191.177.197.17.201.164.207.157.212.152.217.066.101.108.255.11.277.107.286.102.294.098.304.094.312.09.32.085.33.082.338.077.347.074.356.069.364.065.374.06.382.057.39.052.4.048.408.044.417.04.426.034.435.031.443.027.452.022.46.018.47z" fill="#2B2A29"/><path d="M34.748 43.678v-16.49h3.218v-2.593H23.645v2.594h3.872v38.043h-3.872v2.594H37.64v-2.594h-2.892V45.84c3.483.947 5.846 2.933 7.09 5.96 1.244 3.026 1.742 7.503 1.493 13.432h-1.82v2.594h12.69v-2.594h-2.8c-.093-5.97-1.158-10.591-3.195-13.865-2.037-3.273-5.31-5.61-9.82-7.01 2.364-6.134 3.973-9.767 4.829-10.9.855-1.132 1.78-1.698 2.775-1.698.56 0 .84.01.84.031 0 .02 1.057.525 3.172 1.513h.933c-.031-1.482.008-2.666.117-3.551.108-.885.505-2.522 1.19-4.91a10.272 10.272 0 00-2.03-.803 7.665 7.665 0 00-2.076-.309c-1.213 0-2.41.546-3.592 1.637s-3.654 6.619-7.417 16.582l-.653 1.73h-1.726zm88.977 24.802h5.739l.487.03c.163 0 .299.004.41.014a3.9 3.9 0 00.344.015c.531 0 .875-.098 1.03-.294.155-.195.233-.498.233-.91a7.11 7.11 0 00-.455-2.507 6.364 6.364 0 00-1.296-2.127c-.487-.508-1.097-.91-1.828-1.203-.731-.293-1.629-.479-2.692-.557a23.898 23.898 0 010-1.467c.015-.47.037-.92.066-1.35.03-.762.089-1.417.178-1.965.088-.547.132-.85.132-.91a.713.713 0 00-.088-.307.44.44 0 00-.2-.162h-.243c-.148.02-.307.035-.477.044a6.13 6.13 0 01-.875.001 5.596 5.596 0 00-.332-.015c-.414 0-.673.464-.776 1.393-.103.93-.148 3.34-.133 7.231v3.902c0 .391.063.68.188.866.126.185.322.278.588.278zm4.498-.998h-2.526a53.63 53.63 0 01-.067-1.48 51.523 51.523 0 010-2.186v-.91c0-.195.015-.41.045-.645.93.156 1.654.601 2.171 1.335.517.733.776 1.706.776 2.919 0 .41-.004.655-.011.733a2.02 2.02 0 00-.011.205l-.377.03zm-9.462-7.392l1.152.264c.222-.92.554-1.863.997-2.83.444-.969.665-1.629.665-1.981 0-.254-.066-.489-.199-.704-.133-.215-.281-.332-.443-.352a.122.122 0 00-.067.015c-.015.01-.428.083-1.241.22a8.398 8.398 0 01-.82.088c-.31.02-.982.029-2.016.029h-4.122c-1.049 0-1.728-.01-2.038-.03a8.22 8.22 0 01-.82-.087 85.669 85.669 0 00-1.241-.206c-.015 0-.029-.01-.044-.029-.178 0-.333.112-.466.337a1.24 1.24 0 00-.177.72c0 .351.218 1.011.654 1.98.436.967.772 1.91 1.008 2.83l1.152-.264a8.522 8.522 0 01-.221-.997 4.792 4.792 0 01-.067-.675c0-.88.214-1.53.643-1.95.428-.422 1.086-.642 1.972-.661h.399c-.015.821-.026 1.345-.033 1.57-.008.224-.011.435-.011.63a573.247 573.247 0 00-.067 2.538v.132c-.015.332-.018.806-.011 1.422.007.617.011 1.062.011 1.335a11.9 11.9 0 00-.022.88v.939c0 1.701.041 2.684.122 2.948.081.264.255.396.521.396h1.307c.31-.02.535-.063.676-.132.14-.068.21-.308.21-.718-.014-.196-.044-1.262-.088-3.198a204.248 204.248 0 01-.067-3.99c-.015-.039-.022-.044-.022-.014l.067-2.391v-.895c0-.323.007-.807.022-1.452h.399c.901.02 1.562.24 1.983.66.421.42.631 1.07.631 1.95 0 .255-.026.524-.077.807a7.871 7.871 0 01-.211.866zm-11.944 4.342l-.731-.763-1.13 2.053-.133.177c-.901-.43-1.669-1.36-2.304-2.788-.636-1.427-.953-2.796-.953-4.106 0-.45.029-.905.088-1.364.059-.46.156-.856.289-1.189.989.294 1.739.841 2.249 1.643.509.802.786 1.203.831 1.203.192 0 .506-.42.941-1.261.436-.841.654-1.34.654-1.496 0-.411-.498-.969-1.496-1.673-.997-.704-1.687-1.056-2.071-1.056-.636 0-1.393.856-2.272 2.567-.879 1.711-1.318 3.388-1.318 5.031 0 1.8.484 3.594 1.451 5.383.968 1.79 1.754 2.684 2.36 2.684.414-.02.975-.493 1.684-1.422.709-.93 1.33-2.137 1.861-3.623zm-17.261-1.907c0 1.701.506 3.285 1.518 4.752 1.011 1.467 1.865 2.2 2.559 2.2.665 0 1.5-.953 2.504-2.86s1.507-3.838 1.507-5.794c-.015-1.858-.477-3.49-1.385-4.899-.909-1.408-1.821-2.112-2.737-2.112-.753 0-1.606.924-2.56 2.772a12.581 12.581 0 00-1.406 5.94zm2.26-5.427c1.123.176 2.068.894 2.836 2.156.769 1.261 1.16 2.743 1.175 4.444 0 .45-.03.836-.089 1.159-.059.323-.155.65-.288.983-1.049.176-2.031-.343-2.947-1.555-.916-1.213-1.374-2.67-1.374-4.371 0-.528.052-1.027.155-1.496.103-.47.28-.91.532-1.32zM81.29 55.836h3.346a38.65 38.65 0 00-.155 2.127c-.03.675-.044 1.58-.044 2.714 0 3.892.044 6.165.133 6.82.089.655.325.983.709.983h1.285c.31 0 .536-.04.676-.118.14-.078.21-.322.21-.733 0-1.271-.055-2.674-.166-4.21-.11-1.535-.166-2.488-.166-2.86 0-1.388.056-2.513.166-3.373.111-.86.174-1.496.189-1.907-.015-.196-.034-.318-.056-.367-.022-.049-.432-.073-1.23-.073h-7.046c-.384 0-.624.44-.72 1.32-.096.88-.144 2.386-.144 4.517 0 3.873.048 6.141.144 6.806.096.665.336.998.72.998h1.285c.31 0 .532-.04.665-.118.133-.078.207-.322.222-.733 0-.195-.06-1.1-.178-2.713a60.184 60.184 0 01-.177-4.357c0-.802.026-1.589.078-2.361.051-.773.136-1.56.254-2.362zm-4.431 1.232l-.576-.909a.531.531 0 01-.233.19.745.745 0 01-.255.045c-.709 0-1.348-.328-1.917-.983-.568-.655-1.31-.983-2.227-.983-1.314 0-2.411.69-3.29 2.069-.879 1.378-1.363 3.055-1.452 5.03a4.979 4.979 0 00-.022.47c0 .156.008.332.022.528.074 2.25.599 3.97 1.574 5.163.975 1.193 2.282 1.79 3.922 1.79.783 0 1.518-.201 2.205-.602a5.747 5.747 0 001.784-1.657l-.422-.616c-.546.528-1.056.914-1.529 1.158-.472.245-.915.367-1.33.367-.93 0-1.687-.494-2.27-1.481-.584-.988-.853-2.254-.81-3.8.237-.254.48-.459.732-.616.251-.156.502-.234.754-.234.206 0 .406.049.598.147.192.097.45.283.775.557.414.352.69.557.831.616.14.059.3.088.477.088.31.02.66-.151 1.052-.513s.831-.905 1.319-1.629l-.443-.791a1.151 1.151 0 01-.421.352 1.003 1.003 0 01-.421.117c-.724.02-1.175-.161-1.352-.543-.177-.381-.502-.572-.975-.572-.37 0-.86.186-1.474.557-.613.372-1.104.744-1.473 1.115.044-2.19.2-3.735.465-4.635.266-.9.68-1.359 1.241-1.379.163.02.244.025.244.015 0-.01.421.514 1.263 1.57.28.352.543.61.787.777.243.166.506.25.786.25.266 0 .587-.093.964-.28a5.016 5.016 0 001.097-.747zm-18.015 9.3c.295.743.724 1.35 1.285 1.819.561.469 1.108.713 1.64.733.842 0 1.57-.528 2.182-1.584.613-1.056.92-2.503.92-4.342 0-2.151-.45-4.214-1.352-6.19-.901-1.975-1.773-2.962-2.615-2.962-.916 0-1.839.904-2.77 2.713a12.366 12.366 0 00-1.395 5.735c-.015 1.017.059 2.435.221 4.254a73.63 73.63 0 01.288 5.25c0 .275-.003.695-.01 1.262-.008.568-.005.978.01 1.232 0 .411-.003.685-.01.822a7.604 7.604 0 00-.012.41.297.297 0 00-.022.103c0 .03.007.054.022.073.015.079.07.147.166.206.096.058.21.088.344.088.458 0 .805-.308 1.041-.924.237-.616.355-1.619.355-3.007-.015-.86-.037-1.672-.067-2.435a77.891 77.891 0 00-.221-3.256zm.62-9.77c.754.49 1.43 1.487 2.028 2.993.598 1.506.934 2.904 1.008 4.195v1.086c-.044.762-.177 1.33-.399 1.701-.222.372-.487.557-.798.557-.65 0-1.274-.591-1.872-1.774-.598-1.184-.898-2.587-.898-4.21 0-1.017.074-1.863.222-2.538a8.91 8.91 0 01.71-2.01z" fill="#fff"/><path fill-rule="evenodd" clip-rule="evenodd" d="M8.026 15.776h24.265v2.397H8.026v-2.397z" fill="#2B2A29"/><path fill-rule="evenodd" clip-rule="evenodd" d="M8.356 16.212H31.96v1.525H8.356v-1.525z" fill="#fff"/><path fill-rule="evenodd" clip-rule="evenodd" d="M10.847 22.14h2.303v7.986h-2.303v-7.985zm6.653 7.454h2.303v7.985H17.5v-7.985z" fill="#fff" stroke="#2B2A29" stroke-width=".076" stroke-miterlimit="22.926"/><path fill-rule="evenodd" clip-rule="evenodd" d="M31.574 28.577h2.303v7.986h-2.303v-7.986z" fill="#fff"/><path fill-rule="evenodd" clip-rule="evenodd" d="M11.87 43.314h3.395v7.985H11.87v-7.985zM9.593 63.385h4.784v2.388H9.593v-2.388zm5.296 0h4.784v2.388h-4.784v-2.388zm5.295 0h4.165v2.388h-4.165v-2.388zm-8.026-2.88h3.874v2.222h-3.874v-2.222zm4.478 0h3.874v2.222h-3.874v-2.222zm-7.193.085h2.24v2.222h-2.24V60.59zm.54-3.134h3.874v2.222H9.983v-2.221zm9.532-7.791h3.874v2.222h-3.874v-2.222zm-2.715.085h2.239v2.221H16.8V49.75zm.54-3.134h3.874v2.222h-3.875v-2.222zm-.32-21.85h3.874v2.222H17.02v-2.222zm-2.715.084h2.24v2.222h-2.24v-2.221zm.54-3.133h3.874v2.222h-3.874v-2.222zm11.77-.085h3.875v2.222h-3.875v-2.222zm-2.715.085h2.24v2.222H23.9v-2.222zm.54-3.133h3.875v2.221H24.44v-2.221z" fill="#fff" stroke="#2B2A29" stroke-width=".076" stroke-miterlimit="22.926"/><path fill-rule="evenodd" clip-rule="evenodd" d="M8.93 71.537h46.336v1.156H8.931v-1.156zm52.708 0h71.874v1.156H61.638v-1.156zm13.877-31.249h1.344v2.804c.3-.03.504-.106.61-.229.104-.122.269-.465.489-1.024.279-.714.56-1.157.84-1.33.279-.175.728-.26 1.348-.26l.195-.005v.983l-.19-.005c-.275 0-.476.034-.603.101a.762.762 0 00-.308.309c-.08.138-.196.42-.35.85a3.15 3.15 0 01-.266.57c-.096.152-.265.296-.506.431.299.084.547.253.742.508.195.254.409.615.641 1.078l.909 1.807h-1.58l-.795-1.703a12.771 12.771 0 01-.245-.45c-.171-.323-.314-.526-.424-.607-.11-.08-.279-.122-.507-.125v2.885h-1.343v-6.588zm5.349 4.134c0-.42.105-.826.313-1.218.21-.392.505-.692.888-.898.383-.207.81-.311 1.283-.311.729 0 1.327.235 1.793.704.467.47.7 1.062.7 1.778 0 .72-.236 1.319-.706 1.794-.471.476-1.063.712-1.777.712a2.82 2.82 0 01-1.265-.296 2.05 2.05 0 01-.916-.87c-.208-.382-.313-.846-.313-1.395zm1.308.067c0 .474.113.836.34 1.087.227.252.507.378.84.378.334 0 .613-.126.838-.378.226-.251.34-.616.34-1.096 0-.466-.114-.827-.34-1.078a1.077 1.077 0 00-.837-.378c-.334 0-.614.126-.84.378-.228.251-.341.615-.341 1.087zm4.581-2.385h1.58l1.199 3.325 1.207-3.325h1.576v4.772H91.23v-3.142l-1.176 3.142h-1.09l-1.121-3.142v3.142h-1.09v-4.772zm6.791 0h4.282v4.772h-1.275v-3.752h-1.73v3.752h-1.277v-4.772zm6.621 1.456l-1.158-.208c.13-.461.354-.802.671-1.024.32-.22.791-.333 1.417-.333.57 0 .993.068 1.272.201.278.134.475.302.588.508.113.205.17.581.17 1.13l-.014 1.474c0 .419.02.729.062.928.041.198.118.413.23.64h-1.263a4.664 4.664 0 01-.123-.373 1.836 1.836 0 00-.045-.149c-.218.21-.451.367-.699.473a2.031 2.031 0 01-.795.156c-.496 0-.888-.134-1.173-.399a1.323 1.323 0 01-.43-1.012c0-.269.066-.51.196-.721a1.27 1.27 0 01.547-.485c.234-.112.573-.21 1.015-.294.595-.11 1.009-.215 1.238-.31v-.126c0-.244-.06-.416-.181-.52-.121-.102-.349-.155-.685-.155-.228 0-.404.045-.532.134-.127.087-.229.242-.308.465zm1.706 1.024a8.063 8.063 0 01-.776.194c-.353.075-.584.148-.694.219-.166.118-.25.265-.25.445 0 .178.067.33.2.458a.7.7 0 00.508.193c.231 0 .45-.075.659-.224a.782.782 0 00.304-.418c.034-.108.049-.313.049-.615v-.252zm2.461-2.48h1.277v1.747h1.825v-1.747h1.281v4.772h-1.281V44.87h-1.825v2.005h-1.277v-4.772zm5.635 0h1.226v2.997l1.962-2.997h1.253v4.772h-1.226v-3.051l-1.989 3.05h-1.226v-4.77zm5.716 0h1.226v2.997l1.962-2.997h1.252v4.772h-1.226v-3.051l-1.988 3.05h-1.226v-4.77zm3.056-1.937h.622c-.036.406-.18.727-.433.958-.254.234-.581.349-.984.349s-.73-.115-.982-.349c-.253-.231-.397-.552-.434-.958h.623c.02.213.096.373.226.483.13.109.319.164.567.164.248 0 .437-.055.567-.164.131-.11.207-.27.228-.483zM75.236 30.29h4.51v1.105h-3.165v5.482h-1.345v-6.588zm4.803 1.815h1.19v.7c.154-.24.363-.435.626-.583a1.74 1.74 0 01.877-.226c.56 0 1.036.218 1.425.652.39.434.586 1.04.586 1.816 0 .796-.197 1.416-.59 1.857-.393.442-.87.663-1.43.663-.266 0-.508-.052-.725-.156-.216-.106-.443-.286-.684-.54v2.405H80.04v-6.588zm1.263 2.305c0 .536.107.933.322 1.187.214.257.476.385.786.385a.926.926 0 00.74-.352c.196-.235.295-.622.295-1.157 0-.501-.102-.873-.305-1.115a.945.945 0 00-.753-.363.98.98 0 00-.777.357c-.206.238-.308.59-.308 1.058zm3.727-2.305h1.358l1.153 3.388 1.127-3.388h1.32l-1.702 4.592-.305.831a3.46 3.46 0 01-.32.638 1.411 1.411 0 01-.35.358c-.131.09-.292.162-.484.213a2.6 2.6 0 01-.653.077c-.245 0-.485-.026-.722-.077l-.113-.99c.2.04.38.059.54.059.297 0 .517-.086.66-.258.14-.171.25-.39.326-.658l-1.835-4.785zm5.725 0h4.282v4.772h-1.275v-3.752h-1.73v3.752h-1.277v-4.772zm5.617 0h4.282v4.772h-1.276v-3.752h-1.73v3.752h-1.276v-4.772zm6.62 1.456l-1.157-.208c.13-.461.353-.802.671-1.024.319-.221.79-.333 1.416-.333.571 0 .994.068 1.273.2.277.134.474.303.587.509.113.205.17.58.17 1.13l-.014 1.474c0 .419.021.729.062.928.041.198.118.413.23.64h-1.263a4.664 4.664 0 01-.123-.373 1.5 1.5 0 00-.045-.15 2.287 2.287 0 01-.699.473 2.031 2.031 0 01-.795.157c-.495 0-.888-.134-1.173-.399a1.325 1.325 0 01-.429-1.012c0-.269.065-.51.195-.721.13-.212.313-.373.547-.485.234-.112.574-.21 1.015-.294.596-.11 1.009-.215 1.239-.31v-.126c0-.244-.061-.416-.182-.52-.121-.103-.348-.155-.685-.155-.227 0-.404.045-.531.133-.127.088-.23.243-.309.465zm1.707 1.024a8.15 8.15 0 01-.777.193c-.353.075-.584.15-.694.22-.166.118-.25.265-.25.445 0 .177.067.33.2.458a.704.704 0 00.509.193c.231 0 .449-.075.658-.224a.783.783 0 00.304-.418c.034-.108.05-.313.05-.615v-.252z" fill="#fff"/></g><defs><clipPath id="clip0"><path fill="#fff" d="M0 0h140v96H0z"/></clipPath></defs></svg>