<svg width="17" height="20" fill="none" xmlns="http://www.w3.org/2000/svg"><path d="M8.5 10a4.5 4.5 0 100-9 4.5 4.5 0 000 9z" stroke="#fff" stroke-width="1.6"/><path d="M12.793 12h.303a2.55 2.55 0 011.704.657 2.64 2.64 0 01.851 1.643l.336 2.733a1.78 1.78 0 01-.417 1.375 1.72 1.72 0 01-.581.437 1.69 1.69 0 01-.707.155H2.718a1.69 1.69 0 01-.707-.155 1.72 1.72 0 01-.581-.437 1.758 1.758 0 01-.417-1.375l.335-2.734a2.64 2.64 0 01.852-1.642A2.549 2.549 0 013.905 12h.302" stroke="#fff" stroke-width="1.6" stroke-linecap="round" stroke-linejoin="round"/></svg>